<?xml version="1.0" standalone="no"?>
<!DOCTYPE svg PUBLIC "-//W3C//DTD SVG 1.1//EN" "http://www.w3.org/Graphics/SVG/1.1/DTD/svg11.dtd" >
<svg xmlns="http://www.w3.org/2000/svg">
<metadata>
Created by FontPrep 20130207 at Wed Sep 28 10:42:28 2016
 By Tina Muller
Copyright (c) 2016 by Vintage Type Company. All rights reserved.
</metadata>
<defs>
<font id="5405a157ac1d83847edde3bef0ff76d4" horiz-adv-x='1024' >
  <font-face 
    font-family="MidnightOwl"
    font-weight="400"
    font-stretch="normal"
    units-per-em="2048"
    panose-1="0 0 0 0 0 0 0 0 0 0"
    ascent="1536"
    descent="-512"
    x-height="1516"
    cap-height="1530"
    bbox="-98.129 -469 2539.78 2048"
    underline-thickness="102"
    underline-position="-102"
    unicode-range="U+0020-2212"
  />
<missing-glyph horiz-adv-x="819" 
 />
    <glyph glyph-name=".notdef" horiz-adv-x="819" 
 />
    <glyph glyph-name=".null" horiz-adv-x="0" 
 />
    <glyph glyph-name="nonmarkingreturn" horiz-adv-x="681" 
 />
    <glyph glyph-name="space" unicode=" " horiz-adv-x="819" 
 />
    <glyph glyph-name="exclam" unicode="!" horiz-adv-x="471" 
d="M301 182q27 -81 -18 -155q-17 -35 -57 -47t-76 2q-61 29 -82 78t-7 96q15 48 59 78t81 22q86 -25 100 -74zM213 401q-73 0 -85 31q-19 52 -53 403q-33 352 -36 372q-3 19 -21 101t-18 133q0 52 18 70q30 33 136 23q8 -2 78 3q162 12 163 -54q-2 -43 -25 -147t-34 -230
q-47 -492 -92 -676q-10 -25 -14 -27t-17 -2z" />
    <glyph glyph-name="quotedbl" unicode="&#x22;" horiz-adv-x="567" 
d="M387 1190h-37q-31 0 -37 35q-10 37 -23 111t-24 112q-4 25 -2 37q0 45 51 49h105q51 -4 53 -49q0 -12 -7 -43q-6 -31 -20 -106t-24 -111q-6 -35 -35 -35zM209 1485q0 -25 -6 -49q-5 -24 -19 -100q-14 -74 -24 -110t-37 -36h-37q-27 0 -37 36t-23 110q-14 74 -20 100
q-6 24 -6 49q0 45 53 49h103q53 -4 53 -49z" />
    <glyph glyph-name="numbersign" unicode="#" horiz-adv-x="1175" 
d="M506 883q-31 0 -37 -29l-47 -164q-6 -18 5 -34t32 -15h104q31 0 37 29q33 110 43 146t-2 51t-31 16h-104zM1124 946v-4l-2 -2v-2q-10 -31 -24 -42t-47 -9l-138 -2q-37 0 -43 -33l-47 -158q-6 -20 7 -38t36 -19q157 -6 166 -17q10 -10 9 -24t-15 -100h-2l-2 -4v-5
q-10 -31 -24 -42t-48 -9l-162 -2q-39 0 -49 -37l-75 -260q-6 -25 -33 -24h-142q-16 0 -26 13t-4 37q5 23 27 99t30 108t-3 46q-11 16 -32 16h-104q-29 0 -39 -29l-76 -266q-6 -25 -33 -24h-141q-16 0 -27 13q-10 13 -5 34t63 223q4 15 -7 31t-30 16l-129 -2q-20 0 -26 5
q-5 5 -9 24q0 20 4 32t11 35t11 33q4 11 7 25q16 60 65 59h142q33 0 43 33q33 120 40 146t-7 43t-35 18l-146 -2q-46 0 -33 45q20 70 39 129q18 39 60 39h162q39 0 49 36q27 96 65 238q12 37 54 47h43q61 4 80 4t28 -4q29 -12 18 -41l-67 -229q-4 -19 7 -35t32 -16h100
q29 0 39 28q37 144 70 250q10 33 51 43h43q61 4 81 4t27 -4q29 -12 19 -41l-70 -237q-4 -19 6 -33t29 -15q138 -6 148 -16t10 -35l-15 -90h-4z" />
    <glyph glyph-name="dollar" unicode="$" horiz-adv-x="919" 
d="M616 199q64 73 62 157t-57 144q-7 -16 -9 -147t4 -154zM459 123l-2 41q0 10 -3 55t2 71t-1 285q-1 21 -13 27t-55 16q-8 -108 -7 -268t9 -223q41 -25 70 -4zM426 1446q-41 0 -43 -41l2 -39q0 -402 6 -409t51 -17h11v80l-7 270v53q0 29 5 99l-20 4h-5zM233 1081
q7 57 3 130t0 122q-48 -49 -48 -131t45 -121zM381 -118l2 -70v-48q0 -23 -16 -22q-61 -10 -80 -8q-55 0 -56 55q7 102 8 154q1 53 -22 65q-4 4 -8 4q-27 18 -51 9t-68 -15q-43 -6 -45 0q-33 14 -31 47q0 9 -7 107t-7 177t18 81q33 6 99 14q23 2 26 -24q11 -44 21 -96
t45 -101q6 -10 17 -6t12 16v12q-4 152 -5 232l7 166q0 29 -25 41q-182 98 -228 286q-27 106 -3 214t75 186q94 128 138 151q33 23 32 64l-6 135q0 27 25 37q41 16 102 8q18 0 18 -25q3 -132 9 -155q20 4 65 4q6 43 7 49l-3 100q0 37 33 41q2 0 42 7t57 -8q16 -14 16 -68
t-6 -123q0 -45 35 -55q12 -4 18 6v2q23 33 57 33q34 1 56 -9q24 -10 28 -16t4 -26t-6 -69q-6 -50 12 -119t-28 -89q-27 -14 -63 -9t-52 37t-24 51t-19 27q-4 -19 -4 -199t-4 -222t37 -62q152 -80 203 -211q16 -53 22 -78q37 -147 0 -278q-49 -176 -235 -301q-16 -10 -17 -33
q0 -116 4 -174l-2 -24q0 -13 -18 -13l-96 2q-17 0 -18 33t-1 98v14q0 43 -43 48h-2q-20 5 -36 -11t-15 -46z" />
    <glyph glyph-name="percent" unicode="%" horiz-adv-x="1568" 
d="M1212 96q35 131 25 264q-2 59 -24 129t-64 72q-29 0 -46 -30t-22 -52q-39 -236 -12 -368q10 -43 40 -77t61 -12t42 74zM1315 587q78 -44 124 -126t38 -182q-7 -99 -49 -181t-133 -123t-199 -14q-168 41 -234 212t23 319q88 154 268 143q84 -4 162 -48zM309 1497
q-43 1 -65 -67q-59 -185 -8 -394q8 -52 40 -76t62 11q31 35 41 76q29 133 -2 368q-1 23 -19 53t-49 29zM573 1423q49 -106 41 -214q-8 -107 -82 -197t-184 -115t-198 19q-171 86 -174 309q-2 102 44 181t124 122t163 45q180 4 266 -150zM516 -131v-2q-10 2 -61 5t-60 18
q-8 14 -1 59q8 45 104 371t126 430q30 106 120 444q91 338 110 403q12 41 53 48q42 6 90 6t62 -6q27 -10 18 -39l-485 -1682q-10 -53 -68 -55h-8z" />
    <glyph glyph-name="ampersand" unicode="&#x26;" horiz-adv-x="1441" 
d="M813 139q33 10 81 56t58 76t-37 65q-104 80 -158 122t-131 116t-132 145q-18 29 -52 13t-77 -86t-33 -165q14 -157 172 -271t309 -71zM455 1452l-2 -27q2 -145 135 -303q51 36 69 96q32 108 -44 241q-36 65 -76 81q-37 12 -59 -17q-21 -30 -23 -71zM1376 618
q-23 -53 -94 -169q-29 -45 -6 -93q74 -174 78 -274q7 -178 -23 -242q-17 -37 -51 37q-68 160 -195 270q-20 13 -28 -4l-2 -2q-41 -121 -139 -207t-217 -122q-120 -36 -255 -18q-136 17 -254 97q-118 81 -183 221t-53 304t122 321q8 13 65 73t111 105t22 117q-74 180 -30 346
q27 94 93 169q67 75 158 102t187 -7t143 -116q68 -121 13 -264q-33 -88 -99 -155t16 -138q15 -15 75 -61q127 -98 255 -267q26 -34 40 -61q15 -27 45 -26t47 28q44 86 38 86q-12 4 -14 4q-51 4 -79 35t-24 89t45 104q42 46 109 50q27 0 43 -8q74 -31 82 -123t-41 -201z" />
    <glyph glyph-name="quotesingle" unicode="'" horiz-adv-x="296" 
d="M209 1485q0 -25 -6 -49q-5 -24 -19 -100q-14 -74 -24 -110t-37 -36h-37q-27 0 -37 36t-23 110q-14 74 -20 100q-6 24 -6 49q0 45 53 49h103q53 -4 53 -49z" />
    <glyph glyph-name="parenleft" unicode="(" horiz-adv-x="616" 
d="M413 1461q-92 -117 -134 -320q-66 -328 -17 -656q26 -214 126 -360q28 -41 64 -89t60 -84t2 -68q-20 -32 -62 -18t-73 48q-410 367 -377 952q10 143 55 279q104 299 336 483q47 35 80 39h23q85 -19 -5 -116q-53 -56 -78 -90z" />
    <glyph glyph-name="parenright" unicode=")" horiz-adv-x="624" 
d="M535 866q35 -582 -377 -952q-33 -33 -73 -47q-40 -15 -60 17t8 75q11 19 75 107t104 174t64 245q47 330 -18 656q-42 206 -134 319q-26 33 -59 73l-51 60q-18 18 -13 42t42 32h23q31 -4 77 -39q231 -180 336 -483q50 -146 56 -279z" />
    <glyph glyph-name="asterisk" unicode="*" horiz-adv-x="688" 
d="M296 868q-84 0 -75 64q0 26 15 104l4 25q-4 -4 -38 -51q-62 -85 -79 -78q-74 14 -109 86q-16 37 72 74q106 47 115 59q-12 -2 -34 -5q-23 -3 -51 -11q-106 -30 -139 -11q-14 27 -4 103q4 49 58 43q34 -5 85 -18q50 -13 68 -17q-4 10 -139 111q-37 31 -8 71l8 13
q41 36 61 34t44 -30t57 -59q33 -30 41 -34q-2 9 -18 67t-17 73q-2 33 36 34t46 -2q10 1 47 1t35 -33q1 -15 -15 -73t-18 -67q8 4 41 34t57 59q24 28 43 30q20 2 42 -17t24 -23t4 -7q29 -41 -8 -71q-135 -100 -139 -111q16 4 54 13q38 10 56 14t43 8q53 6 57 -43q0 -4 6 -38
t-10 -65q-34 -20 -155 15q-27 6 -70 12q18 -17 89 -47t93 -53q12 -16 4 -33q-33 -72 -106 -86q-22 -9 -87 84q-29 41 -34 47l4 -27q19 -79 19 -104q6 -45 -41 -58q-18 -6 -34 -6z" />
    <glyph glyph-name="plus" unicode="+" horiz-adv-x="784" 
d="M271 1077q11 0 65 -2t57 0q29 2 37 -26q7 -28 3 -116q-3 -89 -3 -110v-8q0 -14 10 -24t25 -11h203q14 0 20 2q35 6 37 -37q2 -18 1 -58t1 -58q2 -19 -2 -25t-23 -6h-237q-15 0 -25 -10t-10 -25v-209q0 -14 2 -20q6 -35 -37 -37q-18 -2 -59 -1t-58 -1t-24 3q-6 5 -6 21
l2 93q-2 63 -2 155q0 15 -10 25t-54 9t-178 -13h-24q-14 0 -26 11q-11 11 -11 23t3 64q3 53 -1 57q-2 29 29 36t117 4q85 -3 106 -3h18q15 0 25 10t8 25l-12 225q0 14 11 26t22 11z" />
    <glyph glyph-name="comma" unicode="," horiz-adv-x="360" 
d="M27 186q9 18 47 49t90 22t88 -57q76 -99 -82 -325q-14 -18 -33 -33q-33 -20 -49 6q-18 20 10 52t37 67l-76 41q-47 25 -57 90q-6 31 25 88z" />
    <glyph glyph-name="hyphen" unicode="-" horiz-adv-x="655" 
d="M561 598h-92q-131 -3 -189 1t-251 -11h-25q-14 0 -26 11q-11 11 -11 23t2 64q2 53 0 57q-3 39 51 39q27 4 104 1t97 -3h305q14 0 21 2q33 4 39 -37q2 -18 0 -58t1 -58q3 -19 -2 -25t-24 -6z" />
    <glyph glyph-name="period" unicode="." horiz-adv-x="319" 
d="M246 182q27 -82 -19 -155q-18 -35 -57 -47t-76 2q-63 29 -86 88q-16 39 -2 86q14 48 58 78t81 22q86 -25 101 -74z" />
    <glyph glyph-name="slash" unicode="/" horiz-adv-x="776" 
d="M127 -131v-2q-10 2 -61 5t-60 18q-8 14 -1 59t103 371t126 430q30 106 121 444t110 403q12 41 53 48q42 6 90 6t62 -6q27 -10 18 -39l-485 -1682q-10 -53 -68 -55h-8z" />
    <glyph glyph-name="zero" unicode="0" horiz-adv-x="1193" 
d="M569 575q-10 -1 -16 9t-28 42q-61 89 -52 148q1 29 35 85q34 55 41 67q6 8 16 12q19 0 27 -12t21 -38t29 -56t20 -87q-2 -39 -33 -88q-37 -82 -60 -82zM569 1434q-150 0 -209 -181q-92 -281 -55 -635q51 -545 268 -544q49 0 89 28q68 51 98 163q16 60 20 94t11 85l4 37
q46 561 -82 828q-27 59 -59 92t-85 33zM1059 1165q45 -151 49 -314t-12 -280q-37 -315 -207 -483q-80 -80 -193 -113q-180 -51 -355 49t-251 273q-131 305 -74 666q47 313 236 489q113 104 288 116t300 -79q154 -106 219 -324z" />
    <glyph glyph-name="one" unicode="1" horiz-adv-x="638" 
d="M47 1264q-27 0 -33 6t-10 28l-4 23q-2 29 5 40t34 19q86 31 119 101q25 51 82 55q106 6 138 3t52 -21q10 -12 10 -35l-6 -1274q0 -52 45 -66q68 -23 41 -102q-12 -39 -55 -37h-84q-106 8 -178 8l-80 -4q-33 -2 -46 11t-14 47v24q2 43 43 53q36 9 48 23t14 52t8 387t6 437
l-6 189q-2 23 -11 30t-50 5t-68 -2z" />
    <glyph glyph-name="two" unicode="2" horiz-adv-x="1110" 
d="M653 307q147 0 197 32t88 31q117 -3 20 -184q-30 -60 -50 -90t-27 -47q-29 -45 -74 -43q-282 7 -466 2q-183 -4 -249 -5t-84 19q-20 20 25 72q338 340 473 608q98 188 115 367q23 190 -27 279q-43 82 -151 87t-164 -67q-49 -49 8 -125q117 -158 16 -242q-39 -33 -95 -35
t-96 22q-40 23 -61 52q-20 37 -24 117t39 183t122 157q98 63 187 76q261 37 413 -73t181 -292q37 -231 -158 -495q-55 -74 -131 -156t-115 -116q-39 -35 -86 -75t-67 -59q8 -4 14 -4z" />
    <glyph glyph-name="three" unicode="3" horiz-adv-x="1046" 
d="M47 414q12 6 48 6t52 -33q7 -13 13 -33q56 -176 214 -211q93 -20 177 43q37 30 61 88t32 86q7 28 9 89q4 133 -39 202q-26 39 -94 77t-117 33t-62 25t-4 64q9 33 34 33q86 4 145 50t79 106q49 155 15 223q-14 40 -44 74t-104 43t-126 -11q-70 -23 -103 -98
q-15 -30 -28 -67q-14 -38 -21 -50q-10 -31 -32 -29t-49 4q-28 2 -42 5q-57 10 -57 69q6 109 6 215v49q-2 47 28 70t79 16q47 -12 44 -52q-1 -14 -1 -22t-2 -20t15 -19t28 7q49 53 90 84t102 45q109 27 233 -16t199 -129q105 -123 95 -278t-134 -263l-22 -22q-25 -23 -49 -50
q4 -2 6 -4l4 -2q107 -35 169 -110t76 -161q31 -184 -50 -331q-60 -113 -176 -177t-254 -69q-138 -4 -256 66t-193 196q-18 29 -31 66q-35 96 37 123z" />
    <glyph glyph-name="four" unicode="4" horiz-adv-x="1067" 
d="M942 528q0 -20 -5 -42q-5 -21 -13 -27t-35 -4h-86q-25 0 -29 -27q0 -16 -2 -36t0 -88t0 -92q-2 -26 2 -42t12 -20t30 -5q23 -2 41 -20q17 -18 20 -39q0 -79 -142 -88q-86 -2 -256 -2q-57 0 -84 22t-20 62q7 41 56 49q48 9 52 76v180q0 28 -9 37q-9 10 -40 14
q-121 0 -377 8q-74 4 -91 34q-18 30 10 98t97 212q69 145 88 195q19 49 56 123t50 108t45 103q32 70 54 126t46 79q25 36 128 31q22 -1 52 -3t70 -4q38 -2 74 -24q58 -37 -19 -115q-72 -78 -459 -612l-119 -170q0 -5 -5 -16t5 -25t27 -17q162 -4 285 6q32 4 35 54q1 18 0 58
t2 134q4 95 13 111q27 47 244 20q25 -6 27 -8q16 -12 16 -49q2 -129 -6 -254q0 -47 12 -53t19 -6l35 2q50 4 72 -15t22 -39z" />
    <glyph glyph-name="five" unicode="5" horiz-adv-x="1089" 
d="M20 283q0 57 15 145q8 47 55 69t88 -5q28 -24 32 -104q3 -80 66 -148q39 -43 70 -60q51 -35 119 -34t115 49q76 72 96 168t16 133q-12 98 -45 145q-47 74 -127 89t-205 3q-49 -4 -217 -61q-61 -23 -88 19q-10 17 -10 53t6 70q6 36 6 40q37 197 45 399q0 15 -2 59
q-7 162 37 198q22 20 42 20t222 -7t306 5q37 0 75 6q39 6 113 55q33 21 71 15t42 -37q5 -37 -7 -64t-38 -90t-40 -95q-12 -32 -26 -40t-37 -8q-461 6 -553 0q-59 -2 -65 -66q-3 -34 -7 -154t-16 -188v-35q25 6 48 19t167 69q137 59 259 57t194 -62t118 -164t48 -241
t-40 -243t-159 -205q-86 -72 -199 -84q-220 -23 -407 131q-7 8 -21 4t-18 -16q-10 -35 -45 -49q-99 -50 -104 76q-1 29 2 68t3 96z" />
    <glyph glyph-name="six" unicode="6" horiz-adv-x="1150" 
d="M410 166q71 -94 160 -92t149 91q105 158 74 386q-20 139 -113 223q-102 82 -202 34t-144 -164q-46 -116 -24 -248t100 -230zM553 -39q-149 0 -257 90t-165 193q-139 254 -131 566t172 552q45 66 143 125q119 76 257 84t256 -83t110 -228q-4 -68 -49 -119t-111 -43
q-100 11 -127 91q-18 56 11 103q4 4 15 20q32 48 11 66q-18 35 -60 50q-89 32 -165 -46q-164 -152 -164 -489q0 -38 15 -42q15 -5 26 5q72 80 188 111t235 1q118 -30 194 -123t96 -220q29 -168 -43 -330q-152 -334 -457 -334z" />
    <glyph glyph-name="seven" unicode="7" horiz-adv-x="1193" 
d="M984 1227h-40q-101 -12 -173 -112q-44 -61 -105 -177q-145 -285 -86 -526q46 -162 55 -208q8 -46 -1 -106q-19 -126 -156 -133q-137 -8 -187 114q-25 60 -29 107q-21 243 81 508t345 523l12 18l-4 8q-10 32 -174 1q-165 -31 -273 -81q-32 -14 -85 -39t-80 -34
q-28 -14 -56 6t-28 52t48 140t72 167q24 60 73 95q23 19 46 12q23 -6 43 -14t40 -14q22 -6 116 -10q356 0 537 6q67 4 101 -18t41 -57t-7 -99t-45 -101q-28 -28 -81 -28z" />
    <glyph glyph-name="eight" unicode="8" horiz-adv-x="1196" 
d="M795 281q63 182 -21 350q-25 53 -59 78q-63 47 -175 35t-161 -67q-75 -82 -86 -243q-4 -113 50 -202q55 -88 149 -114t181 20t122 143zM721 1331q-72 105 -191 77t-171 -132t-15 -227q35 -100 111 -148q77 -41 155 -13t117 103q31 53 35 109q10 144 -41 231zM953 736
q131 -101 157 -249q27 -147 -60 -281q-86 -134 -232 -199t-318 -49t-305 108q-94 68 -148 157q-78 145 -29 315t191 255q10 8 14 23t-53 77q-56 62 -61 72q-124 199 -13 374q52 81 152 145t252 86t293 -34t217 -200t18 -318q-25 -84 -80 -145t-39 -87t44 -50z" />
    <glyph glyph-name="nine" unicode="9" horiz-adv-x="1216" 
d="M530 764q141 0 215 65q42 42 46 99q8 133 -17 234q-41 164 -150 232q-42 26 -81 25q-104 0 -184 -115q-79 -116 -79 -219t43 -200q25 -55 77 -88t130 -33zM0 1053q0 98 28 178t86 160t171 131t269 51q156 -1 279 -107q232 -199 259 -577q6 -92 -7 -174
q-47 -326 -243 -508q-61 -53 -183 -137q-123 -84 -222 -104q-52 -11 -69 22q-18 32 6 68t80 80t58 46q176 169 256 398q8 18 29 91q20 73 13 71t-13 -7q-103 -125 -269 -147t-301 67q-100 66 -164 183q-63 117 -63 215z" />
    <glyph glyph-name="colon" unicode=":" horiz-adv-x="335" 
d="M246 182q27 -82 -19 -155q-18 -35 -57 -47t-76 2q-63 29 -86 88q-16 39 -2 86q14 48 58 78t81 22q87 -25 101 -74zM94 778q-63 29 -86 88q-16 39 -2 86t58 78t81 23q86 -25 101 -74q27 -82 -19 -156q-18 -35 -57 -47t-76 2z" />
    <glyph glyph-name="semicolon" unicode=";" horiz-adv-x="335" 
d="M106 778q-64 29 -84 78t-5 96t59 79t80 22q86 -25 102 -74q20 -90 -20 -156q-18 -35 -58 -47t-74 2zM27 186q9 18 47 49t90 22t88 -57q76 -99 -82 -325q-14 -18 -33 -33q-33 -20 -49 6q-18 20 10 52t37 67l-76 41q-47 25 -57 90q-6 31 25 88z" />
    <glyph glyph-name="less" unicode="&#x3c;" horiz-adv-x="638" 
d="M512 430q0 -199 -6 -217q-18 -12 -39 4q-67 53 -275 258t-230 237t-1 57q23 25 49 51t219 224q193 197 211 213q14 11 28 19q34 21 42 -35l4 -166q-4 -19 -24 -39t-144 -146q-123 -127 -125 -139q-2 -11 11 -27q49 -59 266 -267q14 -18 14 -27z" />
    <glyph glyph-name="equal" unicode="=" horiz-adv-x="663" 
d="M14 449q-16 0 -27 11t-11 22q0 10 1 64q2 54 0 58q-2 29 27 37q28 7 116 3q89 -3 109 -3h306q14 0 20 2q33 6 39 -37q2 -16 0 -57t1 -59t-2 -25q-5 -6 -24 -6l-92 2q-109 -2 -221 2t-170 -5q-56 -9 -72 -9zM569 737h-92q-126 -3 -187 1t-253 -11h-25q-35 0 -37 39
q0 6 2 59t0 58q-1 27 21 33t31 6l200 -2h326q18 2 30 -9t10 -69q-3 -58 0 -75t-2 -23t-24 -7z" />
    <glyph glyph-name="greater" unicode="&#x3e;" horiz-adv-x="638" 
d="M35 430q1 12 19 31t124 122q148 143 147 160t-124 146t-145 150t-23 36q0 190 16 201q18 8 39 -8q8 -2 20 -14t205 -208t222 -224t43 -46q31 -31 12 -57q-31 -41 -239 -246t-273 -256q-20 -16 -39 -4l-4 20v197z" />
    <glyph glyph-name="question" unicode="?" horiz-adv-x="886" 
d="M410 636q0 -14 5 -62t6 -78t-13 -62q-14 -31 -54 -38q-76 -14 -63 85q4 51 -8 189q-2 31 14 51t48 42t44 34q133 144 115 438q-13 206 -148 228q-55 9 -105 -17q-51 -26 -71 -83q-20 -59 6 -117t42 -100q15 -42 -4 -92t-72 -55q-117 -6 -164 91q-29 52 -20 158t83 193
t194 119q121 32 241 2q226 -56 307 -280q45 -119 17 -253t-136 -245t-246 -129q-18 -4 -18 -19zM412 243q14 -5 36 -25t26 -54q3 -34 4 -60t-23 -69q-23 -43 -63 -55t-75 2q-63 29 -83 78t-6 96q14 46 58 78t78 23t48 -14z" />
    <glyph glyph-name="at" unicode="@" horiz-adv-x="1376" 
d="M563 461q23 -75 93 -73q38 1 106 46q-33 58 -27 145q6 88 6 111q-89 -58 -121 -76t-50 -64t-7 -89zM879 540q0 -44 12 -63q31 -49 74 10q105 145 84 392q-27 221 -111 329t-227 119q-143 10 -248 -84q-156 -135 -191 -445t101 -522q95 -145 245 -180t289 74q49 39 64 45
q49 19 71 -3t16 -62q-7 -40 -34 -70q-92 -100 -271 -112t-335 61q-308 142 -401 486q-44 167 -10 348t155 339t302 224t377 7q196 -60 320 -216q61 -77 98 -189q77 -232 17 -426q-66 -231 -254 -274q-92 -20 -166 37q-4 4 -16 12h-4q-59 -39 -70 -47q-150 -96 -268 -33
q-53 29 -85 85t-30 118t40 116q38 53 95 76q20 8 80 22t92 39q31 24 43 72q31 127 -37 189q-41 41 -92 33q-48 -10 -19 -73t-5 -106q-33 -43 -89 -44q-56 -2 -85 54q-30 56 -6 115t100 101t158 42q82 1 150 -42q69 -43 91 -125q16 -93 13 -145t-18 -146t-15 -138z" />
    <glyph glyph-name="A" unicode="A" 
d="M467 645q176 -31 160 39q-70 317 -74 338q-4 14 -19 15t-20 -13q-55 -203 -86 -319q-4 -23 8 -41t31 -19zM696 2q-29 0 -40 23t0 49t45 31q57 7 54 40q-1 18 -33 176q-31 158 -56 177q-39 32 -91 26q-53 -6 -65 -6q-110 18 -148 -37q-26 -39 -99 -343q-3 -12 6 -25
q9 -12 26 -15h27q40 0 38 -46t-36 -50q-74 -6 -224 -2l-58 -4q-81 0 -52 74q14 36 40 32q56 -5 74 46q17 51 180 648t166 604q4 7 -4 16t-18 7t-33 -2q-18 -4 -22 15q-8 30 -4 58t28 28q164 14 402 2q14 0 25 -12t12 -27v-25q2 -20 -12 -32t-33 -13h-3q-14 2 -25 -10t-7 -29
q48 -201 158 -599q110 -399 134 -503t30 -118q5 -14 7 -21q10 -27 37 -26l35 2q21 0 29 -31q14 -55 -37 -72q-27 -8 -70 -8l-166 8q-215 -6 -217 -6z" />
    <glyph glyph-name="B" unicode="B" horiz-adv-x="1183" 
d="M389 335q0 -53 1 -69t0 -34t0 -30l3 -39t17 -36q66 -43 229 4q114 35 158 115q69 112 33 262t-152 211q-70 37 -234 26q-37 -4 -47 -40q-27 -109 -10 -289q2 -27 2 -81zM401 1380q-6 -246 11 -448q4 -50 43 -68t90 -12q104 12 169 114t62 223q-2 121 -67 191t-185 64
t-123 -64zM293 -16h-4q-23 2 -113 5t-110 5q-51 2 -54 53l-2 33q-2 18 3 23q14 14 83 14q29 6 29 37q-2 8 -2 26l-19 1202q-4 33 -36 33h-43q-35 -2 -41 76q0 53 67 53h37q45 2 242 8l238 11q154 -1 219 -25q251 -95 266 -346q6 -158 -115 -295q-63 -63 -45 -104
q8 -21 54 -49q117 -72 159 -193q4 -17 8 -27q43 -172 -76 -338t-295 -190q-39 -4 -113 -6t-103 -4q-30 -2 -234 -2z" />
    <glyph glyph-name="C" unicode="C" horiz-adv-x="1103" 
d="M958 1512v-63q0 -44 5 -79v-170l-7 -18q-10 -14 -49 -20q-94 -13 -108 34q-6 12 -15 45t-57 117q-49 84 -119 92t-108 -14q-39 -22 -74 -80q-121 -193 -111 -660q4 -170 39 -355t113 -263q130 -113 247 44q118 157 142 298q6 37 18 50t46 11q39 -1 43 -47t7 -197t3 -177
t-10 -40q-10 -12 -50 -12t-43 29l-2 20v25q-2 16 -13 21t-19 -2t-64 -57q-117 -103 -289 -93q-171 10 -329 192q-127 147 -167 361t-2 421t127 367t229 237t296 27q63 -20 119 -69l61 -68q8 -10 21 -5q12 5 10 18q-10 114 12 138t57 13q34 -11 37 -31q4 -20 4 -40z" />
    <glyph glyph-name="D" unicode="D" horiz-adv-x="1232" 
d="M426 1175q0 -24 -3 -79t-3 -717l-2 -129q-18 -113 20 -149q20 -19 49 -17q131 10 214 82q150 130 176 390q12 118 -5 323q-31 365 -225 534q-53 49 -129 47q-90 -8 -90 -45l2 -115l-4 -90v-35zM268 -31l-164 6q-63 0 -63 33q-2 6 -2 24t14 32q14 16 35 16q47 4 47 49v29
q4 136 3 170t-7 243v125q-4 236 -1 328t-1 232q-4 138 -4 160t-25 22h-55q-23 4 -34 13t-11 69q0 31 31 36q82 14 304 22t333 -26q215 -61 347 -289q132 -227 143 -483t-120 -483q-8 -12 -10 -16q-74 -111 -184 -189t-236 -102q-117 -27 -340 -21z" />
    <glyph glyph-name="E" unicode="E" horiz-adv-x="1040" 
d="M840 1532q25 0 34 -25q4 -10 12 -45t30 -81t23 -57t-9 -19q-28 -22 -71 0q-21 10 -45 30t-40 29q-72 41 -268 31q-40 0 -54 -6t-14 -39q0 -34 -7 -254t-5 -244t8 -33q20 -23 104 2t117 88q18 33 44 35q54 4 46 -39q-12 -94 -20 -153t8 -134q7 -30 -17 -40t-40 18t-26 56
t-34 34q-84 23 -153 16q-35 0 -35 -36q-8 -98 4 -492q4 -41 43 -41q186 6 211 7t68 32q117 73 129 74q49 0 35 -47q0 -9 -6 -19t-36 -77t-61 -87q-6 -4 -43 -10l-637 -4h-98q-31 4 -35 35l-2 24q-2 23 13 45t34 21h21q43 0 47 43l6 55q8 141 5 593q-4 530 -10 546
q-7 16 -29 16l-28 2q-35 2 -26 86q2 8 2 25q4 35 37 35h354l301 4h113z" />
    <glyph glyph-name="F" unicode="F" horiz-adv-x="911" 
d="M428 1370q-18 0 -32 -14t-15 -37q0 -426 -2 -578q0 -37 33 -65t96 -2q66 33 70 80q4 20 22 24q10 4 39 8q33 0 33 -78t8 -134t8 -76t-24 -22q-59 -7 -76 32q-27 61 -123 61h-2q-33 3 -57 -21t-25 -56q0 -138 -6 -306q0 -20 22 -37t53 -20q32 -2 35 -27q8 -30 -6 -66
t-47 -36h-285q-73 0 -97 4t-36 19q-24 27 -10 65t49 43h4q16 2 34 13q17 11 21 37t5 243v397l-4 105q0 142 4 212t0 189q-1 19 -15 35t-29 17t-32 3t-23 14t-6 56l-2 33q-2 31 27 31l239 4l103 6q246 8 311 8l49 -4q54 -4 61 -41t31 -89q24 -53 22 -73q-5 -36 -44 -27
q-12 4 -16 17t-56 42q-52 28 -172 19q-119 -8 -137 -8z" />
    <glyph glyph-name="G" unicode="G" horiz-adv-x="1153" 
d="M958 1512v-63q0 -44 5 -79v-170l-7 -18q-10 -14 -49 -20q-94 -13 -108 34q-6 12 -15 45t-49 105q-74 125 -184 102q-72 -12 -115 -78q-131 -186 -121 -674q4 -170 39 -355t113 -263q119 -119 248 45q39 43 73 115q45 127 21 352q-4 31 -22 37t-40 5t-27 -1t-28 -1
q-119 -5 -123 59q-2 31 13 47q15 17 65 15q51 -1 342 -8q35 0 44 -12t8 -232q-1 -219 -3 -235l2 -201v-38q0 -33 -32 -33l-142 -2q-14 0 -23 10t-9 23v34q0 13 -10 21t-23 2q-12 -6 -60 -47q-93 -76 -205 -79t-210 49t-172 140q-127 147 -167 361t-2 421t127 367t229 237
t296 27q63 -20 119 -69l61 -68q8 -10 21 -5q12 5 10 18q-10 114 12 138t57 13q34 -11 37 -31q4 -20 4 -40z" />
    <glyph glyph-name="H" unicode="H" horiz-adv-x="1280" 
d="M1153 115q27 0 34 -11q7 -12 4 -71q-2 -31 -32 -35q-14 -2 -27 -2l-55 2l-362 -2q-66 0 -64 55q0 55 15 64q16 8 84 8q47 4 47 49v248l-6 151q1 21 -15 35t-37 15q-170 4 -266 -5q-19 -2 -35 -17t-16 -38v-33l-4 -127v-241q2 -16 20 -30t39 -15h39q33 0 36 -44
q3 -43 -16 -57t-79 -14l-391 -4q-55 -4 -56 51v21q4 37 37 43l29 2q18 2 30 16t13 33q0 153 -4 379v301q0 180 -13 524q0 14 -22 27q-23 12 -41 14h-2q-33 4 -37 39v53q0 14 23 19l102 2q124 8 178 8h72q27 -2 137 -2q33 0 28 -28t-5 -60q0 -31 -31 -31q-29 2 -61 -16
t-31 -37l8 -406q0 -47 -4 -166q0 -23 20 -24q28 -4 52 -2t85 0t86 0t50 2h36q39 0 39 39l4 448q0 93 -1 119t-15 38t-28 12q-14 -1 -46 1q-31 4 -34 39v47q4 25 28 25l62 2q98 -4 301 -4h84q27 0 33 -6t10 -31l4 -43q0 -27 -25 -27l-69 -2q-27 0 -27 -29v-165q0 -39 4 -117
l6 -117q2 -49 2 -143l2 -232q0 -158 8 -460q1 -14 11 -24t19 -12q9 -1 36 -1z" />
    <glyph glyph-name="I" unicode="I" horiz-adv-x="559" 
d="M37 1407q-29 0 -35 37v41q0 29 27 35q72 10 219 10t184 -2t35 -37q0 -61 -6 -67t-29 -7q-52 0 -57 -45v-2l-6 -1223q0 -22 27 -22l28 -2q29 -4 39 -15t10 -52t-29 -51t-53 -8q-25 3 -37 3t-80 -2t-93 0t-55 0t-52 -4t-41 0q-33 4 -33 45q0 86 55 82q16 -2 32 13
q15 15 15 46l-10 1198q0 29 -33 29h-22z" />
    <glyph glyph-name="J" unicode="J" horiz-adv-x="864" 
d="M379 627v432q0 10 -5 113t-4 129q1 25 1 43v22q0 39 -54 39h-22q-31 6 -31 35v49q0 25 6 31q8 8 86 8h248q60 0 135 -6q27 -2 24 -33t-1 -43t-1 -20q-11 -25 -46 -25h-23q-29 -4 -28 -33v-29q4 -84 7 -267t5 -251q18 -311 -8 -516q-31 -238 -240 -317q-152 -60 -293 8
t-166 227q-12 82 36 154t128 39q51 -23 72 -76q25 -45 -8 -102q-14 -23 -95 -45q-12 -3 -19 -15t19 -26q42 -31 94 -35t97 24q57 41 71 133t15 353z" />
    <glyph glyph-name="K" unicode="K" horiz-adv-x="1247" 
d="M1075 1452q1 -29 -35 -27t-56 -6t-48 -50q-90 -140 -348 -527q-6 -10 0 -22t18 -13l73 -2q146 0 227 -137q33 -58 51 -152t22 -110q51 -221 231 -414l2 -2q23 -33 8 -41q-16 -8 -100 -5t-186 43q-102 41 -150 113t-74 184t-57 213t-82 152t-86 35q-16 -8 -32 -31
q-70 -106 -70 -277l4 -204q0 -37 11 -41q22 -8 42 -9t24 -5q4 -5 5 -19q2 -14 2 -32t2 -32t-5 -22t-28 -8l-92 2q-166 0 -221 -2l-84 -4q-43 0 -43 29v59q0 25 25 25q2 2 30 2q35 4 35 41v1101q0 130 -12 144t-34 14t-28 5q-6 6 -9 18t-3 20t-3 26t4 34q7 14 29 16t46 0
q23 -2 31 -2l225 8l96 -8q25 -2 29 -31t6 -55t-21 -29q-23 -4 -57 -4q-6 -23 -6 -78l8 -239v-226q-1 -18 17 -23t28 9q86 123 240 348q14 29 106 170q8 14 1 28t-29 13q-22 0 -44 5q-20 5 -20 33t-4 44q0 27 16 31q50 12 109 12l236 -2q25 0 28 -37v-49z" />
    <glyph glyph-name="L" unicode="L" horiz-adv-x="897" 
d="M566 4l-332 -4q-140 0 -176 -1t-42 21q0 25 -6 46q-10 57 37 59h8q39 4 39 43v151q-2 55 -14 1070q0 29 -29 28v2q-45 4 -49 49l-2 25q-4 33 29 33q183 6 249 3t95 -1h26q15 0 29 -14t14 -29q2 -51 -47 -60q-29 -4 -28 -32q0 -166 5 -677q5 -510 7 -538t16 -40t33 -11
q115 8 170 14t100 54q16 16 45 49q13 12 47 10t50 -14t6 -33q-33 -49 -64 -189q-4 -18 -24 -18q-58 4 -192 4z" />
    <glyph glyph-name="M" unicode="M" horiz-adv-x="1486" 
d="M1323 586q0 -51 4 -197t3 -212q-1 -67 1 -71q1 -4 33 -5t36 -6t1 -43q-4 -38 -12 -50h-179q-119 -4 -177 -4t-58 31v43q0 27 24 26l23 2q25 0 25 25q4 90 4 267l-4 657q-1 14 -15 18t-20 -10q-18 -43 -72 -163t-121 -286q-68 -166 -86 -199q-17 -34 -31 -60
q-42 -82 -86 -68q-8 4 -22 22q-8 18 -45 100l-37 99q-12 31 -37 93t-37 93l-61 166q-25 61 -74 188q-20 61 -33 91v2q-6 12 -19 10t-14 -26t-1 -394v-424l2 -160q0 -33 32 -32q20 2 52 2t34 -21l2 -63q0 -25 -26 -25q-117 0 -176 2h-131q-25 0 -25 25v43q0 16 6 22t23 10h39
q22 0 28 6t8 120q2 112 1 598t-7 579q-2 18 -26 18l-39 -2q-25 0 -29 27q0 26 -4 52t23 26l141 -2l47 -4q41 -2 129 0t129 2l23 -2q18 -4 18 -19l-2 -65q2 -8 -5 -14t-16 -7h-14q-10 0 -17 -9q-7 -10 0 -28t68 -186t86 -228t74 -204q8 -18 28 -18t25 18q53 150 137 336
q37 96 113 284q8 18 -14 27h-6l-4 2q-27 7 -27 29t-4 41t-1 25t21 10q122 8 260 9t156 -1t24 -8t2 -22q-3 -16 -3 -26l2 -34q-4 -25 -33 -25l-8 -2h-11q-25 -4 -24 -29l6 -368v-424z" />
    <glyph glyph-name="N" unicode="N" horiz-adv-x="1216" 
d="M1044 1389v-17q-6 -270 -6 -1010v-4q2 -8 2 -74t2 -126v-23q0 -23 23 -26l33 -3q30 0 22 -75q-2 -25 -26 -25h-136l-141 2q-6 2 -33 2q-31 4 -30 35q0 61 26 61h23q8 0 13 10t1 19l-512 713q-10 14 -26 9t-17 -21l4 -691q0 -27 27 -30q51 0 63 -4q18 0 19 -21v-59
q-2 -25 -27 -25h-214q-90 0 -105 4q-29 6 -29 34t2 36q6 33 59 33h31q25 2 30 10t7 33l4 170l-4 168v870l-2 31q0 23 -28 19t-44 -5q-37 0 -39 33q-8 52 3 65q11 12 28 13q119 4 330 8q31 0 35 -33v-68q0 -16 -25 -16h-35q-12 -2 -18 -12t0 -21l538 -751q8 -14 25 -10
q16 5 16 22q6 401 7 515t-9 167q-10 54 -10 57q-8 33 -41 29q-12 -2 -35 -2q-27 4 -30 31q-2 8 -3 38t5 36q6 7 16 8h6q58 4 139 4l86 8q45 0 66 -8q31 -6 27 -39q0 -43 2 -47q2 -25 -23 -25l-47 -2q-25 0 -25 -20z" />
    <glyph glyph-name="O" unicode="O" horiz-adv-x="1032" 
d="M713 456q0 19 2 25q39 438 -45 781q-29 106 -68 149q-66 73 -136 53t-122 -80q-53 -60 -76 -131q-92 -272 -57 -635q27 -260 65 -370t96 -164q123 -114 220 -24q68 67 106 290q14 87 15 106zM952 1165q45 -151 49 -314t-12 -280q-37 -315 -207 -483q-80 -80 -192 -113
q-178 -51 -333 47t-232 275q-131 305 -74 666q47 313 235 489q113 104 268 116t279 -79q154 -106 219 -324z" />
    <glyph glyph-name="P" unicode="P" horiz-adv-x="1056" 
d="M399 1073l2 -278q-1 -23 17 -39t41 -15q95 12 149 36t105 116t58 191t-38 188q-82 143 -297 125q-20 -3 -34 -17t-15 -34zM383 133q0 -12 9 -21t22 -10l24 2q24 0 33 -73q3 -25 -21 -28t-77 -3l-203 2l-102 -2h-21q-31 0 -31 35v37q0 25 25 24h37q12 0 21 9t7 22v47
l5 565q-1 482 -5 527q-4 44 -12 102q-4 29 -31 29l-28 2q-27 4 -31 33l-4 63q-2 18 18 23l275 10q102 2 188 6q211 10 361 -88q108 -67 157 -176q59 -150 17 -285t-163 -233q-120 -98 -263 -119q-70 -10 -164 -10q-41 -4 -43 -43t0 -56v-391z" />
    <glyph glyph-name="Q" unicode="Q" horiz-adv-x="1200" 
d="M682 380q0 32 12 190q12 159 13 387q0 119 -46 277t-139 216q-66 43 -133 -16q-29 -25 -55 -80q-68 -133 -92 -344q-24 -248 0 -430q8 -58 10 -92t6 -50q10 -37 47 -30q172 40 334 -52q33 -16 38 -12t5 36zM616 133q4 33 -98 98q-63 45 -127 52q-25 0 -42 -2
q-17 -3 -27 -19t-6 -30t12 -28q6 -14 9 -24t5 -12q31 -57 68 -80q45 -22 81 -18q37 4 79 22t46 41zM1880 -186q47 -27 -57 -68t-168 -53q-154 -31 -318 -2q-311 51 -567 286q-10 8 -29 27q-29 33 -65 8q-123 -70 -248 -50t-228 104q-208 167 -237 522q-23 264 8 444
q35 221 160 365q76 86 180 129q104 42 215 28t206 -86t153 -176q119 -217 90 -614q-10 -186 -92 -428q-18 -49 18 -82l14 -14q326 -297 592 -347q133 -25 305 15q39 8 68 -8z" />
    <glyph glyph-name="R" unicode="R" horiz-adv-x="1247" 
d="M389 1377q0 -26 4 -87l6 -264q0 -18 -4 -55q0 -77 -1 -105q-2 -28 12 -42t54 -13q40 0 68 2q96 9 163 65t93 150q9 27 11 45q12 129 -58 232q-35 55 -76 75t-83 28t-110 5q-68 -2 -74 -6t-5 -30zM399 543v-121q-2 -72 -2 -215v-68q-1 -12 9 -21t19 -10t36 -2q29 0 28 -30
v-45q0 -31 -34 -31h-103q-28 -2 -148 -2t-152 2t-38 8t-10 29q-10 66 21 74q12 4 30 3t33 1q6 8 6 47q-4 328 -2 392t1 132t2 118t3 85v342q-2 41 -10 151q0 23 -29 23h-26q-16 0 -25 18q0 17 -8 41q-6 47 25 54q10 4 43 3t78 2t116 3q217 18 382 3t257 -89t125 -193t8 -254
t-114 -205q-23 -23 2 -45q63 -49 76 -102q14 -53 12 -155t3 -148q5 -44 4 -106t5 -72q6 -23 30 -27t34 19q10 24 10 52q4 80 47 83q16 2 49 2q53 3 4 -161q-24 -77 -54 -98t-67 -32q-92 -28 -182 24t-121 144q-18 54 -22 146t-9 124q-4 32 -11 74q-7 41 -9 63q-8 61 -50 95
q-43 34 -99 36t-109 -6t-57 -13q-7 -9 -7 -142z" />
    <glyph glyph-name="S" unicode="S" horiz-adv-x="944" 
d="M121 442q16 0 20 -20l2 -68v-6q1 -120 95 -192t214 -64t195 96q35 43 45 114t-12 120q-51 111 -299 178q-105 29 -201 90t-141 174t-39 232t53 215q89 178 269 227t348 -68q8 -6 17 -2t8 12t-1 24t4 22t16 8t43 1q32 -1 36 -1q18 0 18 -18q4 -48 0 -100t-1 -90t2 -70
t-5 -36t-29 -8l-39 -6q-41 -4 -45 33q-10 92 -71 145q-119 102 -256 52q-79 -31 -137 -102t-46 -152t94 -127q62 -36 134 -59q73 -23 96 -31q160 -63 242 -146q85 -81 120 -198q35 -103 20 -243t-77 -228q-90 -127 -244 -167t-295 23q-62 26 -106 70q-8 6 -18 2t-15 -25
q-3 -21 -25 -21t-49 -1q-37 -4 -41 37q-4 18 -10 317l-2 33q4 25 27 24h86z" />
    <glyph glyph-name="T" unicode="T" horiz-adv-x="1136" 
d="M680 144q0 -24 14 -28q14 -3 34 0t32 -6q10 -9 10 -24l-2 -74q0 -16 -38 -17t-210 -1t-208 1t-38 17l-4 74q0 14 10 24t32 6q20 -3 29 -1t13 7q6 8 6 22v16q4 45 9 135v1083q0 33 -42 35t-85 -2q-48 -1 -78 -25t-36 -36t-8 -20q-3 -7 -5 -10q-13 -19 -101 -5
q-51 8 -45 28q2 8 23 48l37 86q4 14 0 28q-4 15 0 19t18 4h100l33 -2q94 -4 137 -4l164 6h80q1 0 105 -3t194 1l33 2h100q15 0 19 -4t0 -19v-28l37 -86q18 -40 22 -48q6 -20 -45 -28q-50 -8 -72 -6t-26 8q-4 7 -13 27t-28 34q-39 33 -88 33q-43 4 -85 2t-42 -35l-4 -241
q-7 -613 4 -842l8 -135v-16z" />
    <glyph glyph-name="U" unicode="U" horiz-adv-x="1198" 
d="M1128 1505v-71q0 -12 -18 -13q-66 0 -77 -2t-20 -13t-7 -40q2 -30 1 -80t5 -306q13 -544 -64 -755q-105 -298 -463 -259q-282 32 -353 275q-24 81 -29 135t-5 163t-5 203t-5 649q0 18 -16 18l-25 2q-23 0 -32 7t-11 28l-4 39q-2 25 3 29t28 10t115 -1t278 5h6q31 2 38 -6
t3 -39l-2 -47q0 -18 -18 -19q-12 -4 -34 -4q-21 0 -26 -18q-4 -63 1 -209t5 -174l6 -350l-4 -188q1 -158 17 -215q16 -56 38 -100q45 -89 154 -81q146 12 211 124t78 243q12 131 12 217v413q-4 143 -8 187t-3 58t0 30q-4 64 -30 63h-63q-23 2 -29 9t-6 28v51q0 17 20 21
t156 4q134 0 158 2t24 -23z" />
    <glyph glyph-name="V" unicode="V" horiz-adv-x="1366" 
d="M1251 1526q25 0 25 -23l2 -26q0 -41 -10 -57t-54 -19h-34q-20 0 -31 -19q-29 -55 -69 -190t-72 -223q-32 -87 -121 -397q-91 -310 -111 -376t-14 -71q6 -6 34 -8t31 -13q16 -33 7 -71q-4 -31 -37 -31l-383 -2q-8 0 -21 4q-25 12 -6 84q6 20 25 23h20q10 2 17 11q6 9 4 19
q-84 350 -183 647q-18 66 -81 277q-62 211 -87 317q-8 23 -28 23h-27q-35 2 -44 34t0 55q9 22 21 26t44 8h67l279 -2l45 2q33 -2 35 -31q4 -20 4 -53t-23 -35h-31q-29 -4 -24 -33l2 -4q0 -37 55 -247q55 -211 117 -415t86 -290q0 -24 15 -24t18 12q53 162 146 494t140 476
q8 23 -18 27h-37q-25 0 -34 7t-13 32v14q-6 46 3 55t44 13h307z" />
    <glyph glyph-name="W" unicode="W" horiz-adv-x="1871" 
d="M784 68q0 -66 -22 -66q-23 -4 -66 -4h-321q-31 0 -35 31q-2 12 -2 39q4 20 22 24q27 4 23 31l-12 43q0 66 -70 309q-132 530 -163 691t-58 220q-6 18 -30 22t-34 6q-16 4 -16 97q0 17 18 17h172q49 2 226 2l33 2q33 0 44 -1q27 -2 27 -40v-51q-2 -18 -6 -22t-15 -4
q-11 1 -21 1t-19 -9q-8 -8 -7 -22q11 -142 203 -876q12 -49 28 -49q15 0 19 14q16 53 117 477q8 34 -88 416q-8 35 -53 29q-14 -2 -21 0q-47 6 -43 51q0 14 4 46t33 32q238 0 281 2l188 6l73 4q78 0 83 -39q2 -14 0 -39t-2 -33q0 -20 -21 -20q-66 -4 -79 -37
q-6 -12 -93 -379q-6 -17 7 -67q12 -50 68 -208t87 -222q7 -16 25 -14t24 18q20 72 137 472t127 439h-92q-18 0 -27 6t-18 70q-2 33 29 39q16 4 66 2t72 -2q24 0 122 6h76q23 0 20 -25q-2 -10 -2 -32v-31q-2 -25 -28 -27l-86 -2q-23 0 -27 -18q-256 -936 -336 -1239
q-4 -14 4 -24t28 -11q20 0 34 -25q4 -12 9 -24t-6 -37t-38 -28t-96 -7q-213 0 -252 1q-71 2 -66 46q0 55 41 64q35 6 27 41q-72 330 -90 393q-4 16 -20 16t-26 -14q-30 -68 -80 -232t-56 -177t1 -22q5 -10 17 -10q28 -2 28 -36z" />
    <glyph glyph-name="X" unicode="X" horiz-adv-x="1327" 
d="M881 1401q-25 1 -25 27q0 14 -4 34q0 27 2 41q4 25 31 25l145 -6l39 2l141 2q25 0 29 -21q10 -39 4 -80q-6 -25 -34 -23t-95 1q-23 0 -37 -21q-43 -76 -140 -217t-133 -203t-36 -89q0 -28 27 -80l196 -369q50 -90 94 -180t66 -117q21 -27 56 -27q46 0 38 -61
q-2 -16 -2 -23q-2 -18 -31 -18q-332 -18 -440 -6q-27 0 -20 28q2 8 2 24v26q2 18 28 27t25 24q0 7 -14 35t-81 166t-107 208t-120 -110l-41 -82t-63 -136q-26 -63 -17 -73t54 -10q45 -1 51 -11t6 -81q-4 -25 -29 -29q-14 -4 -79 -4h-64q-165 -7 -262 -2q-34 0 -21 84
q4 26 17 30q25 12 41 12t73 5q57 4 75 24q17 21 28 43q178 360 204 413t30 83q8 49 -58 156t-150 278q-83 170 -133 232q-22 43 -69 43q-78 0 -78 43v51q0 14 10 24q10 11 26 11h100h186q154 6 196 5t41 -36q-2 -11 -2 -31t-2 -30q0 -25 -25 -25q-6 -2 -29 -2t-26 -21
q-4 -21 18 -61q21 -40 35 -66l17 -24q37 -70 119 -201q41 -53 61 -18t109 167q88 132 118 187q4 10 -1 20t-17 11l-19 2h-34z" />
    <glyph glyph-name="Y" unicode="Y" horiz-adv-x="1249" 
d="M23 1530q448 0 477 -1t28 -24q4 -57 5 -79t-19 -27l-45 -2q-12 -1 -19 -13t-1 -24q96 -219 188 -422q9 -18 27 -17t26 17q24 57 82 179t72 158t18 46t7 17q22 52 3 63q-7 5 -45 9q-39 5 -47 15t-8 68q-4 27 27 31l53 4l113 2l98 -2q92 0 98 -6t4 -21l-4 -61
q-2 -23 -26 -23l-91 -6q-29 0 -48 -41q-96 -207 -151 -321q-55 -113 -95 -213t-39 -218q0 -407 4 -473q2 -31 69 -34q31 0 35 -33q6 -36 6 -58t-11 -25q-26 -7 -79 -7q-14 -4 -79 -1q-66 3 -106 2t-214 5q-20 0 -22 28t-3 59q0 30 31 30h35q16 0 27 11q12 11 12 24t-1 249
q-1 235 -4 259q-9 67 -155 405q-23 53 -33 78t-27 63q-18 38 -23 60t-25 61q-19 39 -23 51q-12 31 -41 29l-39 2q-33 5 -36 30q-1 7 -5 31t-4 33q-4 31 23 33z" />
    <glyph glyph-name="Z" unicode="Z" horiz-adv-x="1167" 
d="M39 4q-35 0 -35 28q0 14 -2 45q-2 30 10 48q8 18 28 18t28 2q25 3 31 23t16 42t37 95q27 74 52 129q24 54 46 115l49 129q12 31 52 144t81 212q42 98 53 122q14 30 25 70q10 40 22 68q38 88 -4 92q-9 3 -53 3t-75 -1q-30 0 -90 -2q-149 -4 -173 -79q-6 -25 -41 -24t-84 7
q-23 4 -6 29q49 98 57 137q10 53 62 53q197 6 414 7h460q27 0 52 -7q33 -5 31 -35t-13 -65q-4 -25 -33 -29l-59 -2q-31 0 -51 -36q-58 -101 -131 -282l-123 -306q-12 -35 -110 -278q-98 -244 -110 -278q-22 -57 21 -59q51 -2 105 -2t143 -1q90 -1 94 1q109 6 160 90
q7 13 35 11t71 -2h17q37 -8 8 -42q-30 -34 -60 -65t-42 -69t-33 -44q-69 -18 -93 -16t-70 6t-290 5q-242 1 -320 -3t-130 -4h-29z" />
    <glyph glyph-name="bracketleft" unicode="[" horiz-adv-x="479" 
d="M20 1608q0 38 58 51q16 2 110 8q199 12 204 -29q5 -40 3 -62t-15 -33q-12 -11 -26 -12t-44 2t-40 3q-43 -4 -43 -41q-12 -578 -12 -1444q0 -60 98 -46q101 14 101 -58q0 -41 -10 -53t-50 -17q-143 -14 -184 -12q-147 4 -147 80l-7 913q0 309 2 463l2 238v49z" />
    <glyph glyph-name="backslash" unicode="\" horiz-adv-x="784" 
d="M565 -131h-8q-57 2 -70 55l-483 1682q-6 18 -3 25t19 13t33 7l78 -4q29 0 43 -2q41 -6 53 -48q47 -172 149 -550t200 -703q99 -325 109 -383q9 -57 2 -67t-27 -16t-52 -7q-33 -2 -43 -4v2z" />
    <glyph glyph-name="bracketright" unicode="]" horiz-adv-x="497" 
d="M379 1598v-39l2 -238q2 -154 2 -463l-6 -913q0 -76 -148 -80q-41 -2 -133 7q-92 10 -102 22t-9 53q2 71 101 58t98 46q0 866 -12 1444q0 37 -43 41q-12 0 -51 -4t-56 9q-16 13 -18 35t3 62q5 41 204 29q117 -7 137 -16q31 -14 31 -53z" />
    <glyph glyph-name="asciicircum" unicode="^" horiz-adv-x="751" 
d="M559 946h-39q-23 4 -33 23l-159 315q-4 12 -18 12t-17 -12q-124 -303 -131 -322q-6 -18 -14 -22t-31 -2h-78q-23 0 -33 2q-33 8 -20 43q213 520 221 533q13 12 81 12h79q25 2 33 -4t16 -24q6 -18 235 -499q12 -35 9 -40q-7 -15 -101 -15z" />
    <glyph glyph-name="underscore" unicode="_" horiz-adv-x="1144" 
d="M1010 188q14 0 20 2q35 6 37 -36q2 -16 1 -58t1 -60t-3 -24t-22 -6h-94q-102 -2 -381 3t-508 -13h-24q-14 0 -26 11q-11 11 -11 23t2 59q2 46 0 52q-3 39 51 39q45 4 129 2t120 0t88 2h79l233 4h308z" />
    <glyph glyph-name="grave" unicode="`" horiz-adv-x="368" 
d="M261 1326q34 -118 39 -154t-19 -48q-43 -14 -71 -26t-50 18t-81 138q-57 108 -75 130q-59 73 6 105q14 7 39 17q26 11 33 14l61 24q47 16 68 -24q6 -18 11 -47t39 -147z" />
    <glyph glyph-name="a" unicode="a" 
d="M467 645q176 -31 160 39q-70 317 -74 338q-4 14 -19 15t-20 -13q-55 -203 -86 -319q-4 -23 8 -41t31 -19zM696 2q-29 0 -40 23t0 49t45 31q57 7 54 40q-1 18 -33 176q-31 158 -56 177q-39 32 -91 26q-53 -6 -65 -6q-110 18 -148 -37q-26 -39 -99 -343q-3 -12 6 -25
q9 -12 26 -15h27q40 0 38 -46t-36 -50q-74 -6 -224 -2l-58 -4q-81 0 -52 74q14 36 40 32q56 -5 74 46q17 51 180 648t166 604q4 7 -4 16t-18 7t-33 -2q-18 -4 -22 15q-8 30 -4 58t28 28q164 14 402 2q14 0 25 -12t12 -27v-25q2 -20 -12 -32t-33 -13h-3q-14 2 -25 -10t-7 -29
q48 -201 158 -599q110 -399 134 -503t30 -118q5 -14 7 -21q10 -27 37 -26l35 2q21 0 29 -31q14 -55 -37 -72q-27 -8 -70 -8l-166 8q-215 -6 -217 -6z" />
    <glyph glyph-name="b" unicode="b" horiz-adv-x="1183" 
d="M389 335q0 -53 1 -69t0 -34t0 -30l3 -39t17 -36q66 -43 229 4q114 35 158 115q69 112 33 262t-152 211q-70 37 -234 26q-37 -4 -47 -40q-27 -109 -10 -289q2 -27 2 -81zM401 1380q-6 -246 11 -448q4 -50 43 -68t90 -12q104 12 169 114t62 223q-2 121 -67 191t-185 64
t-123 -64zM293 -16h-4q-23 2 -113 5t-110 5q-51 2 -54 53l-2 33q-2 18 3 23q14 14 83 14q29 6 29 37q-2 8 -2 26l-19 1202q-4 33 -36 33h-43q-35 -2 -41 76q0 53 67 53h37q45 2 242 8l238 11q154 -1 219 -25q251 -95 266 -346q6 -158 -115 -295q-63 -63 -45 -104
q8 -21 54 -49q117 -72 159 -193q4 -17 8 -27q43 -172 -76 -338t-295 -190q-39 -4 -113 -6t-103 -4q-30 -2 -234 -2z" />
    <glyph glyph-name="c" unicode="c" horiz-adv-x="1103" 
d="M958 1512v-63q0 -44 5 -79v-170l-7 -18q-10 -14 -49 -20q-94 -13 -108 34q-6 12 -15 45t-57 117q-49 84 -119 92t-108 -14q-39 -22 -74 -80q-121 -193 -111 -660q4 -170 39 -355t113 -263q130 -113 247 44q118 157 142 298q6 37 18 50t46 11q39 -1 43 -47t7 -197t3 -177
t-10 -40q-10 -12 -50 -12t-43 29l-2 20v25q-2 16 -13 21t-19 -2t-64 -57q-117 -103 -289 -93q-171 10 -329 192q-127 147 -167 361t-2 421t127 367t229 237t296 27q63 -20 119 -69l61 -68q8 -10 21 -5q12 5 10 18q-10 114 12 138t57 13q34 -11 37 -31q4 -20 4 -40z" />
    <glyph glyph-name="d" unicode="d" horiz-adv-x="1232" 
d="M426 1175q0 -24 -3 -79t-3 -717l-2 -129q-18 -113 20 -149q20 -19 49 -17q131 10 214 82q150 130 176 390q12 118 -5 323q-31 365 -225 534q-53 49 -129 47q-90 -8 -90 -45l2 -115l-4 -90v-35zM268 -31l-164 6q-63 0 -63 33q-2 6 -2 24t14 32q14 16 35 16q47 4 47 49v29
q4 136 3 170t-7 243v125q-4 236 -1 328t-1 232q-4 138 -4 160t-25 22h-55q-23 4 -34 13t-11 69q0 31 31 36q82 14 304 22t333 -26q215 -61 347 -289q132 -227 143 -483t-120 -483q-8 -12 -10 -16q-74 -111 -184 -189t-236 -102q-117 -27 -340 -21z" />
    <glyph glyph-name="e" unicode="e" horiz-adv-x="1040" 
d="M840 1532q25 0 34 -25q4 -10 12 -45t30 -81t23 -57t-9 -19q-28 -22 -71 0q-21 10 -45 30t-40 29q-72 41 -268 31q-40 0 -54 -6t-14 -39q0 -34 -7 -254t-5 -244t8 -33q20 -23 104 2t117 88q18 33 44 35q54 4 46 -39q-12 -94 -20 -153t8 -134q7 -30 -17 -40t-40 18t-26 56
t-34 34q-84 23 -153 16q-35 0 -35 -36q-8 -98 4 -492q4 -41 43 -41q186 6 211 7t68 32q117 73 129 74q49 0 35 -47q0 -9 -6 -19t-36 -77t-61 -87q-6 -4 -43 -10l-637 -4h-98q-31 4 -35 35l-2 24q-2 23 13 45t34 21h21q43 0 47 43l6 55q8 141 5 593q-4 530 -10 546
q-7 16 -29 16l-28 2q-35 2 -26 86q2 8 2 25q4 35 37 35h354l301 4h113z" />
    <glyph glyph-name="f" unicode="f" horiz-adv-x="911" 
d="M428 1370q-18 0 -32 -14t-15 -37q0 -426 -2 -578q0 -37 33 -65t96 -2q66 33 70 80q4 20 22 24q10 4 39 8q33 0 33 -78t8 -134t8 -76t-24 -22q-59 -7 -76 32q-27 61 -123 61h-2q-33 3 -57 -21t-25 -56q0 -138 -6 -306q0 -20 22 -37t53 -20q32 -2 35 -27q8 -30 -6 -66
t-47 -36h-285q-73 0 -97 4t-36 19q-24 27 -10 65t49 43h4q16 2 34 13q17 11 21 37t5 243v397l-4 105q0 142 4 212t0 189q-1 19 -15 35t-29 17t-32 3t-23 14t-6 56l-2 33q-2 31 27 31l239 4l103 6q246 8 311 8l49 -4q54 -4 61 -41t31 -89q24 -53 22 -73q-5 -36 -44 -27
q-12 4 -16 17t-56 42q-52 28 -172 19q-119 -8 -137 -8z" />
    <glyph glyph-name="g" unicode="g" horiz-adv-x="1153" 
d="M958 1512v-63q0 -44 5 -79v-170l-7 -18q-10 -14 -49 -20q-94 -13 -108 34q-6 12 -15 45t-49 105q-74 125 -184 102q-72 -12 -115 -78q-131 -186 -121 -674q4 -170 39 -355t113 -263q119 -119 248 45q39 43 73 115q45 127 21 352q-4 31 -22 37t-40 5t-27 -1t-28 -1
q-119 -5 -123 59q-2 31 13 47q15 17 65 15q51 -1 342 -8q35 0 44 -12t8 -232q-1 -219 -3 -235l2 -201v-38q0 -33 -32 -33l-142 -2q-14 0 -23 10t-9 23v34q0 13 -10 21t-23 2q-12 -6 -60 -47q-93 -76 -205 -79t-210 49t-172 140q-127 147 -167 361t-2 421t127 367t229 237
t296 27q63 -20 119 -69l61 -68q8 -10 21 -5q12 5 10 18q-10 114 12 138t57 13q34 -11 37 -31q4 -20 4 -40z" />
    <glyph glyph-name="h" unicode="h" horiz-adv-x="1280" 
d="M1153 115q27 0 34 -11q7 -12 4 -71q-2 -31 -32 -35q-14 -2 -27 -2l-55 2l-362 -2q-66 0 -64 55q0 55 15 64q16 8 84 8q47 4 47 49v248l-6 151q1 21 -15 35t-37 15q-170 4 -266 -5q-19 -2 -35 -17t-16 -38v-33l-4 -127v-241q2 -16 20 -30t39 -15h39q33 0 36 -44
q3 -43 -16 -57t-79 -14l-391 -4q-55 -4 -56 51v21q4 37 37 43l29 2q18 2 30 16t13 33q0 153 -4 379v301q0 180 -13 524q0 14 -22 27q-23 12 -41 14h-2q-33 4 -37 39v53q0 14 23 19l102 2q124 8 178 8h72q27 -2 137 -2q33 0 28 -28t-5 -60q0 -31 -31 -31q-29 2 -61 -16
t-31 -37l8 -406q0 -47 -4 -166q0 -23 20 -24q28 -4 52 -2t85 0t86 0t50 2h36q39 0 39 39l4 448q0 93 -1 119t-15 38t-28 12q-14 -1 -46 1q-31 4 -34 39v47q4 25 28 25l62 2q98 -4 301 -4h84q27 0 33 -6t10 -31l4 -43q0 -27 -25 -27l-69 -2q-27 0 -27 -29v-165q0 -39 4 -117
l6 -117q2 -49 2 -143l2 -232q0 -158 8 -460q1 -14 11 -24t19 -12q9 -1 36 -1z" />
    <glyph glyph-name="i" unicode="i" horiz-adv-x="559" 
d="M37 1407q-29 0 -35 37v41q0 29 27 35q72 10 219 10t184 -2t35 -37q0 -61 -6 -67t-29 -7q-52 0 -57 -45v-2l-6 -1223q0 -22 27 -22l28 -2q29 -4 39 -15t10 -52t-29 -51t-53 -8q-25 3 -37 3t-80 -2t-93 0t-55 0t-52 -4t-41 0q-33 4 -33 45q0 86 55 82q16 -2 32 13
q15 15 15 46l-10 1198q0 29 -33 29h-22z" />
    <glyph glyph-name="j" unicode="j" horiz-adv-x="864" 
d="M379 627v432q0 10 -5 113t-4 129q1 25 1 43v22q0 39 -54 39h-22q-31 6 -31 35v49q0 25 6 31q8 8 86 8h248q60 0 135 -6q27 -2 24 -33t-1 -43t-1 -20q-11 -25 -46 -25h-23q-29 -4 -28 -33v-29q4 -84 7 -267t5 -251q18 -311 -8 -516q-31 -238 -240 -317q-152 -60 -293 8
t-166 227q-12 82 36 154t128 39q51 -23 72 -76q25 -45 -8 -102q-14 -23 -95 -45q-12 -3 -19 -15t19 -26q42 -31 94 -35t97 24q57 41 71 133t15 353z" />
    <glyph glyph-name="k" unicode="k" horiz-adv-x="1247" 
d="M1075 1452q1 -29 -35 -27t-56 -6t-48 -50q-90 -140 -348 -527q-6 -10 0 -22t18 -13l73 -2q146 0 227 -137q33 -58 51 -152t22 -110q51 -221 231 -414l2 -2q23 -33 8 -41q-16 -8 -100 -5t-186 43q-102 41 -150 113t-74 184t-57 213t-82 152t-86 35q-16 -8 -32 -31
q-70 -106 -70 -277l4 -204q0 -37 11 -41q22 -8 42 -9t24 -5q4 -5 5 -19q2 -14 2 -32t2 -32t-5 -22t-28 -8l-92 2q-166 0 -221 -2l-84 -4q-43 0 -43 29v59q0 25 25 25q2 2 30 2q35 4 35 41v1101q0 130 -12 144t-34 14t-28 5q-6 6 -9 18t-3 20t-3 26t4 34q7 14 29 16t46 0
q23 -2 31 -2l225 8l96 -8q25 -2 29 -31t6 -55t-21 -29q-23 -4 -57 -4q-6 -23 -6 -78l8 -239v-226q-1 -18 17 -23t28 9q86 123 240 348q14 29 106 170q8 14 1 28t-29 13q-22 0 -44 5q-20 5 -20 33t-4 44q0 27 16 31q50 12 109 12l236 -2q25 0 28 -37v-49z" />
    <glyph glyph-name="l" unicode="l" horiz-adv-x="897" 
d="M566 4l-332 -4q-140 0 -176 -1t-42 21q0 25 -6 46q-10 57 37 59h8q39 4 39 43v151q-2 55 -14 1070q0 29 -29 28v2q-45 4 -49 49l-2 25q-4 33 29 33q183 6 249 3t95 -1h26q15 0 29 -14t14 -29q2 -51 -47 -60q-29 -4 -28 -32q0 -166 5 -677q5 -510 7 -538t16 -40t33 -11
q115 8 170 14t100 54q16 16 45 49q13 12 47 10t50 -14t6 -33q-33 -49 -64 -189q-4 -18 -24 -18q-58 4 -192 4z" />
    <glyph glyph-name="m" unicode="m" horiz-adv-x="1486" 
d="M1323 586q0 -51 4 -197t3 -212q-1 -67 1 -71q1 -4 33 -5t36 -6t1 -43q-4 -38 -12 -50h-179q-119 -4 -177 -4t-58 31v43q0 27 24 26l23 2q25 0 25 25q4 90 4 267l-4 657q-1 14 -15 18t-20 -10q-18 -43 -72 -163t-121 -286q-68 -166 -86 -199q-17 -34 -31 -60
q-42 -82 -86 -68q-8 4 -22 22q-8 18 -45 100l-37 99q-12 31 -37 93t-37 93l-61 166q-25 61 -74 188q-20 61 -33 91v2q-6 12 -19 10t-14 -26t-1 -394v-424l2 -160q0 -33 32 -32q20 2 52 2t34 -21l2 -63q0 -25 -26 -25q-117 0 -176 2h-131q-25 0 -25 25v43q0 16 6 22t23 10h39
q22 0 28 6t8 120q2 112 1 598t-7 579q-2 18 -26 18l-39 -2q-25 0 -29 27q0 26 -4 52t23 26l141 -2l47 -4q41 -2 129 0t129 2l23 -2q18 -4 18 -19l-2 -65q2 -8 -5 -14t-16 -7h-14q-10 0 -17 -9q-7 -10 0 -28t68 -186t86 -228t74 -204q8 -18 28 -18t25 18q53 150 137 336
q37 96 113 284q8 18 -14 27h-6l-4 2q-27 7 -27 29t-4 41t-1 25t21 10q122 8 260 9t156 -1t24 -8t2 -22q-3 -16 -3 -26l2 -34q-4 -25 -33 -25l-8 -2h-11q-25 -4 -24 -29l6 -368v-424z" />
    <glyph glyph-name="n" unicode="n" horiz-adv-x="1216" 
d="M1044 1389v-17q-6 -270 -6 -1010v-4q2 -8 2 -74t2 -126v-23q0 -23 23 -26l33 -3q30 0 22 -75q-2 -25 -26 -25h-136l-141 2q-6 2 -33 2q-31 4 -30 35q0 61 26 61h23q8 0 13 10t1 19l-512 713q-10 14 -26 9t-17 -21l4 -691q0 -27 27 -30q51 0 63 -4q18 0 19 -21v-59
q-2 -25 -27 -25h-214q-90 0 -105 4q-29 6 -29 34t2 36q6 33 59 33h31q25 2 30 10t7 33l4 170l-4 168v870l-2 31q0 23 -28 19t-44 -5q-37 0 -39 33q-8 52 3 65q11 12 28 13q119 4 330 8q31 0 35 -33v-68q0 -16 -25 -16h-35q-12 -2 -18 -12t0 -21l538 -751q8 -14 25 -10
q16 5 16 22q6 401 7 515t-9 167q-10 54 -10 57q-8 33 -41 29q-12 -2 -35 -2q-27 4 -30 31q-2 8 -3 38t5 36q6 7 16 8h6q58 4 139 4l86 8q45 0 66 -8q31 -6 27 -39q0 -43 2 -47q2 -25 -23 -25l-47 -2q-25 0 -25 -20z" />
    <glyph glyph-name="o" unicode="o" horiz-adv-x="1032" 
d="M713 456q0 19 2 25q39 438 -45 781q-29 106 -68 149q-66 73 -136 53t-122 -80q-53 -60 -76 -131q-92 -272 -57 -635q27 -260 65 -370t96 -164q123 -114 220 -24q68 67 106 290q14 87 15 106zM952 1165q45 -151 49 -314t-12 -280q-37 -315 -207 -483q-80 -80 -192 -113
q-178 -51 -333 47t-232 275q-131 305 -74 666q47 313 235 489q113 104 268 116t279 -79q154 -106 219 -324z" />
    <glyph glyph-name="p" unicode="p" horiz-adv-x="1056" 
d="M399 1073l2 -278q-1 -23 17 -39t41 -15q95 12 149 36t105 116t58 191t-38 188q-82 143 -297 125q-20 -3 -34 -17t-15 -34zM383 133q0 -12 9 -21t22 -10l24 2q24 0 33 -73q3 -25 -21 -28t-77 -3l-203 2l-102 -2h-21q-31 0 -31 35v37q0 25 25 24h37q12 0 21 9t7 22v47
l5 565q-1 482 -5 527q-4 44 -12 102q-4 29 -31 29l-28 2q-27 4 -31 33l-4 63q-2 18 18 23l275 10q102 2 188 6q211 10 361 -88q108 -67 157 -176q59 -150 17 -285t-163 -233q-120 -98 -263 -119q-70 -10 -164 -10q-41 -4 -43 -43t0 -56v-391z" />
    <glyph glyph-name="q" unicode="q" horiz-adv-x="1200" 
d="M682 380q0 32 12 190q12 159 13 387q0 119 -46 277t-139 216q-66 43 -133 -16q-29 -25 -55 -80q-68 -133 -92 -344q-24 -248 0 -430q8 -58 10 -92t6 -50q10 -37 47 -30q172 40 334 -52q33 -16 38 -12t5 36zM616 133q4 33 -98 98q-63 45 -127 52q-25 0 -42 -2
q-17 -3 -27 -19t-6 -30t12 -28q6 -14 9 -24t5 -12q31 -57 68 -80q45 -22 81 -18q37 4 79 22t46 41zM1880 -186q47 -27 -57 -68t-168 -53q-154 -31 -318 -2q-311 51 -567 286q-10 8 -29 27q-29 33 -65 8q-123 -70 -248 -50t-228 104q-208 167 -237 522q-23 264 8 444
q35 221 160 365q76 86 180 129q104 42 215 28t206 -86t153 -176q119 -217 90 -614q-10 -186 -92 -428q-18 -49 18 -82l14 -14q326 -297 592 -347q133 -25 305 15q39 8 68 -8z" />
    <glyph glyph-name="r" unicode="r" horiz-adv-x="1247" 
d="M389 1377q0 -26 4 -87l6 -264q0 -18 -4 -55q0 -77 -1 -105q-2 -28 12 -42t54 -13q40 0 68 2q96 9 163 65t93 150q9 27 11 45q12 129 -58 232q-35 55 -76 75t-83 28t-110 5q-68 -2 -74 -6t-5 -30zM399 543v-121q-2 -72 -2 -215v-68q-1 -12 9 -21t19 -10t36 -2q29 0 28 -30
v-45q0 -31 -34 -31h-103q-28 -2 -148 -2t-152 2t-38 8t-10 29q-10 66 21 74q12 4 30 3t33 1q6 8 6 47q-4 328 -2 392t1 132t2 118t3 85v342q-2 41 -10 151q0 23 -29 23h-26q-16 0 -25 18q0 17 -8 41q-6 47 25 54q10 4 43 3t78 2t116 3q217 18 382 3t257 -89t125 -193t8 -254
t-114 -205q-23 -23 2 -45q63 -49 76 -102q14 -53 12 -155t3 -148q5 -44 4 -106t5 -72q6 -23 30 -27t34 19q10 24 10 52q4 80 47 83q16 2 49 2q53 3 4 -161q-24 -77 -54 -98t-67 -32q-92 -28 -182 24t-121 144q-18 54 -22 146t-9 124q-4 32 -11 74q-7 41 -9 63q-8 61 -50 95
q-43 34 -99 36t-109 -6t-57 -13q-7 -9 -7 -142z" />
    <glyph glyph-name="s" unicode="s" horiz-adv-x="944" 
d="M121 442q16 0 20 -20l2 -68v-6q1 -120 95 -192t214 -64t195 96q35 43 45 114t-12 120q-51 111 -299 178q-105 29 -201 90t-141 174t-39 232t53 215q89 178 269 227t348 -68q8 -6 17 -2t8 12t-1 24t4 22t16 8t43 1q32 -1 36 -1q18 0 18 -18q4 -48 0 -100t-1 -90t2 -70
t-5 -36t-29 -8l-39 -6q-41 -4 -45 33q-10 92 -71 145q-119 102 -256 52q-79 -31 -137 -102t-46 -152t94 -127q62 -36 134 -59q73 -23 96 -31q160 -63 242 -146q85 -81 120 -198q35 -103 20 -243t-77 -228q-90 -127 -244 -167t-295 23q-62 26 -106 70q-8 6 -18 2t-15 -25
q-3 -21 -25 -21t-49 -1q-37 -4 -41 37q-4 18 -10 317l-2 33q4 25 27 24h86z" />
    <glyph glyph-name="t" unicode="t" horiz-adv-x="1136" 
d="M680 144q0 -24 14 -28q14 -3 34 0t32 -6q10 -9 10 -24l-2 -74q0 -16 -38 -17t-210 -1t-208 1t-38 17l-4 74q0 14 10 24t32 6q20 -3 29 -1t13 7q6 8 6 22v16q4 45 9 135v1083q0 33 -42 35t-85 -2q-48 -1 -78 -25t-36 -36t-8 -20q-3 -7 -5 -10q-13 -19 -101 -5
q-51 8 -45 28q2 8 23 48l37 86q4 14 0 28q-4 15 0 19t18 4h100l33 -2q94 -4 137 -4l164 6h80q1 0 105 -3t194 1l33 2h100q15 0 19 -4t0 -19v-28l37 -86q18 -40 22 -48q6 -20 -45 -28q-50 -8 -72 -6t-26 8q-4 7 -13 27t-28 34q-39 33 -88 33q-43 4 -85 2t-42 -35l-4 -241
q-7 -613 4 -842l8 -135v-16z" />
    <glyph glyph-name="u" unicode="u" horiz-adv-x="1198" 
d="M1128 1505v-71q0 -12 -18 -13q-66 0 -77 -2t-20 -13t-7 -40q2 -30 1 -80t5 -306q13 -544 -64 -755q-105 -298 -463 -259q-282 32 -353 275q-24 81 -29 135t-5 163t-5 203t-5 649q0 18 -16 18l-25 2q-23 0 -32 7t-11 28l-4 39q-2 25 3 29t28 10t115 -1t278 5h6q31 2 38 -6
t3 -39l-2 -47q0 -18 -18 -19q-12 -4 -34 -4q-21 0 -26 -18q-4 -63 1 -209t5 -174l6 -350l-4 -188q1 -158 17 -215q16 -56 38 -100q45 -89 154 -81q146 12 211 124t78 243q12 131 12 217v413q-4 143 -8 187t-3 58t0 30q-4 64 -30 63h-63q-23 2 -29 9t-6 28v51q0 17 20 21
t156 4q134 0 158 2t24 -23z" />
    <glyph glyph-name="v" unicode="v" horiz-adv-x="1366" 
d="M1251 1526q25 0 25 -23l2 -26q0 -41 -10 -57t-54 -19h-34q-20 0 -31 -19q-29 -55 -69 -190t-72 -223q-32 -87 -121 -397q-91 -310 -111 -376t-14 -71q6 -6 34 -8t31 -13q16 -33 7 -71q-4 -31 -37 -31l-383 -2q-8 0 -21 4q-25 12 -6 84q6 20 25 23h20q10 2 17 11q6 9 4 19
q-84 350 -183 647q-18 66 -81 277q-62 211 -87 317q-8 23 -28 23h-27q-35 2 -44 34t0 55q9 22 21 26t44 8h67l279 -2l45 2q33 -2 35 -31q4 -20 4 -53t-23 -35h-31q-29 -4 -24 -33l2 -4q0 -37 55 -247q55 -211 117 -415t86 -290q0 -24 15 -24t18 12q53 162 146 494t140 476
q8 23 -18 27h-37q-25 0 -34 7t-13 32v14q-6 46 3 55t44 13h307z" />
    <glyph glyph-name="w" unicode="w" horiz-adv-x="1871" 
d="M784 68q0 -66 -22 -66q-23 -4 -66 -4h-321q-31 0 -35 31q-2 12 -2 39q4 20 22 24q27 4 23 31l-12 43q0 66 -70 309q-132 530 -163 691t-58 220q-6 18 -30 22t-34 6q-16 4 -16 97q0 17 18 17h172q49 2 226 2l33 2q33 0 44 -1q27 -2 27 -40v-51q-2 -18 -6 -22t-15 -4
q-11 1 -21 1t-19 -9q-8 -8 -7 -22q11 -142 203 -876q12 -49 28 -49q15 0 19 14q16 53 117 477q8 34 -88 416q-8 35 -53 29q-14 -2 -21 0q-47 6 -43 51q0 14 4 46t33 32q238 0 281 2l188 6l73 4q78 0 83 -39q2 -14 0 -39t-2 -33q0 -20 -21 -20q-66 -4 -79 -37
q-6 -12 -93 -379q-6 -17 7 -67q12 -50 68 -208t87 -222q7 -16 25 -14t24 18q20 72 137 472t127 439h-92q-18 0 -27 6t-18 70q-2 33 29 39q16 4 66 2t72 -2q24 0 122 6h76q23 0 20 -25q-2 -10 -2 -32v-31q-2 -25 -28 -27l-86 -2q-23 0 -27 -18q-256 -936 -336 -1239
q-4 -14 4 -24t28 -11q20 0 34 -25q4 -12 9 -24t-6 -37t-38 -28t-96 -7q-213 0 -252 1q-71 2 -66 46q0 55 41 64q35 6 27 41q-72 330 -90 393q-4 16 -20 16t-26 -14q-30 -68 -80 -232t-56 -177t1 -22q5 -10 17 -10q28 -2 28 -36z" />
    <glyph glyph-name="x" unicode="x" horiz-adv-x="1327" 
d="M881 1401q-25 1 -25 27q0 14 -4 34q0 27 2 41q4 25 31 25l145 -6l39 2l141 2q25 0 29 -21q10 -39 4 -80q-6 -25 -34 -23t-95 1q-23 0 -37 -21q-43 -76 -140 -217t-133 -203t-36 -89q0 -28 27 -80l196 -369q50 -90 94 -180t66 -117q21 -27 56 -27q46 0 38 -61
q-2 -16 -2 -23q-2 -18 -31 -18q-332 -18 -440 -6q-27 0 -20 28q2 8 2 24v26q2 18 28 27t25 24q0 7 -14 35t-81 166t-107 208t-120 -110l-41 -82t-63 -136q-26 -63 -17 -73t54 -10q45 -1 51 -11t6 -81q-4 -25 -29 -29q-14 -4 -79 -4h-64q-165 -7 -262 -2q-34 0 -21 84
q4 26 17 30q25 12 41 12t73 5q57 4 75 24q17 21 28 43q178 360 204 413t30 83q8 49 -58 156t-150 278q-83 170 -133 232q-22 43 -69 43q-78 0 -78 43v51q0 14 10 24q10 11 26 11h100h186q154 6 196 5t41 -36q-2 -11 -2 -31t-2 -30q0 -25 -25 -25q-6 -2 -29 -2t-26 -21
q-4 -21 18 -61q21 -40 35 -66l17 -24q37 -70 119 -201q41 -53 61 -18t109 167q88 132 118 187q4 10 -1 20t-17 11l-19 2h-34z" />
    <glyph glyph-name="y" unicode="y" horiz-adv-x="1249" 
d="M23 1530q448 0 477 -1t28 -24q4 -57 5 -79t-19 -27l-45 -2q-12 -1 -19 -13t-1 -24q96 -219 188 -422q9 -18 27 -17t26 17q24 57 82 179t72 158t18 46t7 17q22 52 3 63q-7 5 -45 9q-39 5 -47 15t-8 68q-4 27 27 31l53 4l113 2l98 -2q92 0 98 -6t4 -21l-4 -61
q-2 -23 -26 -23l-91 -6q-29 0 -48 -41q-96 -207 -151 -321q-55 -113 -95 -213t-39 -218q0 -407 4 -473q2 -31 69 -34q31 0 35 -33q6 -36 6 -58t-11 -25q-26 -7 -79 -7q-14 -4 -79 -1q-66 3 -106 2t-214 5q-20 0 -22 28t-3 59q0 30 31 30h35q16 0 27 11q12 11 12 24t-1 249
q-1 235 -4 259q-9 67 -155 405q-23 53 -33 78t-27 63q-18 38 -23 60t-25 61q-19 39 -23 51q-12 31 -41 29l-39 2q-33 5 -36 30q-1 7 -5 31t-4 33q-4 31 23 33z" />
    <glyph glyph-name="z" unicode="z" horiz-adv-x="1167" 
d="M39 4q-35 0 -35 28q0 14 -2 45q-2 30 10 48q8 18 28 18t28 2q25 3 31 23t16 42t37 95q27 74 52 129q24 54 46 115l49 129q12 31 52 144t81 212q42 98 53 122q14 30 25 70q10 40 22 68q38 88 -4 92q-9 3 -53 3t-75 -1q-30 0 -90 -2q-149 -4 -173 -79q-6 -25 -41 -24t-84 7
q-23 4 -6 29q49 98 57 137q10 53 62 53q197 6 414 7h460q27 0 52 -7q33 -5 31 -35t-13 -65q-4 -25 -33 -29l-59 -2q-31 0 -51 -36q-58 -101 -131 -282l-123 -306q-12 -35 -110 -278q-98 -244 -110 -278q-22 -57 21 -59q51 -2 105 -2t143 -1q90 -1 94 1q109 6 160 90
q7 13 35 11t71 -2h17q37 -8 8 -42q-30 -34 -60 -65t-42 -69t-33 -44q-69 -18 -93 -16t-70 6t-290 5q-242 1 -320 -3t-130 -4h-29z" />
    <glyph glyph-name="braceleft" unicode="{" horiz-adv-x="559" 
d="M297 125v-72q7 -61 114 -55q37 2 63 -15t15 -65q-11 -47 -71 -51t-130 -2t-125 0q-54 -2 -69 17q-14 19 -16 42q-10 226 3 450t-112 363q-18 20 -4 47t45 71q31 45 42 65t26 70q14 50 14 120t2 202t-1 210t1 109q4 32 29 32q70 8 106 8l228 -6q33 0 37 -27q8 -26 5 -60
t-25 -41q-33 -11 -84 -8t-65 -13q-15 -14 -13 -48t2 -205q-1 -171 -1 -217t-6 -67q-6 -20 -67 -99q-60 -79 -65 -121t56 -117t69 -118q8 -42 3 -190q-6 -148 -6 -209z" />
    <glyph glyph-name="bar" unicode="|" horiz-adv-x="335" 
d="M240 1661v-23q-2 -43 -8 -869t-7 -848q0 -22 -17 -35t-49 -7t-44 6l-43 -2q-18 -3 -32 11t-13 34v780l-2 752v133l4 66q0 18 20 24q88 16 164 9q27 -4 27 -31z" />
    <glyph glyph-name="braceright" unicode="}" horiz-adv-x="579" 
d="M166 1045q0 45 -1 217t3 215t-39 51q-20 2 -55 0q-90 -5 -93 50q-3 34 5 60q4 27 37 27l227 6q37 0 106 -8q25 0 29 -32q4 -31 1 -109t-1 -212t2 -202t14 -118q13 -50 25 -70t42 -63q30 -44 44 -73q18 -25 -2 -47q-125 -139 -112 -363t3 -450q-4 -46 -37 -53t-67 -5
q-35 1 -107 -1t-130 2t-70 51q-10 47 15 65q26 17 64 15q106 -6 113 55v23q-8 220 -8 330q-4 76 4 118t70 118q61 75 56 116t-29 72q-23 32 -59 77t-43 69q-7 23 -7 69z" />
    <glyph glyph-name="asciitilde" unicode="~" horiz-adv-x="864" 
d="M586 690q27 0 54 18t25 57q-2 40 23 50q10 4 27 4l65 -4q42 0 26 -89t-65 -132q-53 -53 -147 -61t-160 38t-91 100t-30 60q-47 90 -114 74q-66 -14 -90 -90q-7 -17 -17 -21t-28 -3t-66 -5q-29 0 -35 27q-18 87 41 161t150 97q187 42 271 -138q30 -62 65 -103
q36 -40 96 -40z" />
    <glyph glyph-name="exclamdown" unicode="&#xa1;" horiz-adv-x="479" 
d="M92 1356q-26 76 14 148q24 44 64 56q39 12 74 -1q63 -29 88 -89q16 -39 1 -86t-52 -73q-45 -37 -88 -27q-85 25 -101 72zM184 1139q10 0 20 -1t16 -2q5 -1 13 -2q13 -2 23 -12t20 -63t80 -727q2 -18 12 -66t19 -89q21 -107 -10 -146q0 -2 -2 -2q-27 -33 -135 -23
q-12 2 -44 0q-142 -9 -178 14q-18 12 -17 46t24 139t54 424q32 319 73 481q4 23 13 26t19 3z" />
    <glyph glyph-name="cent" unicode="&#xa2;" horiz-adv-x="1054" 
d="M444 1339q0 23 -22 30q-23 7 -35 -13q-121 -193 -111 -660q10 -270 66 -450q32 -109 62 -128t42 -1q8 8 9 30l-6 86q-2 43 -3 127l-2 598v381zM934 118q0 -86 -10 -98t-50 -12t-43 29q0 37 -2 49t-12 17t-18 -2q-90 -78 -162 -117q-43 -20 -43 -68t6 -76v-10
q10 -47 8 -61q-8 -55 -87 -65t-89 46q-2 10 4 48t9 74q6 74 -56 87q-72 17 -131 67t-129 130q-127 147 -167 361t-2 421t134 379q115 209 314 250q39 6 38 49l-2 51q-2 10 -14 49t14 60q56 43 114 21t42 -93q-25 -94 14 -139q16 -18 54 -42t47 -33q10 -9 65 -71q8 -10 20 -5
q11 5 9 18q-10 115 10 135q10 12 35 15q55 7 62 -24q6 -31 5 -49t6 -160t-9 -167q-10 -14 -50 -20q-88 -12 -108 34q-4 10 -11 35t-25 61q-35 70 -54 94q-18 23 -50 11t-30 -47v-64l2 -440q0 -475 2 -713q0 -27 26 -37t44 10q55 62 98 154t53 144q9 52 21 66q12 13 45 11
q43 0 43 -43q10 -235 10 -320z" />
    <glyph glyph-name="sterling" unicode="&#xa3;" horiz-adv-x="1271" 
d="M1198 1241q0 -37 -4 -55q-4 -33 -39 -35q-67 -4 -93 19q-25 22 -42 57q-57 127 -111 172q-35 31 -89 31q-143 0 -224 -177q-86 -176 -82 -366q0 -23 7 -30t32 -7h121q46 0 47 -27q0 -89 -8 -117t-37 -32q-86 -6 -102 -6h-17q-35 0 -46 -39t-11 -182t5 -199t18 -74t61 -22
t142 -4q92 0 142 -4t77 14t51 44t30 31q72 74 148 11q33 -26 -38 -121q-38 -51 -50 -75q-24 -46 -66 -46h-51q-66 2 -499 1q-434 -1 -454 2t-26 8t-9 35t0 54t15 31q12 6 41 0t67 -2q55 8 60 98q4 37 10 240l2 88q0 113 -74 109h-95q-20 0 -18 62q1 62 1 82q0 18 18 34
t38 13t47 -5q29 -2 47 -5t32 9t18 26t9 38q41 258 188 442q168 203 389 203q98 0 160 -45q10 -10 32 -30t32 -30t22 -16q16 -12 35 -3q18 9 20 32l2 55q0 25 5 31t26 8h47q27 -2 36 -10t9 -31l-4 -101v-184z" />
    <glyph glyph-name="currency" unicode="&#xa4;" horiz-adv-x="688" 
d="M391 737q11 43 -21 80t-78 33t-67 -47q-18 -33 -10 -73t39 -54t65 -4q60 14 72 65zM623 528q12 -20 -5 -41q-37 -43 -96 -65q-29 -10 -53 14q-14 18 -47 51q-10 14 -33 11q-10 -10 -76 -6t-86 2t-29 -14q-8 -12 -24 -27t-29 -29t-27 -15t-110 70q-16 14 -17 37t15 37
q10 6 32 29t28 26q-2 2 -5 6l-2 7q-43 57 -39 123t22 106q18 41 4 58l-32 36t-26 28t2 32q30 44 54 63q25 18 30 23q27 23 49 0l63 -68q18 -26 86 -18t106 2t54 8t64 61q16 16 36 2q49 -37 74 -57q31 -31 2 -62q-11 -11 -47 -55q-16 -25 -8 -47q27 -70 23 -106
q-11 -84 -25 -108q-14 -25 4 -40z" />
    <glyph glyph-name="yen" unicode="&#xa5;" horiz-adv-x="1249" 
d="M23 1530q448 0 477 -1t28 -24q4 -57 5 -79t-19 -27l-45 -2q-12 -1 -19 -13t-1 -24q96 -219 188 -422q9 -18 27 -17t26 17q24 57 82 179t72 158t18 46t7 17q22 52 3 63q-7 5 -45 9q-39 5 -47 15t-8 68q-4 27 27 31l53 4l113 2l98 -2q92 0 98 -6t4 -21l-4 -61
q-2 -23 -26 -23l-91 -6q-29 0 -48 -41q-96 -207 -138 -296q-43 -89 -100 -224q-6 -14 1 -26t21 -11h99q33 6 39 -37q0 -14 -2 -44t2 -46q2 -16 -4 -22t-23 -7l-92 2q-23 -2 -56 -2t-32 -26l2 -39q-1 -27 35 -28t108 -1h21q35 6 36 -35q2 -14 1 -45t1 -47t-3 -22t-23 -6
l-92 2h-47q-16 0 -26 -10t-11 -27l2 -228q2 -31 69 -34q31 0 35 -33q6 -36 6 -58t-11 -25q-26 -7 -79 -7q-14 -4 -79 -1q-66 3 -106 2t-214 5q-20 0 -22 28t-3 59q0 30 31 30h35q16 0 27 11t12 25v224q0 14 -12 24t-25 11q-113 0 -117 -3h-24q-16 1 -28 13t-9 26q0 14 3 44
t-1 52q-6 32 50 34q56 1 132 -3q10 1 19 9q8 8 8 19v32q0 27 -31 27t-67 -1l-44 -2h-30q-14 -1 -26 11t-11 28q6 82 4 94q-4 24 26 31q8 4 23 4h57q13 -1 21 11t3 26t-22 55q-16 41 -26 67t-33 79t-33 78t-27 63q-18 38 -23 60t-25 61q-19 39 -27 59t-35 21q-62 0 -69 13
t-10 34q-3 22 -5 34t-2 17q-4 29 23 31z" />
    <glyph glyph-name="brokenbar" unicode="&#xa6;" horiz-adv-x="327" 
d="M18 651q0 9 8 19t21 10h148q10 0 19 -9t7 -20l-4 -729q0 -23 -17 -36t-49 -7t-45 6l-43 -2q-18 -3 -31 11t-14 32v725zM231 1661v-23l-8 -714q0 -29 -28 -29h-150q-25 0 -29 29v669l4 66q0 18 21 24q88 16 164 9q26 -4 26 -31z" />
    <glyph glyph-name="copyright" unicode="&#xa9;" horiz-adv-x="1392" 
d="M801 469q-12 0 -15 12q-4 13 -12 15t-14 -4q-94 -82 -191 -43q-68 31 -100 88q-74 117 -31 309q12 63 46 125q50 92 128 95q23 1 35 1l80 -10h16q1 0 15 14t38 13t30 -15t5 -37l-4 -84q0 -16 -12 -16q-39 -13 -80 37q-51 65 -96 30q-8 -10 -16 -34q-39 -100 -40 -212
t52 -198q12 -23 36 -38q25 -15 53 11t34 57q6 30 22 37q47 21 60 8q12 -13 12 -24l4 -102q0 -35 -45 -35h-10zM1014 397q72 166 67 373q-4 206 -82 346t-184 218q-107 78 -213 42q-106 -35 -189 -129t-122 -203q-61 -170 -49 -358q20 -227 141 -393q51 -69 177 -135t262 17
t192 222zM1282 1098q115 -272 27 -555t-333 -440t-467 -88t-364 232q-141 163 -178 380q-8 61 -8 98q-2 133 43 263q90 259 315 417t475 109q132 -26 250 -113q160 -119 240 -303z" />
    <glyph glyph-name="guillemotleft" unicode="&#xab;" horiz-adv-x="641" 
d="M274 1029v-38q2 -29 -14 -49l-117 -147q-20 -25 -28 -39q-20 -23 -2 -51q77 -111 113 -149t42 -50q6 -14 0 -111q-18 -72 -59 -35q-14 14 -127 165t-115 153q-35 33 -8 84q12 24 125 169q112 143 120 155q45 61 62 20q8 -24 8 -77zM545 1070v-41q0 -23 2 -45t-15 -42
l-116 -147q-20 -25 -29 -39q-20 -23 -2 -51q77 -111 113 -149t42 -50q6 -14 1 -111q-4 -16 -9 -24q-20 -39 -51 -11q-14 14 -127 165t-114 153q-35 33 -9 84q8 15 123 164q115 148 123 160t29 32t30 -6q9 -24 9 -42z" />
    <glyph glyph-name="registered" unicode="&#xae;" horiz-adv-x="1423" 
d="M631 848q0 -27 24 -31q68 -6 78 64q12 84 -74 92q-29 0 -28 -23v-102zM885 580v16q3 25 30 25q44 0 25 -70q-12 -43 -29 -54q-16 -11 -53 -17t-79 17q-42 22 -50 68q-2 9 -5 67t-5 68q-4 25 -37 30q-33 6 -44 -24t-7 -88l2 -47l12 -2q31 -4 37 -34v-27q-4 -27 -31 -31
q-23 -2 -73 -2t-74 -2h-23q-31 0 -39 33q-4 29 6 43t32 15t26 1l2 47q0 201 -2 273l-2 55q0 29 -27 25q-12 0 -16 2q-35 0 -41 37q-6 27 24 38l37 13q195 24 263 2q67 -21 94 -59t34 -97t-21 -87t-28 -41t15 -35t9 -83q-7 -61 -5 -71q4 -37 32 -39q11 23 11 35zM1030 397
q72 166 68 373q-4 206 -82 346t-184 218t-214 42q-106 -35 -189 -129t-122 -203q-61 -170 -49 -358q20 -227 141 -393q51 -69 177 -135t262 17q135 83 192 222zM1298 1098q115 -272 27 -555t-333 -440t-467 -88t-363 232t-178 380q-25 191 27 341t131 254t188 181
q110 77 228 107t250 4t251 -113q159 -119 239 -303z" />
    <glyph glyph-name="paragraph" unicode="&#xb6;" horiz-adv-x="1302" 
d="M756 1688q201 -13 295 -13q93 0 125 -2h16q20 -2 26 -7t7 -97q-1 -92 -11 -101q-10 -10 -30 -13t-48 -6t-48 -6t-19 -24q-14 -666 -4 -1452l2 -18q12 -55 -45 -55q-26 0 -50 5t-44 1q-72 -14 -72 39q-2 14 -2 43l2 61l-10 1284l6 82q2 13 -8 25t-44 13t-124 1h-2
q-29 -4 -29 -33l-4 -63q-20 -911 0 -1368q0 -49 -2 -72q-6 -41 -35 -34t-53 7l-102 -6q-14 0 -23 2q-27 0 -27 29q2 47 2 169l2 247v170q-3 57 -17 190q-3 29 -30 35q-8 2 -24 7t-25 7q-86 23 -170 80q-18 15 -64 73q-92 117 -105 285q-13 169 89 314q45 63 142 125
q111 66 264 80q20 2 127 2q105 -6 166 -6z" />
    <glyph glyph-name="guillemotright" unicode="&#xbb;" horiz-adv-x="647" 
d="M274 1029v38q0 20 10 45t29 5q20 -20 146 -183q125 -164 129 -172q27 -51 -8 -84q-2 -2 -115 -153t-127 -165q-41 -38 -59 35q-6 95 0 109q7 14 43 52t112 149q18 29 -2 51q-23 39 -145 186q-17 25 -15 44t2 43zM11 1112q11 31 57 -22q46 -65 145 -192q98 -128 102 -136
q27 -51 -8 -84q-3 -2 -115 -153t-126 -165q-42 -39 -60 35q-6 95 0 109t43 52t113 149q18 29 -2 51q-25 43 -146 186q-16 25 -15 44t1 57t11 69z" />
    <glyph glyph-name="questiondown" unicode="&#xbf;" horiz-adv-x="856" 
d="M406 -39q-196 0 -322 123q-74 72 -112 184t-11 241q27 130 135 241q109 111 248 131q16 0 16 16q0 15 -5 63t-6 80t13 62q14 31 54 37t54 -17q15 -22 11 -58t6 -200q2 -31 -14 -51t-48 -42t-44 -34q-134 -144 -115 -436q8 -123 60 -182q35 -37 88 -47t105 16t72 83
q19 59 -7 117t-43 100q-16 42 5 93t75 54q114 9 163 -91q29 -58 19 -160t-84 -190q-117 -133 -313 -133zM301 1352q-2 8 -6 57t27 98q18 35 57 47t74 -2q63 -29 83 -78t6 -96q-15 -47 -53 -73q-47 -37 -88 -27q-84 25 -100 74z" />
    <glyph glyph-name="Agrave" unicode="&#xc0;" 
d="M352 1749q-12 6 -24 9q-12 4 -20 18t-3 30q51 129 56 153t34 21l25 -6q52 -14 252 -115t202 -102q35 -18 23 -47l-14 -47q-3 -16 -9 -19q-6 -2 -32 0t-198 38q-171 36 -292 67zM483 645q176 -31 160 39q-70 317 -74 338q-4 14 -19 15t-20 -13q-55 -203 -86 -319
q-4 -23 8 -41t31 -19zM713 2q-29 0 -40 23t0 49t45 31q35 5 46 18q10 13 5 40t-34 172t-53 164t-48 23t-60 0t-60 -1q-100 12 -135 -40q-23 -32 -59 -183q-37 -151 -40 -162t6 -23t25 -15h27q41 0 39 -46t-37 -50q-74 -6 -223 -2l-59 -4q-81 0 -52 74q14 34 40 32
q56 -6 74 46q12 32 124 443q213 779 219 798q6 18 -1 27q-8 9 -18 7t-32 -2q-18 -4 -24 20q-6 25 -3 53q4 28 29 28q164 14 401 2q13 0 25 -12t12 -27v-25q2 -20 -11 -32t-34 -13h-2q-13 2 -25 -10t-8 -29q47 -201 158 -599q111 -399 135 -503q23 -104 29 -118t8 -21
q10 -27 37 -26l35 2q20 0 28 -31q14 -55 -37 -72q-27 -8 -69 -8l-166 8q-215 -6 -217 -6z" />
    <glyph glyph-name="Aacute" unicode="&#xc1;" 
d="M324 1663l-17 47q-12 29 25 47q2 0 89 46q297 156 363 171l25 6q31 2 37 -26t53 -148q14 -37 -22 -49q-30 -15 -258 -63t-257 -52t-32 3q-4 6 -6 18zM483 645q176 -31 160 39q-70 317 -74 338q-4 14 -19 15t-20 -13q-55 -203 -86 -319q-4 -23 8 -41t31 -19zM713 2
q-29 0 -40 23t0 49t45 31q35 5 46 18q10 13 5 40t-34 172t-53 164t-48 23t-60 0t-60 -1q-100 12 -135 -40q-23 -32 -59 -183q-37 -151 -40 -162t6 -23t25 -15h27q41 0 39 -46t-37 -50q-74 -6 -223 -2l-59 -4q-81 0 -52 74q14 34 40 32q56 -6 74 46q12 32 124 443
q213 779 219 798q6 18 -1 27q-8 9 -18 7t-32 -2q-18 -4 -24 20q-6 25 -3 53q4 28 29 28q164 14 401 2q13 0 25 -12t12 -27v-25q2 -20 -11 -32t-34 -13h-2q-13 2 -25 -10t-8 -29q47 -201 158 -599q111 -399 135 -503q23 -104 29 -118t8 -21q10 -27 37 -26l35 2q20 0 28 -31
q14 -55 -37 -72q-27 -8 -69 -8l-166 8q-215 -6 -217 -6z" />
    <glyph glyph-name="Acircumflex" unicode="&#xc2;" 
d="M571 2034l31 14q8 0 14 -6q56 -26 287 -283l19 -20q20 -25 6 -43l-25 -31q-11 -18 -23 -12q-62 32 -239 145q-39 23 -76 0q-162 -102 -231 -141q-21 -10 -31 8l-24 31q-16 18 4 43l18 20q90 100 146 156l83 83q27 26 41 36zM483 645q176 -31 160 39q-70 317 -74 338
q-4 14 -19 15t-20 -13q-55 -203 -86 -319q-4 -23 8 -41t31 -19zM713 2q-29 0 -40 23t0 49t45 31q35 5 46 18q10 13 5 40t-34 172t-53 164t-48 23t-60 0t-60 -1q-100 12 -135 -40q-23 -32 -59 -183q-37 -151 -40 -162t6 -23t25 -15h27q41 0 39 -46t-37 -50q-74 -6 -223 -2
l-59 -4q-81 0 -52 74q14 34 40 32q56 -6 74 46q12 32 124 443q213 779 219 798q6 18 -1 27q-8 9 -18 7t-32 -2q-18 -4 -24 20q-6 25 -3 53q4 28 29 28q164 14 401 2q13 0 25 -12t12 -27v-25q2 -20 -11 -32t-34 -13h-2q-13 2 -25 -10t-8 -29q47 -201 158 -599
q111 -399 135 -503q23 -104 29 -118t8 -21q10 -27 37 -26l35 2q20 0 28 -31q14 -55 -37 -72q-27 -8 -69 -8l-166 8q-215 -6 -217 -6z" />
    <glyph glyph-name="Atilde" unicode="&#xc3;" 
d="M868 1921h19q25 0 40 -16t15 -39l-2 -4q-7 -187 -168 -209q-25 -4 -35 -4q-61 0 -110 28t-99 119q-28 43 -58 34t-41 -48t-60 -43h-2l-23 -2q-6 -2 -18 -2q-43 -6 -56 34q-22 74 24 142t120 90q104 33 184 -31q28 -23 56 -71t46 -65t48 -14t30 19q4 8 0 14q0 43 31 60
q12 8 59 8zM483 645q176 -31 160 39q-70 317 -74 338q-4 14 -19 15t-20 -13q-55 -203 -86 -319q-4 -23 8 -41t31 -19zM713 2q-29 0 -40 23t0 49t45 31q35 5 46 18q10 13 5 40t-34 172t-53 164t-48 23t-60 0t-60 -1q-100 12 -135 -40q-23 -32 -59 -183q-37 -151 -40 -162
t6 -23t25 -15h27q41 0 39 -46t-37 -50q-74 -6 -223 -2l-59 -4q-81 0 -52 74q14 34 40 32q56 -6 74 46q12 32 124 443q213 779 219 798q6 18 -1 27q-8 9 -18 7t-32 -2q-18 -4 -24 20q-6 25 -3 53q4 28 29 28q164 14 401 2q13 0 25 -12t12 -27v-25q2 -20 -11 -32t-34 -13h-2
q-13 2 -25 -10t-8 -29q47 -201 158 -599q111 -399 135 -503q23 -104 29 -118t8 -21q10 -27 37 -26l35 2q20 0 28 -31q14 -55 -37 -72q-27 -8 -69 -8l-166 8q-215 -6 -217 -6z" />
    <glyph glyph-name="Adieresis" unicode="&#xc4;" 
d="M735 1696q-63 25 -88 86q-16 39 -2 86t58 80t81 20q86 -25 103 -72q18 -92 -10 -141q-29 -49 -68 -62t-74 3zM406 1696q-63 25 -89 86q-16 39 -2 86q15 47 59 80t81 20q86 -25 100 -72q25 -83 -6 -137q-30 -53 -69 -66t-74 3zM483 645q176 -31 160 39q-70 317 -74 338
q-4 14 -19 15t-20 -13q-55 -203 -86 -319q-4 -23 8 -41t31 -19zM713 2q-29 0 -40 23t0 49t45 31q35 5 46 18q10 13 5 40t-34 172t-53 164t-48 23t-60 0t-60 -1q-100 12 -135 -40q-23 -32 -59 -183q-37 -151 -40 -162t6 -23t25 -15h27q41 0 39 -46t-37 -50q-74 -6 -223 -2
l-59 -4q-81 0 -52 74q14 34 40 32q56 -6 74 46q12 32 124 443q213 779 219 798q6 18 -1 27q-8 9 -18 7t-32 -2q-18 -4 -24 20q-6 25 -3 53q4 28 29 28q164 14 401 2q13 0 25 -12t12 -27v-25q2 -20 -11 -32t-34 -13h-2q-13 2 -25 -10t-8 -29q47 -201 158 -599
q111 -399 135 -503q23 -104 29 -118t8 -21q10 -27 37 -26l35 2q20 0 28 -31q14 -55 -37 -72q-27 -8 -69 -8l-166 8q-215 -6 -217 -6z" />
    <glyph glyph-name="Aring" unicode="&#xc5;" 
d="M655 1826q0 14 -5 30q-5 18 -32 24t-45 -8q-39 -27 -20 -62q10 -22 41 -34t46 12t15 38zM555 1653q-88 35 -125 114q-23 51 -1 113q21 62 83 104q62 43 110 31t68 -20q78 -31 88 -102q2 -13 3 -30t3 -26q2 -61 -32 -117t-90 -71q-56 -16 -107 4zM483 645q176 -31 160 39
q-70 317 -74 338q-4 14 -19 15t-20 -13q-55 -203 -86 -319q-4 -23 8 -41t31 -19zM713 2q-29 0 -40 23t0 49t45 31q35 5 46 18q10 13 5 40t-34 172t-53 164t-48 23t-60 0t-60 -1q-100 12 -135 -40q-23 -32 -59 -183q-37 -151 -40 -162t6 -23t25 -15h27q41 0 39 -46t-37 -50
q-74 -6 -223 -2l-59 -4q-81 0 -52 74q14 34 40 32q56 -6 74 46q12 32 124 443q213 779 219 798q6 18 -1 27q-8 9 -18 7t-32 -2q-18 -4 -24 20q-6 25 -3 53q4 28 29 28q164 14 401 2q13 0 25 -12t12 -27v-25q2 -20 -11 -32t-34 -13h-2q-13 2 -25 -10t-8 -29q47 -201 158 -599
q111 -399 135 -503q23 -104 29 -118t8 -21q10 -27 37 -26l35 2q20 0 28 -31q14 -55 -37 -72q-27 -8 -69 -8l-166 8q-215 -6 -217 -6z" />
    <glyph glyph-name="AE" unicode="&#xc6;" horiz-adv-x="1576" 
d="M727 688q0 356 -6 658q0 31 -33 34h-18q-42 0 -54 -43q-79 -297 -88 -313q-55 -203 -86 -319q-4 -23 8 -40t31 -20q101 -20 205 -4q41 4 41 47zM1442 1532q25 0 35 -25q4 -10 14 -55t39 -98q10 -25 10 -31q0 -27 -38 -28t-74 29q-36 31 -52 40q-54 29 -142 31t-128 1
t-52 -7q-14 -6 -14 -31l-4 -115q-10 -367 -8 -391t8 -33q20 -23 102 2t119 88q18 33 44 36q49 6 47 -40q-4 -27 -12 -77t-12 -92q-5 -42 11 -118q9 -30 -17 -40t-40 16q-20 41 -29 61q-8 25 -32 31q-82 23 -152 16q-35 0 -35 -36q-8 -98 4 -492q4 -41 43 -41q186 6 211 7
t106 54q80 52 97 52t26 -14t4 -32t-9 -24t-34 -73t-61 -87q-8 -6 -43 -10l-637 -4h-98q-37 5 -37 59q-2 23 13 45t34 21h21q39 0 47 43l6 55q4 70 4 246q0 23 -15 38t-36 15l-152 -6q-113 17 -149 -37q-19 -28 -29 -84t-70 -256q-4 -14 6 -27t27 -16h27q41 0 39 -46t-37 -50
q-78 -6 -238 -2l-58 -4q-81 0 -52 74q14 36 40 32q26 -2 46 10t26 31q78 236 347 1203q3 14 -5 25t-22 11h-10q-27 2 -27 60q-16 62 13 78q15 8 26 8h88q70 2 143 0h371l379 4h37z" />
    <glyph glyph-name="Ccedilla" unicode="&#xc7;" horiz-adv-x="1103" 
d="M535 -469h-11q-74 4 -104 41q-54 65 -25 129q21 43 61 40t52 -32t-6 -63q-6 -20 -4 -25q4 -4 18 -8q16 0 29 6q16 13 16 61t-26 70q-2 0 -3 2q-38 19 -32 51v13q2 18 1 40t13 36q14 13 37 10q45 -6 39 -74q40 -12 68 -45q63 -73 30 -156q-10 -33 -35 -55
q-41 -41 -118 -41zM991 1512v-60q0 -40 4 -82v-170l-6 -18q-10 -14 -49 -20q-93 -13 -109 34q-6 12 -14 45t-57 117q-48 84 -118 92t-110 -14q-39 -23 -73 -80q-121 -193 -111 -660q4 -170 39 -355t113 -263q130 -113 247 44q118 157 142 298q6 37 18 50t45 11q39 -1 43 -47
t7 -197q4 -151 4 -177t-10 -40q-10 -12 -51 -12q-40 0 -42 29l-2 20v25q-2 16 -13 21q-12 5 -20 -2l-64 -56q-117 -103 -289 -94q-171 10 -329 192q-127 147 -167 361t-2 421q37 207 127 367t230 237t296 27q63 -20 118 -69l62 -68q8 -10 20 -5t11 18q-9 114 13 138t56 13
t37 -31q4 -20 4 -40z" />
    <glyph glyph-name="Egrave" unicode="&#xc8;" horiz-adv-x="1040" 
d="M219 1749q-12 6 -24 9q-11 4 -19 18t-4 30q51 129 56 153t34 21l25 -6q63 -16 257 -116q195 -100 197 -101q35 -18 23 -47l-14 -47q-4 -16 -10 -19q-6 -2 -32 0q-28 2 -199 38t-290 67zM840 1532q25 0 34 -25q4 -10 12 -45t30 -81t23 -57t-9 -19q-28 -22 -71 0
q-21 10 -45 30t-40 29q-72 41 -268 31q-40 0 -54 -6t-14 -39q0 -34 -7 -254t-5 -244t8 -33q20 -23 104 2t117 88q18 33 44 35q54 4 46 -39q-12 -94 -20 -153t8 -134q7 -30 -17 -40t-40 18t-26 56t-34 34q-84 23 -153 16q-35 0 -35 -36q-8 -98 4 -492q4 -41 43 -41
q186 6 211 7t68 32q117 73 129 74q49 0 35 -47q0 -9 -6 -19t-36 -77t-61 -87q-6 -4 -43 -10l-637 -4h-98q-31 4 -35 35l-2 24q-2 23 13 45t34 21h21q43 0 47 43l6 55q8 141 5 593q-4 530 -10 546q-7 16 -29 16l-28 2q-35 2 -26 86q2 8 2 25q4 35 37 35h354l301 4h113z" />
    <glyph glyph-name="Eacute" unicode="&#xc9;" horiz-adv-x="1040" 
d="M743 1757l-24 -8q-119 -31 -290 -67t-200 -40t-33 3q-4 6 -8 18l-14 47q-12 29 23 47q3 1 100 51q299 155 354 166l25 6q29 2 37 -26q6 -29 53 -148q12 -37 -23 -49zM840 1532q25 0 34 -25q4 -10 12 -45t30 -81t23 -57t-9 -19q-28 -22 -71 0q-21 10 -45 30t-40 29
q-72 41 -268 31q-40 0 -54 -6t-14 -39q0 -34 -7 -254t-5 -244t8 -33q20 -23 104 2t117 88q18 33 44 35q54 4 46 -39q-12 -94 -20 -153t8 -134q7 -30 -17 -40t-40 18t-26 56t-34 34q-84 23 -153 16q-35 0 -35 -36q-8 -98 4 -492q4 -41 43 -41q186 6 211 7t68 32
q117 73 129 74q49 0 35 -47q0 -9 -6 -19t-36 -77t-61 -87q-6 -4 -43 -10l-637 -4h-98q-31 4 -35 35l-2 24q-2 23 13 45t34 21h21q43 0 47 43l6 55q8 141 5 593q-4 530 -10 546q-7 16 -29 16l-28 2q-35 2 -26 86q2 8 2 25q4 35 37 35h354l301 4h113z" />
    <glyph glyph-name="Ecircumflex" unicode="&#xca;" horiz-adv-x="1040" 
d="M438 2034l31 14q8 0 14 -6q56 -26 287 -283l18 -20q20 -25 7 -43l-27 -31q-10 -18 -31 -8q-78 43 -229 141q-39 23 -76 0q-162 -102 -231 -141q-21 -10 -31 8l-25 31q-16 18 5 43l18 20q18 20 45 49t60 65q125 133 165 161zM840 1532q25 0 34 -25q4 -10 12 -45t30 -81
t23 -57t-9 -19q-28 -22 -71 0q-21 10 -45 30t-40 29q-72 41 -268 31q-40 0 -54 -6t-14 -39q0 -34 -7 -254t-5 -244t8 -33q20 -23 104 2t117 88q18 33 44 35q54 4 46 -39q-12 -94 -20 -153t8 -134q7 -30 -17 -40t-40 18t-26 56t-34 34q-84 23 -153 16q-35 0 -35 -36
q-8 -98 4 -492q4 -41 43 -41q186 6 211 7t68 32q117 73 129 74q49 0 35 -47q0 -9 -6 -19t-36 -77t-61 -87q-6 -4 -43 -10l-637 -4h-98q-31 4 -35 35l-2 24q-2 23 13 45t34 21h21q43 0 47 43l6 55q8 141 5 593q-4 530 -10 546q-7 16 -29 16l-28 2q-35 2 -26 86q2 8 2 25
q4 35 37 35h354l301 4h113z" />
    <glyph glyph-name="Edieresis" unicode="&#xcb;" horiz-adv-x="1040" 
d="M602 1696q-63 25 -88 86q-16 39 -2 86t58 80t81 20q86 -25 101 -72q25 -84 -6 -137t-70 -66t-74 3zM270 1696q-62 27 -82 76t-6 96t58 80t82 20q86 -25 100 -72q25 -84 -6 -137q-59 -101 -146 -63zM840 1532q25 0 34 -25q4 -10 12 -45t30 -81t23 -57t-9 -19
q-28 -22 -71 0q-21 10 -45 30t-40 29q-72 41 -268 31q-40 0 -54 -6t-14 -39q0 -34 -7 -254t-5 -244t8 -33q20 -23 104 2t117 88q18 33 44 35q54 4 46 -39q-12 -94 -20 -153t8 -134q7 -30 -17 -40t-40 18t-26 56t-34 34q-84 23 -153 16q-35 0 -35 -36q-8 -98 4 -492
q4 -41 43 -41q186 6 211 7t68 32q117 73 129 74q49 0 35 -47q0 -9 -6 -19t-36 -77t-61 -87q-6 -4 -43 -10l-637 -4h-98q-31 4 -35 35l-2 24q-2 23 13 45t34 21h21q43 0 47 43l6 55q8 141 5 593q-4 530 -10 546q-7 16 -29 16l-28 2q-35 2 -26 86q2 8 2 25q4 35 37 35h354
l301 4h113z" />
    <glyph glyph-name="Igrave" unicode="&#xcc;" horiz-adv-x="559" 
d="M508 1757q37 -20 24 -47l-16 -47q-2 -16 -11 -22t-261 48q-251 53 -281 68q-37 12 -22 49q1 6 25 68t29 85q5 25 29 21q76 -11 411 -186q71 -37 73 -37zM37 1407q-29 0 -35 37v41q0 29 27 35q72 10 219 10t184 -2t35 -37q0 -61 -6 -67t-29 -7q-52 0 -57 -45v-2l-6 -1223
q0 -22 27 -22l28 -2q29 -4 39 -15t10 -52t-29 -51t-53 -8q-25 3 -37 3t-80 -2t-93 0t-55 0t-52 -4t-41 0q-33 4 -33 45q0 86 55 82q16 -2 32 13q15 15 15 46l-10 1198q0 29 -33 29h-22z" />
    <glyph glyph-name="Iacute" unicode="&#xcd;" horiz-adv-x="559" 
d="M510 1757l-23 -8q-121 -31 -309 -71t-200 -38q-13 2 -16 6t-5 17l-16 47q-10 29 24 47q2 0 89 46q297 156 366 171l24 6q29 2 34 -21q4 -23 28 -85t26 -68q14 -37 -22 -49zM37 1407q-29 0 -35 37v41q0 29 27 35q72 10 219 10t184 -2t35 -37q0 -61 -6 -67t-29 -7
q-52 0 -57 -45v-2l-6 -1223q0 -22 27 -22l28 -2q29 -4 39 -15t10 -52t-29 -51t-53 -8q-25 3 -37 3t-80 -2t-93 0t-55 0t-52 -4t-41 0q-33 4 -33 45q0 86 55 82q16 -2 32 13q15 15 15 46l-10 1198q0 29 -33 29h-22z" />
    <glyph glyph-name="Icircumflex" unicode="&#xce;" horiz-adv-x="559" 
d="M238 2048q8 0 14 -6q53 -27 243 -236q58 -63 60 -67q23 -25 6 -43l-24 -31q-10 -18 -31 -8q-70 39 -232 141q-38 25 -80 -3q-42 -27 -94 -59t-91 -55q-38 -23 -40 -24q-23 -10 -32 8l-25 31q-16 18 6 43l19 20q18 20 45 49q181 195 225 226l16 8q7 6 15 6zM37 1407
q-29 0 -35 37v41q0 29 27 35q72 10 219 10t184 -2t35 -37q0 -61 -6 -67t-29 -7q-52 0 -57 -45v-2l-6 -1223q0 -22 27 -22l28 -2q29 -4 39 -15t10 -52t-29 -51t-53 -8q-25 3 -37 3t-80 -2t-93 0t-55 0t-52 -4t-41 0q-33 4 -33 45q0 86 55 82q16 -2 32 13q15 15 15 46
l-10 1198q0 29 -33 29h-22z" />
    <glyph glyph-name="Idieresis" unicode="&#xcf;" horiz-adv-x="559" 
d="M281 1869q14 46 57 79t89 19q80 -24 93 -69q23 -80 -18 -159q-20 -33 -60 -46t-73 3q-63 25 -88 86q-14 41 0 87zM172 1739q-20 -33 -59 -46t-74 3q-63 25 -88 86q-14 41 0 87t57 79t82 20q84 -25 100 -72q26 -77 -18 -157zM473 66q0 -78 -88 -68q-19 2 -31 2t-80 -2
t-93 0t-54 0t-53 -4t-41 0q-33 4 -33 45q0 86 55 82q16 -2 32 13q15 15 15 46l-10 1198q0 29 -31 29h-24q-27 0 -31 25q-2 2 -2 6t-2 6v41q0 29 27 35q72 10 219 10t184 -2t35 -37q0 -61 -6 -67t-22 -7q-17 0 -23 -2h-2q-35 -6 -39 -43v-2l-6 -1223q0 -22 27 -22l28 -2
q29 -4 39 -15q10 -12 10 -42z" />
    <glyph glyph-name="Eth" unicode="&#xd0;" horiz-adv-x="1232" 
d="M469 1300q0 -29 -4 -90v-71l-4 -305q0 -23 15 -38t38 -16h115q12 0 20 2q31 6 37 -37q2 -18 0 -58t1 -58q3 -19 -2 -25t-23 -6h-150q-20 0 -36 -14t-15 -37v-168q0 -43 -4 -129l-2 -61v-42q4 -29 24 -47t49 -16q129 10 213 82q149 128 175 390q12 120 -5 323
q-27 360 -223 534q-55 49 -138 45t-81 -43v-115zM309 -31l-169 6q-55 0 -60 33v21q-2 19 12 35t34 17t36 15q14 14 14 35v27l2 202q0 41 -6 201q0 15 -11 25t-34 7t-66 -5h-24q-14 0 -26 11q-11 11 -11 23t2 64q2 53 0 57q-3 39 51 39q31 2 74 2t43 35q0 154 2 232l-6 362
q0 9 -7 17t-26 8h-49q-39 6 -41 39q-4 29 -4 43q0 31 31 36q84 14 305 22t334 -26q215 -63 347 -290q132 -226 142 -482t-121 -483q-4 -10 -10 -16q-71 -111 -183 -189t-234 -104t-341 -19z" />
    <glyph glyph-name="Ntilde" unicode="&#xd1;" horiz-adv-x="1216" 
d="M745 1853q0 43 31 60q12 8 60 8h18q25 0 40 -16t13 -39v-4q-7 -187 -168 -209q-25 -4 -34 -4q-93 0 -147 54q-15 15 -22 27t-11 15q-4 4 -17 27l-12 24q-27 43 -58 35t-42 -48t-60 -44h-2l-23 -2q-6 -2 -20 -2q-41 -6 -53 34q-23 74 23 142t120 90q104 33 184 -31
q27 -23 56 -71t47 -65t46 -14t31 19v14zM1044 1389v-17q-6 -270 -6 -1010v-4q2 -8 2 -74t2 -126v-23q0 -23 23 -26l33 -3q30 0 22 -75q-2 -25 -26 -25h-136l-141 2q-6 2 -33 2q-31 4 -30 35q0 61 26 61h23q8 0 13 10t1 19l-512 713q-10 14 -26 9t-17 -21l4 -691
q0 -27 27 -30q51 0 63 -4q18 0 19 -21v-59q-2 -25 -27 -25h-214q-90 0 -105 4q-29 6 -29 34t2 36q6 33 59 33h31q25 2 30 10t7 33l4 170l-4 168v870l-2 31q0 23 -28 19t-44 -5q-37 0 -39 33q-8 52 3 65q11 12 28 13q119 4 330 8q31 0 35 -33v-68q0 -16 -25 -16h-35
q-12 -2 -18 -12t0 -21l538 -751q8 -14 25 -10q16 5 16 22q6 401 7 515t-9 167q-10 54 -10 57q-8 33 -41 29q-12 -2 -35 -2q-27 4 -30 31q-2 8 -3 38t5 36q6 7 16 8h6q58 4 139 4l86 8q45 0 66 -8q31 -6 27 -39q0 -43 2 -47q2 -25 -23 -25l-47 -2q-25 0 -25 -20z" />
    <glyph glyph-name="Ograve" unicode="&#xd2;" horiz-adv-x="1032" 
d="M279 1749l-23 8q-37 12 -23 49q2 6 26 68t29 85q5 24 34 21l24 -6q65 -17 259 -116q194 -100 196 -101q35 -18 24 -47l-16 -47q-2 -16 -8 -19q-6 -2 -33 0t-198 38t-291 67zM778 453q0 22 2 28q39 438 -45 781q-29 106 -67 149q-66 73 -136 53t-122 -80t-76 -131
q-92 -272 -58 -635q27 -260 65 -370q37 -110 97 -164q60 -55 117 -61t102 37q70 69 107 287q14 84 14 106zM1018 1165q45 -151 49 -314t-12 -280q-37 -315 -207 -483q-80 -80 -193 -113q-179 -51 -333 47t-232 275q-131 305 -74 666q47 313 236 489q114 104 268 116t279 -79
q154 -106 219 -324z" />
    <glyph glyph-name="Oacute" unicode="&#xd3;" horiz-adv-x="1032" 
d="M250 1663l-17 47q-10 29 25 47q2 0 89 46t208 104q120 59 142 64q21 5 45 8t29 -20t29 -85t25 -68q14 -37 -22 -49q-30 -15 -276 -67t-257 -50q-12 2 -15 6t-5 17zM778 453q0 22 2 28q39 438 -45 781q-29 106 -67 149q-66 73 -136 53t-122 -80t-76 -131
q-92 -272 -58 -635q27 -260 65 -370q37 -110 97 -164q60 -55 117 -61t102 37q70 69 107 287q14 84 14 106zM1018 1165q45 -151 49 -314t-12 -280q-37 -315 -207 -483q-80 -80 -193 -113q-179 -51 -333 47t-232 275q-131 305 -74 666q47 313 236 489q114 104 268 116t279 -79
q154 -106 219 -324z" />
    <glyph glyph-name="Ocircumflex" unicode="&#xd4;" horiz-adv-x="1032" 
d="M312 1638q-72 0 -92 3t-25 24q-2 13 11 31t42 59l117 160q4 6 53 72q24 33 56 35t89 1q49 -4 72 -26t188 -254q82 -103 29 -107q-24 -4 -92 -4t-95 33q-26 33 -72 102t-54 74q-8 4 -19 -1t-22 -24q-10 -18 -16 -29t-41 -75q-34 -64 -45 -68q-11 -6 -84 -6zM778 453
q0 22 2 28q39 438 -45 781q-29 106 -67 149q-66 73 -136 53t-122 -80t-76 -131q-92 -272 -58 -635q27 -260 65 -370q37 -110 97 -164q60 -55 117 -61t102 37q70 69 107 287q14 84 14 106zM1018 1165q45 -151 49 -314t-12 -280q-37 -315 -207 -483q-80 -80 -193 -113
q-179 -51 -333 47t-232 275q-131 305 -74 666q47 313 236 489q114 104 268 116t279 -79q154 -106 219 -324z" />
    <glyph glyph-name="Otilde" unicode="&#xd5;" horiz-adv-x="1032" 
d="M711 1853q0 45 28 60q14 8 62 8h16q27 0 43 -16t12 -39v-4q-7 -187 -167 -209q-25 -4 -35 -4q-66 0 -115 30q-45 25 -82 93l-12 24q-29 43 -59 35t-41 -47t-60 -45h-2l-23 -2q-8 -2 -20 -2q-41 -6 -55 34q-20 74 25 142q46 68 120 90q106 33 182 -31q18 -14 62 -76
q25 -43 43 -60t46 -14t32 19v14zM778 453q0 22 2 28q39 438 -45 781q-29 106 -67 149q-66 73 -136 53t-122 -80t-76 -131q-92 -272 -58 -635q27 -260 65 -370q37 -110 97 -164q60 -55 117 -61t102 37q70 69 107 287q14 84 14 106zM1018 1165q45 -151 49 -314t-12 -280
q-37 -315 -207 -483q-80 -80 -193 -113q-179 -51 -333 47t-232 275q-131 305 -74 666q47 313 236 489q114 104 268 116t279 -79q154 -106 219 -324z" />
    <glyph glyph-name="Odieresis" unicode="&#xd6;" horiz-adv-x="1032" 
d="M666 1696q-62 25 -82 76t-6 97t57 79t82 20q86 -25 100 -72q25 -75 -18 -157q-20 -33 -59 -46t-74 3zM336 1696q-63 25 -88 86q-14 41 0 87t57 79q43 32 77 22t48 -15t35 -23t26 -54q5 -37 7 -43q0 -43 -29 -96q-20 -33 -59 -46t-74 3zM778 453q0 22 2 28q39 438 -45 781
q-29 106 -67 149q-66 73 -136 53t-122 -80t-76 -131q-92 -272 -58 -635q27 -260 65 -370q37 -110 97 -164q60 -55 117 -61t102 37q70 69 107 287q14 84 14 106zM1018 1165q45 -151 49 -314t-12 -280q-37 -315 -207 -483q-80 -80 -193 -113q-179 -51 -333 47t-232 275
q-131 305 -74 666q47 313 236 489q114 104 268 116t279 -79q154 -106 219 -324z" />
    <glyph glyph-name="multiply" unicode="&#xd7;" horiz-adv-x="743" 
d="M678 392q0 -16 -25 -17l-155 -4q-33 4 -146 147q-6 10 -17 10t-17 -9t-18 -29q-11 -20 -33 -53q-21 -32 -27 -44q-13 -28 -48 -28h-30q-156 0 -162 15t10 36l123 182q2 2 17 25q14 23 28 42t8 55t-42 81t-85 101t-61 73q-16 16 -14 29q4 29 65 28l80 -6q53 0 77 -13
t44 -39t30 -38t30 -40q32 -45 50 -17l64 108q20 33 57 33l164 -2h6q33 -6 8 -45q-2 -4 -4 -6l-182 -240q-11 -12 7 -41t99 -127t90 -124q9 -27 9 -43z" />
    <glyph glyph-name="Oslash" unicode="&#xd8;" horiz-adv-x="1032" 
d="M774 442l2 37q33 315 -2 596q-2 13 -17 15t-20 -13l-280 -973q-9 -39 21 -58t78 -25q48 -5 94 39q96 94 124 382zM317 387q14 0 19 14q114 383 278 1002q6 25 -10 45t-43 20q-70 -2 -133 -70t-90 -143q-94 -274 -64 -634q14 -156 25 -218q4 -16 18 -16zM328 -131v-2
q-10 2 -60 5t-59 18q-8 14 -5 35t29 122q6 35 -16 57q-86 88 -131 199q-129 301 -68 664q51 313 242 489q84 74 186 98q45 12 136 9q68 -14 84 18q4 7 10 21t12 26q10 19 74 19l82 4q12 0 28 -6q16 -5 20 -13t-3 -26l-33 -117q-10 -33 14 -57q191 -194 199 -621
q0 -509 -227 -725q-66 -61 -160 -101t-211 -20q-51 6 -65 -41q-8 -31 -22 -42t-46 -13h-10z" />
    <glyph glyph-name="Ugrave" unicode="&#xd9;" horiz-adv-x="1198" 
d="M291 1757q-37 12 -23 49q47 119 54 148q6 30 29 26q58 -9 173 -66t202 -101t117 -60t17 -43l-16 -47q-2 -16 -7 -19q-13 -8 -264 45t-282 68zM1128 1505v-71q0 -12 -18 -13q-66 0 -77 -2t-20 -13t-7 -40q2 -30 1 -80t5 -306q13 -544 -64 -755q-105 -298 -463 -259
q-282 32 -353 275q-24 81 -29 135t-5 163t-5 203t-5 649q0 18 -16 18l-25 2q-23 0 -32 7t-11 28l-4 39q-2 25 3 29t28 10t115 -1t278 5h6q31 2 38 -6t3 -39l-2 -47q0 -18 -18 -19q-12 -4 -34 -4q-21 0 -26 -18q-4 -63 1 -209t5 -174l6 -350l-4 -188q1 -158 17 -215
q16 -56 38 -100q45 -89 154 -81q146 12 211 124t78 243q12 131 12 217v413q-4 143 -8 187t-3 58t0 30q-4 64 -30 63h-63q-23 2 -29 9t-6 28v51q0 17 20 21t156 4q134 0 158 2t24 -23z" />
    <glyph glyph-name="Uacute" unicode="&#xda;" horiz-adv-x="1198" 
d="M838 1757l-23 -8q-121 -31 -292 -67t-199 -40t-31 3q-4 6 -8 18l-15 47q-12 29 23 47q2 0 89 46q297 156 366 171l24 6q29 2 34 -21t29 -85t25 -68q14 -37 -22 -49zM1128 1505v-71q0 -12 -18 -13q-66 0 -77 -2t-20 -13t-7 -40q2 -30 1 -80t5 -306q13 -544 -64 -755
q-105 -298 -463 -259q-282 32 -353 275q-24 81 -29 135t-5 163t-5 203t-5 649q0 18 -16 18l-25 2q-23 0 -32 7t-11 28l-4 39q-2 25 3 29t28 10t115 -1t278 5h6q31 2 38 -6t3 -39l-2 -47q0 -18 -18 -19q-12 -4 -34 -4q-21 0 -26 -18q-4 -63 1 -209t5 -174l6 -350l-4 -188
q1 -158 17 -215q16 -56 38 -100q45 -89 154 -81q146 12 211 124t78 243q12 131 12 217v413q-4 143 -8 187t-3 58t0 30q-4 64 -30 63h-63q-23 2 -29 9t-6 28v51q0 17 20 21t156 4q134 0 158 2t24 -23z" />
    <glyph glyph-name="Ucircumflex" unicode="&#xdb;" horiz-adv-x="1198" 
d="M565 2048q8 0 15 -6q57 -28 286 -283l19 -20q18 -27 4 -43l-25 -31q-10 -18 -30 -8q-70 39 -232 141q-39 25 -81 -3t-132 -82t-92 -56q-21 -10 -33 8l-24 31q-16 18 6 43l18 20q228 254 287 283q6 6 14 6zM1128 1505v-71q0 -12 -18 -13q-66 0 -77 -2t-20 -13t-7 -40
q2 -30 1 -80t5 -306q13 -544 -64 -755q-105 -298 -463 -259q-282 32 -353 275q-24 81 -29 135t-5 163t-5 203t-5 649q0 18 -16 18l-25 2q-23 0 -32 7t-11 28l-4 39q-2 25 3 29t28 10t115 -1t278 5h6q31 2 38 -6t3 -39l-2 -47q0 -18 -18 -19q-12 -4 -34 -4q-21 0 -26 -18
q-4 -63 1 -209t5 -174l6 -350l-4 -188q1 -158 17 -215q16 -56 38 -100q45 -89 154 -81q146 12 211 124t78 243q12 131 12 217v413q-4 143 -8 187t-3 58t0 30q-4 64 -30 63h-63q-23 2 -29 9t-6 28v51q0 17 20 21t156 4q134 0 158 2t24 -23z" />
    <glyph glyph-name="Udieresis" unicode="&#xdc;" horiz-adv-x="1198" 
d="M696 1696q-63 25 -88 86q-14 41 0 87t57 79q43 32 77 22t49 -15q14 -5 36 -24t26 -55q3 -36 4 -60t-28 -77q-20 -33 -59 -46t-74 3zM367 1696q-63 25 -88 86q-14 41 0 87t57 79q43 32 77 22t48 -15t36 -24t26 -54q3 -37 4 -61t-27 -77q-20 -33 -59 -46t-74 3zM1128 1505
v-71q0 -12 -18 -13q-66 0 -77 -2t-20 -13t-7 -40q2 -30 1 -80t5 -306q13 -544 -64 -755q-105 -298 -463 -259q-282 32 -353 275q-24 81 -29 135t-5 163t-5 203t-5 649q0 18 -16 18l-25 2q-23 0 -32 7t-11 28l-4 39q-2 25 3 29t28 10t115 -1t278 5h6q31 2 38 -6t3 -39l-2 -47
q0 -18 -18 -19q-12 -4 -34 -4q-21 0 -26 -18q-4 -63 1 -209t5 -174l6 -350l-4 -188q1 -158 17 -215q16 -56 38 -100q45 -89 154 -81q146 12 211 124t78 243q12 131 12 217v413q-4 143 -8 187t-3 58t0 30q-4 64 -30 63h-63q-23 2 -29 9t-6 28v51q0 17 20 21t156 4
q134 0 158 2t24 -23z" />
    <glyph glyph-name="Yacute" unicode="&#xdd;" horiz-adv-x="1249" 
d="M856 1757l-22 -8q-121 -31 -310 -71t-200 -38t-14 6t-7 17l-14 47q-12 29 22 47q2 1 41 21q345 182 414 196l25 6q29 2 34 -26q4 -18 28 -80t26 -68q14 -37 -23 -49zM23 1530q448 0 477 -1t28 -24q4 -57 5 -79t-19 -27l-45 -2q-12 -1 -19 -13t-1 -24q96 -219 188 -422
q9 -18 27 -17t26 17q24 57 82 179t72 158t18 46t7 17q22 52 3 63q-7 5 -45 9q-39 5 -47 15t-8 68q-4 27 27 31l53 4l113 2l98 -2q92 0 98 -6t4 -21l-4 -61q-2 -23 -26 -23l-91 -6q-29 0 -48 -41q-96 -207 -151 -321q-55 -113 -95 -213t-39 -218q0 -407 4 -473q2 -31 69 -34
q31 0 35 -33q6 -36 6 -58t-11 -25q-26 -7 -79 -7q-14 -4 -79 -1q-66 3 -106 2t-214 5q-20 0 -22 28t-3 59q0 30 31 30h35q16 0 27 11q12 11 12 24t-1 249q-1 235 -4 259q-9 67 -155 405q-23 53 -33 78t-27 63q-18 38 -23 60t-25 61q-19 39 -23 51q-12 31 -41 29l-39 2
q-33 5 -36 30q-1 7 -5 31t-4 33q-4 31 23 33z" />
    <glyph glyph-name="Thorn" unicode="&#xde;" horiz-adv-x="991" 
d="M278 856q-14 -88 -6 -174t62 -150t136 -74q84 -10 150 36t96 164t4 237t-98 168t-146 33q-75 -16 -129 -84t-69 -156zM258 1144q0 -24 15 -32q15 -6 26 6q45 49 90 82q100 62 177 72t163 -23q170 -65 224 -249q54 -183 1 -388t-204 -282q-117 -59 -248 -29
q-90 20 -209 107q-11 8 -23 2t-10 -21q13 -260 2 -483q0 -23 -26 -23l-191 -4q-17 0 -23 3q-10 5 -10 43v18q-10 245 -10 1089l-2 598q0 20 13 34t32 11h16q12 4 27 0h2l96 -2q50 8 64 -7t16 -86t-2 -214q-4 -142 -5 -170t-1 -52z" />
    <glyph glyph-name="germandbls" unicode="&#xdf;" horiz-adv-x="1177" 
d="M535 -10l2 42q0 93 90 79q45 -6 59 -5q68 6 115 68q47 55 55 160q8 160 -72 287t-233 114q-19 -2 -27 23t6 84q6 23 33 22l49 6q100 14 149 123q48 109 47 203t-39 148q-37 54 -133 78t-181 -9q-37 -18 -47 -59q-2 -2 -2 -8q-21 -101 -14 -504q7 -402 9 -612
q3 -293 11 -358q9 -65 -6 -95q-13 -38 -103 -45q-90 -8 -122 1t-51 42t-17 69q6 110 6 248v418q0 78 1 362t-14 517q-2 33 -58 27t-62 26q-8 53 -11 80q0 51 308 51h104l135 -2q86 -2 136 -5q50 -4 120 -24t132 -64t108 -124q45 -80 51 -170q12 -186 -115 -324
q-55 -59 -8 -88q115 -66 178 -250q2 -8 8 -24q41 -122 1 -246q-51 -162 -227 -251t-339 -36q-27 8 -32 25z" />
    <glyph glyph-name="agrave" unicode="&#xe0;" 
d="M352 1749q-12 6 -24 9q-12 4 -20 18t-3 30q51 129 56 153t34 21l25 -6q52 -14 252 -115t202 -102q35 -18 23 -47l-14 -47q-3 -16 -9 -19q-6 -2 -32 0t-198 38q-171 36 -292 67zM483 645q176 -31 160 39q-70 317 -74 338q-4 14 -19 15t-20 -13q-55 -203 -86 -319
q-4 -23 8 -41t31 -19zM713 2q-29 0 -40 23t0 49t45 31q35 5 46 18q10 13 5 40t-34 172t-53 164t-48 23t-60 0t-60 -1q-100 12 -135 -40q-23 -32 -59 -183q-37 -151 -40 -162t6 -23t25 -15h27q41 0 39 -46t-37 -50q-74 -6 -223 -2l-59 -4q-81 0 -52 74q14 34 40 32
q56 -6 74 46q12 32 124 443q213 779 219 798q6 18 -1 27q-8 9 -18 7t-32 -2q-18 -4 -24 20q-6 25 -3 53q4 28 29 28q164 14 401 2q13 0 25 -12t12 -27v-25q2 -20 -11 -32t-34 -13h-2q-13 2 -25 -10t-8 -29q47 -201 158 -599q111 -399 135 -503q23 -104 29 -118t8 -21
q10 -27 37 -26l35 2q20 0 28 -31q14 -55 -37 -72q-27 -8 -69 -8l-166 8q-215 -6 -217 -6z" />
    <glyph glyph-name="aacute" unicode="&#xe1;" 
d="M324 1663l-17 47q-12 29 25 47q2 0 89 46q297 156 363 171l25 6q31 2 37 -26t53 -148q14 -37 -22 -49q-30 -15 -258 -63t-257 -52t-32 3q-4 6 -6 18zM483 645q176 -31 160 39q-70 317 -74 338q-4 14 -19 15t-20 -13q-55 -203 -86 -319q-4 -23 8 -41t31 -19zM713 2
q-29 0 -40 23t0 49t45 31q35 5 46 18q10 13 5 40t-34 172t-53 164t-48 23t-60 0t-60 -1q-100 12 -135 -40q-23 -32 -59 -183q-37 -151 -40 -162t6 -23t25 -15h27q41 0 39 -46t-37 -50q-74 -6 -223 -2l-59 -4q-81 0 -52 74q14 34 40 32q56 -6 74 46q12 32 124 443
q213 779 219 798q6 18 -1 27q-8 9 -18 7t-32 -2q-18 -4 -24 20q-6 25 -3 53q4 28 29 28q164 14 401 2q13 0 25 -12t12 -27v-25q2 -20 -11 -32t-34 -13h-2q-13 2 -25 -10t-8 -29q47 -201 158 -599q111 -399 135 -503q23 -104 29 -118t8 -21q10 -27 37 -26l35 2q20 0 28 -31
q14 -55 -37 -72q-27 -8 -69 -8l-166 8q-215 -6 -217 -6z" />
    <glyph glyph-name="acircumflex" unicode="&#xe2;" 
d="M571 2034l31 14q8 0 14 -6q56 -26 287 -283l19 -20q20 -25 6 -43l-25 -31q-11 -18 -23 -12q-62 32 -239 145q-39 23 -76 0q-162 -102 -231 -141q-21 -10 -31 8l-24 31q-16 18 4 43l18 20q90 100 146 156l83 83q27 26 41 36zM483 645q176 -31 160 39q-70 317 -74 338
q-4 14 -19 15t-20 -13q-55 -203 -86 -319q-4 -23 8 -41t31 -19zM713 2q-29 0 -40 23t0 49t45 31q35 5 46 18q10 13 5 40t-34 172t-53 164t-48 23t-60 0t-60 -1q-100 12 -135 -40q-23 -32 -59 -183q-37 -151 -40 -162t6 -23t25 -15h27q41 0 39 -46t-37 -50q-74 -6 -223 -2
l-59 -4q-81 0 -52 74q14 34 40 32q56 -6 74 46q12 32 124 443q213 779 219 798q6 18 -1 27q-8 9 -18 7t-32 -2q-18 -4 -24 20q-6 25 -3 53q4 28 29 28q164 14 401 2q13 0 25 -12t12 -27v-25q2 -20 -11 -32t-34 -13h-2q-13 2 -25 -10t-8 -29q47 -201 158 -599
q111 -399 135 -503q23 -104 29 -118t8 -21q10 -27 37 -26l35 2q20 0 28 -31q14 -55 -37 -72q-27 -8 -69 -8l-166 8q-215 -6 -217 -6z" />
    <glyph glyph-name="atilde" unicode="&#xe3;" 
d="M868 1921h19q25 0 40 -16t15 -39l-2 -4q-7 -187 -168 -209q-25 -4 -35 -4q-61 0 -110 28t-99 119q-28 43 -58 34t-41 -48t-60 -43h-2l-23 -2q-6 -2 -18 -2q-43 -6 -56 34q-22 74 24 142t120 90q104 33 184 -31q28 -23 56 -71t46 -65t48 -14t30 19q4 8 0 14q0 43 31 60
q12 8 59 8zM483 645q176 -31 160 39q-70 317 -74 338q-4 14 -19 15t-20 -13q-55 -203 -86 -319q-4 -23 8 -41t31 -19zM713 2q-29 0 -40 23t0 49t45 31q35 5 46 18q10 13 5 40t-34 172t-53 164t-48 23t-60 0t-60 -1q-100 12 -135 -40q-23 -32 -59 -183q-37 -151 -40 -162
t6 -23t25 -15h27q41 0 39 -46t-37 -50q-74 -6 -223 -2l-59 -4q-81 0 -52 74q14 34 40 32q56 -6 74 46q12 32 124 443q213 779 219 798q6 18 -1 27q-8 9 -18 7t-32 -2q-18 -4 -24 20q-6 25 -3 53q4 28 29 28q164 14 401 2q13 0 25 -12t12 -27v-25q2 -20 -11 -32t-34 -13h-2
q-13 2 -25 -10t-8 -29q47 -201 158 -599q111 -399 135 -503q23 -104 29 -118t8 -21q10 -27 37 -26l35 2q20 0 28 -31q14 -55 -37 -72q-27 -8 -69 -8l-166 8q-215 -6 -217 -6z" />
    <glyph glyph-name="adieresis" unicode="&#xe4;" 
d="M735 1696q-63 25 -88 86q-16 39 -2 86t58 80t81 20q86 -25 103 -72q18 -92 -10 -141q-29 -49 -68 -62t-74 3zM406 1696q-63 25 -89 86q-16 39 -2 86q15 47 59 80t81 20q86 -25 100 -72q25 -83 -6 -137q-30 -53 -69 -66t-74 3zM483 645q176 -31 160 39q-70 317 -74 338
q-4 14 -19 15t-20 -13q-55 -203 -86 -319q-4 -23 8 -41t31 -19zM713 2q-29 0 -40 23t0 49t45 31q35 5 46 18q10 13 5 40t-34 172t-53 164t-48 23t-60 0t-60 -1q-100 12 -135 -40q-23 -32 -59 -183q-37 -151 -40 -162t6 -23t25 -15h27q41 0 39 -46t-37 -50q-74 -6 -223 -2
l-59 -4q-81 0 -52 74q14 34 40 32q56 -6 74 46q12 32 124 443q213 779 219 798q6 18 -1 27q-8 9 -18 7t-32 -2q-18 -4 -24 20q-6 25 -3 53q4 28 29 28q164 14 401 2q13 0 25 -12t12 -27v-25q2 -20 -11 -32t-34 -13h-2q-13 2 -25 -10t-8 -29q47 -201 158 -599
q111 -399 135 -503q23 -104 29 -118t8 -21q10 -27 37 -26l35 2q20 0 28 -31q14 -55 -37 -72q-27 -8 -69 -8l-166 8q-215 -6 -217 -6z" />
    <glyph glyph-name="aring" unicode="&#xe5;" 
d="M655 1826q0 14 -5 30q-5 18 -32 24t-45 -8q-39 -27 -20 -62q10 -22 41 -34t46 12t15 38zM555 1653q-88 35 -125 114q-23 51 -1 113q21 62 83 104q62 43 110 31t68 -20q78 -31 88 -102q2 -13 3 -30t3 -26q2 -61 -32 -117t-90 -71q-56 -16 -107 4zM483 645q176 -31 160 39
q-70 317 -74 338q-4 14 -19 15t-20 -13q-55 -203 -86 -319q-4 -23 8 -41t31 -19zM713 2q-29 0 -40 23t0 49t45 31q35 5 46 18q10 13 5 40t-34 172t-53 164t-48 23t-60 0t-60 -1q-100 12 -135 -40q-23 -32 -59 -183q-37 -151 -40 -162t6 -23t25 -15h27q41 0 39 -46t-37 -50
q-74 -6 -223 -2l-59 -4q-81 0 -52 74q14 34 40 32q56 -6 74 46q12 32 124 443q213 779 219 798q6 18 -1 27q-8 9 -18 7t-32 -2q-18 -4 -24 20q-6 25 -3 53q4 28 29 28q164 14 401 2q13 0 25 -12t12 -27v-25q2 -20 -11 -32t-34 -13h-2q-13 2 -25 -10t-8 -29q47 -201 158 -599
q111 -399 135 -503q23 -104 29 -118t8 -21q10 -27 37 -26l35 2q20 0 28 -31q14 -55 -37 -72q-27 -8 -69 -8l-166 8q-215 -6 -217 -6z" />
    <glyph glyph-name="ae" unicode="&#xe6;" horiz-adv-x="1576" 
d="M727 688q0 356 -6 658q0 31 -33 34h-18q-42 0 -54 -43q-79 -297 -88 -313q-55 -203 -86 -319q-4 -23 8 -40t31 -20q101 -20 205 -4q41 4 41 47zM1442 1532q25 0 35 -25q4 -10 14 -55t39 -98q10 -25 10 -31q0 -27 -38 -28t-74 29q-36 31 -52 40q-54 29 -142 31t-128 1
t-52 -7q-14 -6 -14 -31l-4 -115q-10 -367 -8 -391t8 -33q20 -23 102 2t119 88q18 33 44 36q49 6 47 -40q-4 -27 -12 -77t-12 -92q-5 -42 11 -118q9 -30 -17 -40t-40 16q-20 41 -29 61q-8 25 -32 31q-82 23 -152 16q-35 0 -35 -36q-8 -98 4 -492q4 -41 43 -41q186 6 211 7
t106 54q80 52 97 52t26 -14t4 -32t-9 -24t-34 -73t-61 -87q-8 -6 -43 -10l-637 -4h-98q-37 5 -37 59q-2 23 13 45t34 21h21q39 0 47 43l6 55q4 70 4 246q0 23 -15 38t-36 15l-152 -6q-113 17 -149 -37q-19 -28 -29 -84t-70 -256q-4 -14 6 -27t27 -16h27q41 0 39 -46t-37 -50
q-78 -6 -238 -2l-58 -4q-81 0 -52 74q14 36 40 32q26 -2 46 10t26 31q78 236 347 1203q3 14 -5 25t-22 11h-10q-27 2 -27 60q-16 62 13 78q15 8 26 8h88q70 2 143 0h371l379 4h37z" />
    <glyph glyph-name="ccedilla" unicode="&#xe7;" horiz-adv-x="1103" 
d="M535 -469h-11q-74 4 -104 41q-54 65 -25 129q21 43 61 40t52 -32t-6 -63q-6 -20 -4 -25q4 -4 18 -8q16 0 29 6q16 13 16 61t-26 70q-2 0 -3 2q-38 19 -32 51v13q2 18 1 40t13 36q14 13 37 10q45 -6 39 -74q40 -12 68 -45q63 -73 30 -156q-10 -33 -35 -55
q-41 -41 -118 -41zM991 1512v-60q0 -40 4 -82v-170l-6 -18q-10 -14 -49 -20q-93 -13 -109 34q-6 12 -14 45t-57 117q-48 84 -118 92t-110 -14q-39 -23 -73 -80q-121 -193 -111 -660q4 -170 39 -355t113 -263q130 -113 247 44q118 157 142 298q6 37 18 50t45 11q39 -1 43 -47
t7 -197q4 -151 4 -177t-10 -40q-10 -12 -51 -12q-40 0 -42 29l-2 20v25q-2 16 -13 21q-12 5 -20 -2l-64 -56q-117 -103 -289 -94q-171 10 -329 192q-127 147 -167 361t-2 421q37 207 127 367t230 237t296 27q63 -20 118 -69l62 -68q8 -10 20 -5t11 18q-9 114 13 138t56 13
t37 -31q4 -20 4 -40z" />
    <glyph glyph-name="egrave" unicode="&#xe8;" horiz-adv-x="1040" 
d="M219 1749q-12 6 -24 9q-11 4 -19 18t-4 30q51 129 56 153t34 21l25 -6q63 -16 257 -116q195 -100 197 -101q35 -18 23 -47l-14 -47q-4 -16 -10 -19q-6 -2 -32 0q-28 2 -199 38t-290 67zM840 1532q25 0 34 -25q4 -10 12 -45t30 -81t23 -57t-9 -19q-28 -22 -71 0
q-21 10 -45 30t-40 29q-72 41 -268 31q-40 0 -54 -6t-14 -39q0 -34 -7 -254t-5 -244t8 -33q20 -23 104 2t117 88q18 33 44 35q54 4 46 -39q-12 -94 -20 -153t8 -134q7 -30 -17 -40t-40 18t-26 56t-34 34q-84 23 -153 16q-35 0 -35 -36q-8 -98 4 -492q4 -41 43 -41
q186 6 211 7t68 32q117 73 129 74q49 0 35 -47q0 -9 -6 -19t-36 -77t-61 -87q-6 -4 -43 -10l-637 -4h-98q-31 4 -35 35l-2 24q-2 23 13 45t34 21h21q43 0 47 43l6 55q8 141 5 593q-4 530 -10 546q-7 16 -29 16l-28 2q-35 2 -26 86q2 8 2 25q4 35 37 35h354l301 4h113z" />
    <glyph glyph-name="eacute" unicode="&#xe9;" horiz-adv-x="1040" 
d="M743 1757l-24 -8q-119 -31 -290 -67t-200 -40t-33 3q-4 6 -8 18l-14 47q-12 29 23 47q3 1 100 51q299 155 354 166l25 6q29 2 37 -26q6 -29 53 -148q12 -37 -23 -49zM840 1532q25 0 34 -25q4 -10 12 -45t30 -81t23 -57t-9 -19q-28 -22 -71 0q-21 10 -45 30t-40 29
q-72 41 -268 31q-40 0 -54 -6t-14 -39q0 -34 -7 -254t-5 -244t8 -33q20 -23 104 2t117 88q18 33 44 35q54 4 46 -39q-12 -94 -20 -153t8 -134q7 -30 -17 -40t-40 18t-26 56t-34 34q-84 23 -153 16q-35 0 -35 -36q-8 -98 4 -492q4 -41 43 -41q186 6 211 7t68 32
q117 73 129 74q49 0 35 -47q0 -9 -6 -19t-36 -77t-61 -87q-6 -4 -43 -10l-637 -4h-98q-31 4 -35 35l-2 24q-2 23 13 45t34 21h21q43 0 47 43l6 55q8 141 5 593q-4 530 -10 546q-7 16 -29 16l-28 2q-35 2 -26 86q2 8 2 25q4 35 37 35h354l301 4h113z" />
    <glyph glyph-name="ecircumflex" unicode="&#xea;" horiz-adv-x="1040" 
d="M438 2034l31 14q8 0 14 -6q56 -26 287 -283l18 -20q20 -25 7 -43l-27 -31q-10 -18 -31 -8q-78 43 -229 141q-39 23 -76 0q-162 -102 -231 -141q-21 -10 -31 8l-25 31q-16 18 5 43l18 20q18 20 45 49t60 65q125 133 165 161zM840 1532q25 0 34 -25q4 -10 12 -45t30 -81
t23 -57t-9 -19q-28 -22 -71 0q-21 10 -45 30t-40 29q-72 41 -268 31q-40 0 -54 -6t-14 -39q0 -34 -7 -254t-5 -244t8 -33q20 -23 104 2t117 88q18 33 44 35q54 4 46 -39q-12 -94 -20 -153t8 -134q7 -30 -17 -40t-40 18t-26 56t-34 34q-84 23 -153 16q-35 0 -35 -36
q-8 -98 4 -492q4 -41 43 -41q186 6 211 7t68 32q117 73 129 74q49 0 35 -47q0 -9 -6 -19t-36 -77t-61 -87q-6 -4 -43 -10l-637 -4h-98q-31 4 -35 35l-2 24q-2 23 13 45t34 21h21q43 0 47 43l6 55q8 141 5 593q-4 530 -10 546q-7 16 -29 16l-28 2q-35 2 -26 86q2 8 2 25
q4 35 37 35h354l301 4h113z" />
    <glyph glyph-name="edieresis" unicode="&#xeb;" horiz-adv-x="1040" 
d="M602 1696q-63 25 -88 86q-16 39 -2 86t58 80t81 20q86 -25 101 -72q25 -84 -6 -137t-70 -66t-74 3zM270 1696q-62 27 -82 76t-6 96t58 80t82 20q86 -25 100 -72q25 -84 -6 -137q-59 -101 -146 -63zM840 1532q25 0 34 -25q4 -10 12 -45t30 -81t23 -57t-9 -19
q-28 -22 -71 0q-21 10 -45 30t-40 29q-72 41 -268 31q-40 0 -54 -6t-14 -39q0 -34 -7 -254t-5 -244t8 -33q20 -23 104 2t117 88q18 33 44 35q54 4 46 -39q-12 -94 -20 -153t8 -134q7 -30 -17 -40t-40 18t-26 56t-34 34q-84 23 -153 16q-35 0 -35 -36q-8 -98 4 -492
q4 -41 43 -41q186 6 211 7t68 32q117 73 129 74q49 0 35 -47q0 -9 -6 -19t-36 -77t-61 -87q-6 -4 -43 -10l-637 -4h-98q-31 4 -35 35l-2 24q-2 23 13 45t34 21h21q43 0 47 43l6 55q8 141 5 593q-4 530 -10 546q-7 16 -29 16l-28 2q-35 2 -26 86q2 8 2 25q4 35 37 35h354
l301 4h113z" />
    <glyph glyph-name="igrave" unicode="&#xec;" horiz-adv-x="559" 
d="M508 1757q37 -20 24 -47l-16 -47q-2 -16 -11 -22t-261 48q-251 53 -281 68q-37 12 -22 49q1 6 25 68t29 85q5 25 29 21q76 -11 411 -186q71 -37 73 -37zM37 1407q-29 0 -35 37v41q0 29 27 35q72 10 219 10t184 -2t35 -37q0 -61 -6 -67t-29 -7q-52 0 -57 -45v-2l-6 -1223
q0 -22 27 -22l28 -2q29 -4 39 -15t10 -52t-29 -51t-53 -8q-25 3 -37 3t-80 -2t-93 0t-55 0t-52 -4t-41 0q-33 4 -33 45q0 86 55 82q16 -2 32 13q15 15 15 46l-10 1198q0 29 -33 29h-22z" />
    <glyph glyph-name="iacute" unicode="&#xed;" horiz-adv-x="559" 
d="M510 1757l-23 -8q-121 -31 -309 -71t-200 -38q-13 2 -16 6t-5 17l-16 47q-10 29 24 47q2 0 89 46q297 156 366 171l24 6q29 2 34 -21q4 -23 28 -85t26 -68q14 -37 -22 -49zM37 1407q-29 0 -35 37v41q0 29 27 35q72 10 219 10t184 -2t35 -37q0 -61 -6 -67t-29 -7
q-52 0 -57 -45v-2l-6 -1223q0 -22 27 -22l28 -2q29 -4 39 -15t10 -52t-29 -51t-53 -8q-25 3 -37 3t-80 -2t-93 0t-55 0t-52 -4t-41 0q-33 4 -33 45q0 86 55 82q16 -2 32 13q15 15 15 46l-10 1198q0 29 -33 29h-22z" />
    <glyph glyph-name="icircumflex" unicode="&#xee;" horiz-adv-x="559" 
d="M238 2048q8 0 14 -6q53 -27 243 -236q58 -63 60 -67q23 -25 6 -43l-24 -31q-10 -18 -31 -8q-70 39 -232 141q-38 25 -80 -3q-42 -27 -94 -59t-91 -55q-38 -23 -40 -24q-23 -10 -32 8l-25 31q-16 18 6 43l19 20q18 20 45 49q181 195 225 226l16 8q7 6 15 6zM37 1407
q-29 0 -35 37v41q0 29 27 35q72 10 219 10t184 -2t35 -37q0 -61 -6 -67t-29 -7q-52 0 -57 -45v-2l-6 -1223q0 -22 27 -22l28 -2q29 -4 39 -15t10 -52t-29 -51t-53 -8q-25 3 -37 3t-80 -2t-93 0t-55 0t-52 -4t-41 0q-33 4 -33 45q0 86 55 82q16 -2 32 13q15 15 15 46
l-10 1198q0 29 -33 29h-22z" />
    <glyph glyph-name="idieresis" unicode="&#xef;" horiz-adv-x="559" 
d="M281 1869q14 46 57 79t89 19q80 -24 93 -69q23 -80 -18 -159q-20 -33 -60 -46t-73 3q-63 25 -88 86q-14 41 0 87zM172 1739q-20 -33 -59 -46t-74 3q-63 25 -88 86q-14 41 0 87t57 79t82 20q84 -25 100 -72q26 -77 -18 -157zM473 66q0 -78 -88 -68q-19 2 -31 2t-80 -2
t-93 0t-54 0t-53 -4t-41 0q-33 4 -33 45q0 86 55 82q16 -2 32 13q15 15 15 46l-10 1198q0 29 -31 29h-24q-27 0 -31 25q-2 2 -2 6t-2 6v41q0 29 27 35q72 10 219 10t184 -2t35 -37q0 -61 -6 -67t-22 -7q-17 0 -23 -2h-2q-35 -6 -39 -43v-2l-6 -1223q0 -22 27 -22l28 -2
q29 -4 39 -15q10 -12 10 -42z" />
    <glyph glyph-name="eth" unicode="&#xf0;" horiz-adv-x="1232" 
d="M469 1300q0 -29 -4 -90v-71l-4 -305q0 -23 15 -38t38 -16h115q12 0 20 2q31 6 37 -37q2 -18 0 -58t1 -58q3 -19 -2 -25t-23 -6h-150q-20 0 -36 -14t-15 -37v-168q0 -43 -4 -129l-2 -61v-42q4 -29 24 -47t49 -16q129 10 213 82q149 128 175 390q12 120 -5 323
q-27 360 -223 534q-55 49 -138 45t-81 -43v-115zM309 -31l-169 6q-55 0 -60 33v21q-2 19 12 35t34 17t36 15q14 14 14 35v27l2 202q0 41 -6 201q0 15 -11 25t-34 7t-66 -5h-24q-14 0 -26 11q-11 11 -11 23t2 64q2 53 0 57q-3 39 51 39q31 2 74 2t43 35q0 154 2 232l-6 362
q0 9 -7 17t-26 8h-49q-39 6 -41 39q-4 29 -4 43q0 31 31 36q84 14 305 22t334 -26q215 -63 347 -290q132 -226 142 -482t-121 -483q-4 -10 -10 -16q-71 -111 -183 -189t-234 -104t-341 -19z" />
    <glyph glyph-name="ntilde" unicode="&#xf1;" horiz-adv-x="1216" 
d="M745 1853q0 43 31 60q12 8 60 8h18q25 0 40 -16t13 -39v-4q-7 -187 -168 -209q-25 -4 -34 -4q-93 0 -147 54q-15 15 -22 27t-11 15q-4 4 -17 27l-12 24q-27 43 -58 35t-42 -48t-60 -44h-2l-23 -2q-6 -2 -20 -2q-41 -6 -53 34q-23 74 23 142t120 90q104 33 184 -31
q27 -23 56 -71t47 -65t46 -14t31 19v14zM1044 1389v-17q-6 -270 -6 -1010v-4q2 -8 2 -74t2 -126v-23q0 -23 23 -26l33 -3q30 0 22 -75q-2 -25 -26 -25h-136l-141 2q-6 2 -33 2q-31 4 -30 35q0 61 26 61h23q8 0 13 10t1 19l-512 713q-10 14 -26 9t-17 -21l4 -691
q0 -27 27 -30q51 0 63 -4q18 0 19 -21v-59q-2 -25 -27 -25h-214q-90 0 -105 4q-29 6 -29 34t2 36q6 33 59 33h31q25 2 30 10t7 33l4 170l-4 168v870l-2 31q0 23 -28 19t-44 -5q-37 0 -39 33q-8 52 3 65q11 12 28 13q119 4 330 8q31 0 35 -33v-68q0 -16 -25 -16h-35
q-12 -2 -18 -12t0 -21l538 -751q8 -14 25 -10q16 5 16 22q6 401 7 515t-9 167q-10 54 -10 57q-8 33 -41 29q-12 -2 -35 -2q-27 4 -30 31q-2 8 -3 38t5 36q6 7 16 8h6q58 4 139 4l86 8q45 0 66 -8q31 -6 27 -39q0 -43 2 -47q2 -25 -23 -25l-47 -2q-25 0 -25 -20z" />
    <glyph glyph-name="ograve" unicode="&#xf2;" horiz-adv-x="1032" 
d="M279 1749l-23 8q-37 12 -23 49q2 6 26 68t29 85q5 24 34 21l24 -6q65 -17 259 -116q194 -100 196 -101q35 -18 24 -47l-16 -47q-2 -16 -8 -19q-6 -2 -33 0t-198 38t-291 67zM778 453q0 22 2 28q39 438 -45 781q-29 106 -67 149q-66 73 -136 53t-122 -80t-76 -131
q-92 -272 -58 -635q27 -260 65 -370q37 -110 97 -164q60 -55 117 -61t102 37q70 69 107 287q14 84 14 106zM1018 1165q45 -151 49 -314t-12 -280q-37 -315 -207 -483q-80 -80 -193 -113q-179 -51 -333 47t-232 275q-131 305 -74 666q47 313 236 489q114 104 268 116t279 -79
q154 -106 219 -324z" />
    <glyph glyph-name="oacute" unicode="&#xf3;" horiz-adv-x="1032" 
d="M250 1663l-17 47q-10 29 25 47q2 0 89 46t208 104q120 59 142 64q21 5 45 8t29 -20t29 -85t25 -68q14 -37 -22 -49q-30 -15 -276 -67t-257 -50q-12 2 -15 6t-5 17zM778 453q0 22 2 28q39 438 -45 781q-29 106 -67 149q-66 73 -136 53t-122 -80t-76 -131
q-92 -272 -58 -635q27 -260 65 -370q37 -110 97 -164q60 -55 117 -61t102 37q70 69 107 287q14 84 14 106zM1018 1165q45 -151 49 -314t-12 -280q-37 -315 -207 -483q-80 -80 -193 -113q-179 -51 -333 47t-232 275q-131 305 -74 666q47 313 236 489q114 104 268 116t279 -79
q154 -106 219 -324z" />
    <glyph glyph-name="ocircumflex" unicode="&#xf4;" horiz-adv-x="1032" 
d="M312 1638q-72 0 -92 3t-25 24q-2 13 11 31t42 59l117 160q4 6 53 72q24 33 56 35t89 1q49 -4 72 -26t188 -254q82 -103 29 -107q-24 -4 -92 -4t-95 33q-26 33 -72 102t-54 74q-8 4 -19 -1t-22 -24q-10 -18 -16 -29t-41 -75q-34 -64 -45 -68q-11 -6 -84 -6zM778 453
q0 22 2 28q39 438 -45 781q-29 106 -67 149q-66 73 -136 53t-122 -80t-76 -131q-92 -272 -58 -635q27 -260 65 -370q37 -110 97 -164q60 -55 117 -61t102 37q70 69 107 287q14 84 14 106zM1018 1165q45 -151 49 -314t-12 -280q-37 -315 -207 -483q-80 -80 -193 -113
q-179 -51 -333 47t-232 275q-131 305 -74 666q47 313 236 489q114 104 268 116t279 -79q154 -106 219 -324z" />
    <glyph glyph-name="otilde" unicode="&#xf5;" horiz-adv-x="1032" 
d="M711 1853q0 45 28 60q14 8 62 8h16q27 0 43 -16t12 -39v-4q-7 -187 -167 -209q-25 -4 -35 -4q-66 0 -115 30q-45 25 -82 93l-12 24q-29 43 -59 35t-41 -47t-60 -45h-2l-23 -2q-8 -2 -20 -2q-41 -6 -55 34q-20 74 25 142q46 68 120 90q106 33 182 -31q18 -14 62 -76
q25 -43 43 -60t46 -14t32 19v14zM778 453q0 22 2 28q39 438 -45 781q-29 106 -67 149q-66 73 -136 53t-122 -80t-76 -131q-92 -272 -58 -635q27 -260 65 -370q37 -110 97 -164q60 -55 117 -61t102 37q70 69 107 287q14 84 14 106zM1018 1165q45 -151 49 -314t-12 -280
q-37 -315 -207 -483q-80 -80 -193 -113q-179 -51 -333 47t-232 275q-131 305 -74 666q47 313 236 489q114 104 268 116t279 -79q154 -106 219 -324z" />
    <glyph glyph-name="odieresis" unicode="&#xf6;" horiz-adv-x="1032" 
d="M666 1696q-62 25 -82 76t-6 97t57 79t82 20q86 -25 100 -72q25 -75 -18 -157q-20 -33 -59 -46t-74 3zM336 1696q-63 25 -88 86q-14 41 0 87t57 79q43 32 77 22t48 -15t35 -23t26 -54q5 -37 7 -43q0 -43 -29 -96q-20 -33 -59 -46t-74 3zM778 453q0 22 2 28q39 438 -45 781
q-29 106 -67 149q-66 73 -136 53t-122 -80t-76 -131q-92 -272 -58 -635q27 -260 65 -370q37 -110 97 -164q60 -55 117 -61t102 37q70 69 107 287q14 84 14 106zM1018 1165q45 -151 49 -314t-12 -280q-37 -315 -207 -483q-80 -80 -193 -113q-179 -51 -333 47t-232 275
q-131 305 -74 666q47 313 236 489q114 104 268 116t279 -79q154 -106 219 -324z" />
    <glyph glyph-name="divide" unicode="&#xf7;" horiz-adv-x="847" 
d="M481 416q0 -63 -56 -89t-112 11q-27 18 -26 68q-10 94 90 120q41 10 72 -12t32 -61v-37zM481 952q0 -66 -51 -88q-66 -27 -117 10q-27 18 -26 68q-10 94 90 121q39 9 69 -13t35 -63v-35zM748 598q-12 0 -54 1t-98 -1t-197 2t-354 -12h-25q-14 0 -25 11t-11 23t2 64
q2 53 0 57q-2 29 29 36t117 4q85 -3 106 -3h469q14 0 20 2q35 6 37 -37q2 -18 1 -58t1 -58q2 -19 -2 -25t-16 -6z" />
    <glyph glyph-name="oslash" unicode="&#xf8;" horiz-adv-x="1032" 
d="M774 442l2 37q33 315 -2 596q-2 13 -17 15t-20 -13l-280 -973q-9 -39 21 -58t78 -25q48 -5 94 39q96 94 124 382zM317 387q14 0 19 14q114 383 278 1002q6 25 -10 45t-43 20q-70 -2 -133 -70t-90 -143q-94 -274 -64 -634q14 -156 25 -218q4 -16 18 -16zM328 -131v-2
q-10 2 -60 5t-59 18q-8 14 -5 35t29 122q6 35 -16 57q-86 88 -131 199q-129 301 -68 664q51 313 242 489q84 74 186 98q45 12 136 9q68 -14 84 18q4 7 10 21t12 26q10 19 74 19l82 4q12 0 28 -6q16 -5 20 -13t-3 -26l-33 -117q-10 -33 14 -57q191 -194 199 -621
q0 -509 -227 -725q-66 -61 -160 -101t-211 -20q-51 6 -65 -41q-8 -31 -22 -42t-46 -13h-10z" />
    <glyph glyph-name="ugrave" unicode="&#xf9;" horiz-adv-x="1198" 
d="M291 1757q-37 12 -23 49q47 119 54 148q6 30 29 26q58 -9 173 -66t202 -101t117 -60t17 -43l-16 -47q-2 -16 -7 -19q-13 -8 -264 45t-282 68zM1128 1505v-71q0 -12 -18 -13q-66 0 -77 -2t-20 -13t-7 -40q2 -30 1 -80t5 -306q13 -544 -64 -755q-105 -298 -463 -259
q-282 32 -353 275q-24 81 -29 135t-5 163t-5 203t-5 649q0 18 -16 18l-25 2q-23 0 -32 7t-11 28l-4 39q-2 25 3 29t28 10t115 -1t278 5h6q31 2 38 -6t3 -39l-2 -47q0 -18 -18 -19q-12 -4 -34 -4q-21 0 -26 -18q-4 -63 1 -209t5 -174l6 -350l-4 -188q1 -158 17 -215
q16 -56 38 -100q45 -89 154 -81q146 12 211 124t78 243q12 131 12 217v413q-4 143 -8 187t-3 58t0 30q-4 64 -30 63h-63q-23 2 -29 9t-6 28v51q0 17 20 21t156 4q134 0 158 2t24 -23z" />
    <glyph glyph-name="uacute" unicode="&#xfa;" horiz-adv-x="1198" 
d="M838 1757l-23 -8q-121 -31 -292 -67t-199 -40t-31 3q-4 6 -8 18l-15 47q-12 29 23 47q2 0 89 46q297 156 366 171l24 6q29 2 34 -21t29 -85t25 -68q14 -37 -22 -49zM1128 1505v-71q0 -12 -18 -13q-66 0 -77 -2t-20 -13t-7 -40q2 -30 1 -80t5 -306q13 -544 -64 -755
q-105 -298 -463 -259q-282 32 -353 275q-24 81 -29 135t-5 163t-5 203t-5 649q0 18 -16 18l-25 2q-23 0 -32 7t-11 28l-4 39q-2 25 3 29t28 10t115 -1t278 5h6q31 2 38 -6t3 -39l-2 -47q0 -18 -18 -19q-12 -4 -34 -4q-21 0 -26 -18q-4 -63 1 -209t5 -174l6 -350l-4 -188
q1 -158 17 -215q16 -56 38 -100q45 -89 154 -81q146 12 211 124t78 243q12 131 12 217v413q-4 143 -8 187t-3 58t0 30q-4 64 -30 63h-63q-23 2 -29 9t-6 28v51q0 17 20 21t156 4q134 0 158 2t24 -23z" />
    <glyph glyph-name="ucircumflex" unicode="&#xfb;" horiz-adv-x="1198" 
d="M565 2048q8 0 15 -6q57 -28 286 -283l19 -20q18 -27 4 -43l-25 -31q-10 -18 -30 -8q-70 39 -232 141q-39 25 -81 -3t-132 -82t-92 -56q-21 -10 -33 8l-24 31q-16 18 6 43l18 20q228 254 287 283q6 6 14 6zM1128 1505v-71q0 -12 -18 -13q-66 0 -77 -2t-20 -13t-7 -40
q2 -30 1 -80t5 -306q13 -544 -64 -755q-105 -298 -463 -259q-282 32 -353 275q-24 81 -29 135t-5 163t-5 203t-5 649q0 18 -16 18l-25 2q-23 0 -32 7t-11 28l-4 39q-2 25 3 29t28 10t115 -1t278 5h6q31 2 38 -6t3 -39l-2 -47q0 -18 -18 -19q-12 -4 -34 -4q-21 0 -26 -18
q-4 -63 1 -209t5 -174l6 -350l-4 -188q1 -158 17 -215q16 -56 38 -100q45 -89 154 -81q146 12 211 124t78 243q12 131 12 217v413q-4 143 -8 187t-3 58t0 30q-4 64 -30 63h-63q-23 2 -29 9t-6 28v51q0 17 20 21t156 4q134 0 158 2t24 -23z" />
    <glyph glyph-name="udieresis" unicode="&#xfc;" horiz-adv-x="1198" 
d="M696 1696q-63 25 -88 86q-14 41 0 87t57 79q43 32 77 22t49 -15q14 -5 36 -24t26 -55q3 -36 4 -60t-28 -77q-20 -33 -59 -46t-74 3zM367 1696q-63 25 -88 86q-14 41 0 87t57 79q43 32 77 22t48 -15t36 -24t26 -54q3 -37 4 -61t-27 -77q-20 -33 -59 -46t-74 3zM1128 1505
v-71q0 -12 -18 -13q-66 0 -77 -2t-20 -13t-7 -40q2 -30 1 -80t5 -306q13 -544 -64 -755q-105 -298 -463 -259q-282 32 -353 275q-24 81 -29 135t-5 163t-5 203t-5 649q0 18 -16 18l-25 2q-23 0 -32 7t-11 28l-4 39q-2 25 3 29t28 10t115 -1t278 5h6q31 2 38 -6t3 -39l-2 -47
q0 -18 -18 -19q-12 -4 -34 -4q-21 0 -26 -18q-4 -63 1 -209t5 -174l6 -350l-4 -188q1 -158 17 -215q16 -56 38 -100q45 -89 154 -81q146 12 211 124t78 243q12 131 12 217v413q-4 143 -8 187t-3 58t0 30q-4 64 -30 63h-63q-23 2 -29 9t-6 28v51q0 17 20 21t156 4
q134 0 158 2t24 -23z" />
    <glyph glyph-name="yacute" unicode="&#xfd;" horiz-adv-x="1249" 
d="M856 1757l-22 -8q-121 -31 -310 -71t-200 -38t-14 6t-7 17l-14 47q-12 29 22 47q2 1 41 21q345 182 414 196l25 6q29 2 34 -26q4 -18 28 -80t26 -68q14 -37 -23 -49zM23 1530q448 0 477 -1t28 -24q4 -57 5 -79t-19 -27l-45 -2q-12 -1 -19 -13t-1 -24q96 -219 188 -422
q9 -18 27 -17t26 17q24 57 82 179t72 158t18 46t7 17q22 52 3 63q-7 5 -45 9q-39 5 -47 15t-8 68q-4 27 27 31l53 4l113 2l98 -2q92 0 98 -6t4 -21l-4 -61q-2 -23 -26 -23l-91 -6q-29 0 -48 -41q-96 -207 -151 -321q-55 -113 -95 -213t-39 -218q0 -407 4 -473q2 -31 69 -34
q31 0 35 -33q6 -36 6 -58t-11 -25q-26 -7 -79 -7q-14 -4 -79 -1q-66 3 -106 2t-214 5q-20 0 -22 28t-3 59q0 30 31 30h35q16 0 27 11q12 11 12 24t-1 249q-1 235 -4 259q-9 67 -155 405q-23 53 -33 78t-27 63q-18 38 -23 60t-25 61q-19 39 -23 51q-12 31 -41 29l-39 2
q-33 5 -36 30q-1 7 -5 31t-4 33q-4 31 23 33z" />
    <glyph glyph-name="thorn" unicode="&#xfe;" horiz-adv-x="991" 
d="M278 856q-14 -88 -6 -174t62 -150t136 -74q84 -10 150 36t96 164t4 237t-98 168t-146 33q-75 -16 -129 -84t-69 -156zM258 1144q0 -24 15 -32q15 -6 26 6q45 49 90 82q100 62 177 72t163 -23q170 -65 224 -249q54 -183 1 -388t-204 -282q-117 -59 -248 -29
q-90 20 -209 107q-11 8 -23 2t-10 -21q13 -260 2 -483q0 -23 -26 -23l-191 -4q-17 0 -23 3q-10 5 -10 43v18q-10 245 -10 1089l-2 598q0 20 13 34t32 11h16q12 4 27 0h2l96 -2q50 8 64 -7t16 -86t-2 -214q-4 -142 -5 -170t-1 -52z" />
    <glyph glyph-name="ydieresis" unicode="&#xff;" horiz-adv-x="1249" 
d="M731 1696q-63 25 -88 86q-14 41 0 87t57 79q43 32 77 22t48 -15t37 -24t26 -54q3 -37 4 -61t-28 -77q-20 -33 -59 -46t-74 3zM401 1696q-63 25 -88 86q-14 41 0 87q13 46 57 79t83 20q84 -25 100 -72q25 -75 -18 -157q-19 -33 -59 -46t-75 3zM23 1530q448 0 477 -1
t28 -24q4 -57 5 -79t-19 -27l-45 -2q-12 -1 -19 -13t-1 -24q96 -219 188 -422q9 -18 27 -17t26 17q24 57 82 179t72 158t18 46t7 17q22 52 3 63q-7 5 -45 9q-39 5 -47 15t-8 68q-4 27 27 31l53 4l113 2l98 -2q92 0 98 -6t4 -21l-4 -61q-2 -23 -26 -23l-91 -6q-29 0 -48 -41
q-96 -207 -151 -321q-55 -113 -95 -213t-39 -218q0 -407 4 -473q2 -31 69 -34q31 0 35 -33q6 -36 6 -58t-11 -25q-26 -7 -79 -7q-14 -4 -79 -1q-66 3 -106 2t-214 5q-20 0 -22 28t-3 59q0 30 31 30h35q16 0 27 11q12 11 12 24t-1 249q-1 235 -4 259q-9 67 -155 405
q-23 53 -33 78t-27 63q-18 38 -23 60t-25 61q-19 39 -23 51q-12 31 -41 29l-39 2q-33 5 -36 30q-1 7 -5 31t-4 33q-4 31 23 33z" />
    <glyph glyph-name="Lslash" unicode="&#x141;" horiz-adv-x="917" 
d="M131 168q0 138 -4 348q0 18 -15 30q-14 12 -32 6q-36 -10 -85 -25t-54 -15q-39 -6 -39 31v116q-2 29 27 42t92 24q63 12 82 37t20 55q-8 492 -8 572q0 29 -29 28v2q-43 4 -49 49q0 16 -2 25q0 33 28 33q182 6 253 4q72 -2 86 -2h32q18 0 30 -14t15 -29q0 -51 -49 -60
q-27 -4 -27 -32q0 -303 3 -539q2 -18 15 -28t32 -9q61 15 111 25t66 15t24 0q6 -5 10 -25t3 -62q-1 -41 2 -58q3 -16 -2 -24t-23 -12t-47 -9q-28 -5 -44 -9t-43 -11q-28 -6 -46 -10t-36 -28t-18 -52q4 -363 5 -385t15 -34t33 -11q113 8 169 14t103 54q16 16 45 49
q12 12 46 10t51 -14q16 -14 4 -33q-33 -53 -64 -189q-2 -18 -24 -18q-57 4 -191 4l-332 -4q-140 0 -176 -1q-35 -1 -41 22t-6 45q-10 57 35 59h8q41 4 41 43z" />
    <glyph glyph-name="lslash" unicode="&#x142;" horiz-adv-x="917" 
d="M131 168q0 138 -4 348q0 18 -15 30q-14 12 -32 6q-36 -10 -85 -25t-54 -15q-39 -6 -39 31v116q-2 29 27 42t92 24q63 12 82 37t20 55q-8 492 -8 572q0 29 -29 28v2q-43 4 -49 49q0 16 -2 25q0 33 28 33q182 6 253 4q72 -2 86 -2h32q18 0 30 -14t15 -29q0 -51 -49 -60
q-27 -4 -27 -32q0 -303 3 -539q2 -18 15 -28t32 -9q61 15 111 25t66 15t24 0q6 -5 10 -25t3 -62q-1 -41 2 -58q3 -16 -2 -24t-23 -12t-47 -9q-28 -5 -44 -9t-43 -11q-28 -6 -46 -10t-36 -28t-18 -52q4 -363 5 -385t15 -34t33 -11q113 8 169 14t103 54q16 16 45 49
q12 12 46 10t51 -14q16 -14 4 -33q-33 -53 -64 -189q-2 -18 -24 -18q-57 4 -191 4l-332 -4q-140 0 -176 -1q-35 -1 -41 22t-6 45q-10 57 35 59h8q41 4 41 43z" />
    <glyph glyph-name="OE" unicode="&#x152;" horiz-adv-x="1560" 
d="M676 507q0 204 -4 535v338q0 26 -6 44t-37 28q-106 44 -214 -22t-145 -177q-92 -272 -57 -635q0 -23 8 -71q19 -201 57 -300t114 -165t171 -62q53 4 79 31t30 84v47q4 121 4 325zM1319 -35l-656 -8q-253 0 -341 33t-169 118t-126 189q-131 305 -74 666q47 313 235 489
q117 109 344 117h441l303 4h113q25 0 34 -25q4 -10 15 -54t39 -99q10 -25 11 -33t-9 -16t-23 -11q-46 1 -81 31q-36 30 -52 39q-59 31 -182 31q-106 5 -130 -3q-24 -7 -24 -41t-7 -270t-5 -266q2 -28 8 -37q19 -23 101 2t120 88q18 33 44 35t38 -8t8 -31q-12 -94 -20 -153
t8 -134q8 -30 -18 -40t-37 16q-19 30 -29 58t-33 34q-84 23 -153 16q-35 0 -35 -36q-8 -111 4 -535q4 -41 43 -41q186 6 211 7t68 32q117 73 129 74q49 0 34 -47q0 -13 -5 -19t-36 -75t-61 -89q-10 -8 -45 -8z" />
    <glyph glyph-name="oe" unicode="&#x153;" horiz-adv-x="1560" 
d="M676 507q0 204 -4 535v338q0 26 -6 44t-37 28q-106 44 -214 -22t-145 -177q-92 -272 -57 -635q0 -23 8 -71q19 -201 57 -300t114 -165t171 -62q53 4 79 31t30 84v47q4 121 4 325zM1319 -35l-656 -8q-253 0 -341 33t-169 118t-126 189q-131 305 -74 666q47 313 235 489
q117 109 344 117h441l303 4h113q25 0 34 -25q4 -10 15 -54t39 -99q10 -25 11 -33t-9 -16t-23 -11q-46 1 -81 31q-36 30 -52 39q-59 31 -182 31q-106 5 -130 -3q-24 -7 -24 -41t-7 -270t-5 -266q2 -28 8 -37q19 -23 101 2t120 88q18 33 44 35t38 -8t8 -31q-12 -94 -20 -153
t8 -134q8 -30 -18 -40t-37 16q-19 30 -29 58t-33 34q-84 23 -153 16q-35 0 -35 -36q-8 -111 4 -535q4 -41 43 -41q186 6 211 7t68 32q117 73 129 74q49 0 34 -47q0 -13 -5 -19t-36 -75t-61 -89q-10 -8 -45 -8z" />
    <glyph glyph-name="Scaron" unicode="&#x160;" horiz-adv-x="944" 
d="M446 1638q-12 -3 -30 15q-15 11 -100 93q-32 32 -65 68q-34 36 -61 64t-45 49l-18 21q-23 23 -4 41l24 32q10 17 41 3t222 -136q37 -27 75 0q168 109 230 140q20 10 33 -7l24 -32q16 -18 -6 -41l-18 -21q-18 -20 -46 -49t-115 -122q-88 -93 -118 -108q-6 -4 -10 -8
t-13 -2zM121 442q16 0 20 -20l2 -68v-6q1 -120 95 -192t214 -64t195 96q35 43 45 114t-12 120q-51 111 -299 178q-105 29 -201 90t-141 174t-39 232t53 215q89 178 269 227t348 -68q8 -6 17 -2t8 12t-1 24t4 22t16 8t43 1q32 -1 36 -1q18 0 18 -18q4 -48 0 -100t-1 -90
t2 -70t-5 -36t-29 -8l-39 -6q-41 -4 -45 33q-10 92 -71 145q-119 102 -256 52q-79 -31 -137 -102t-46 -152t94 -127q62 -36 134 -59q73 -23 96 -31q160 -63 242 -146q85 -81 120 -198q35 -103 20 -243t-77 -228q-90 -127 -244 -167t-295 23q-62 26 -106 70q-8 6 -18 2
t-15 -25q-3 -21 -25 -21t-49 -1q-37 -4 -41 37q-4 18 -10 317l-2 33q4 25 27 24h86z" />
    <glyph glyph-name="scaron" unicode="&#x161;" horiz-adv-x="944" 
d="M446 1638q-12 -3 -30 15q-15 11 -100 93q-32 32 -65 68q-34 36 -61 64t-45 49l-18 21q-23 23 -4 41l24 32q10 17 41 3t222 -136q37 -27 75 0q168 109 230 140q20 10 33 -7l24 -32q16 -18 -6 -41l-18 -21q-18 -20 -46 -49t-115 -122q-88 -93 -118 -108q-6 -4 -10 -8
t-13 -2zM121 442q16 0 20 -20l2 -68v-6q1 -120 95 -192t214 -64t195 96q35 43 45 114t-12 120q-51 111 -299 178q-105 29 -201 90t-141 174t-39 232t53 215q89 178 269 227t348 -68q8 -6 17 -2t8 12t-1 24t4 22t16 8t43 1q32 -1 36 -1q18 0 18 -18q4 -48 0 -100t-1 -90
t2 -70t-5 -36t-29 -8l-39 -6q-41 -4 -45 33q-10 92 -71 145q-119 102 -256 52q-79 -31 -137 -102t-46 -152t94 -127q62 -36 134 -59q73 -23 96 -31q160 -63 242 -146q85 -81 120 -198q35 -103 20 -243t-77 -228q-90 -127 -244 -167t-295 23q-62 26 -106 70q-8 6 -18 2
t-15 -25q-3 -21 -25 -21t-49 -1q-37 -4 -41 37q-4 18 -10 317l-2 33q4 25 27 24h86z" />
    <glyph glyph-name="Ydieresis" unicode="&#x178;" horiz-adv-x="1249" 
d="M731 1696q-63 25 -88 86q-14 41 0 87t57 79q43 32 77 22t48 -15t37 -24t26 -54q3 -37 4 -61t-28 -77q-20 -33 -59 -46t-74 3zM401 1696q-63 25 -88 86q-14 41 0 87q13 46 57 79t83 20q84 -25 100 -72q25 -75 -18 -157q-19 -33 -59 -46t-75 3zM23 1530q448 0 477 -1
t28 -24q4 -57 5 -79t-19 -27l-45 -2q-12 -1 -19 -13t-1 -24q96 -219 188 -422q9 -18 27 -17t26 17q24 57 82 179t72 158t18 46t7 17q22 52 3 63q-7 5 -45 9q-39 5 -47 15t-8 68q-4 27 27 31l53 4l113 2l98 -2q92 0 98 -6t4 -21l-4 -61q-2 -23 -26 -23l-91 -6q-29 0 -48 -41
q-96 -207 -151 -321q-55 -113 -95 -213t-39 -218q0 -407 4 -473q2 -31 69 -34q31 0 35 -33q6 -36 6 -58t-11 -25q-26 -7 -79 -7q-14 -4 -79 -1q-66 3 -106 2t-214 5q-20 0 -22 28t-3 59q0 30 31 30h35q16 0 27 11q12 11 12 24t-1 249q-1 235 -4 259q-9 67 -155 405
q-23 53 -33 78t-27 63q-18 38 -23 60t-25 61q-19 39 -23 51q-12 31 -41 29l-39 2q-33 5 -36 30q-1 7 -5 31t-4 33q-4 31 23 33z" />
    <glyph glyph-name="Zcaron" unicode="&#x17d;" horiz-adv-x="1167" 
d="M559 1610q-8 0 -14 6q-30 7 -181 171q-34 35 -61 63t-45 48l-18 21q-23 25 -7 43l25 31q12 18 33 8q49 -25 229 -141q39 -23 76 0q203 129 227 140t35 -7l25 -31q18 -18 -4 -43l-19 -21q-18 -20 -45 -48t-61 -64q-161 -170 -181 -170q-6 -6 -14 -6zM39 4q-35 0 -35 28
q0 14 -2 45q-2 30 10 48q8 18 28 18t28 2q25 3 31 23t16 42t37 95q27 74 52 129q24 54 46 115l49 129q12 31 52 144t81 212q42 98 53 122q14 30 25 70q10 40 22 68q38 88 -4 92q-9 3 -53 3t-75 -1q-30 0 -90 -2q-149 -4 -173 -79q-6 -25 -41 -24t-84 7q-23 4 -6 29
q49 98 57 137q10 53 62 53q197 6 414 7h460q27 0 52 -7q33 -5 31 -35t-13 -65q-4 -25 -33 -29l-59 -2q-31 0 -51 -36q-58 -101 -131 -282l-123 -306q-12 -35 -110 -278q-98 -244 -110 -278q-22 -57 21 -59q51 -2 105 -2t143 -1q90 -1 94 1q109 6 160 90q7 13 35 11t71 -2h17
q37 -8 8 -42q-30 -34 -60 -65t-42 -69t-33 -44q-69 -18 -93 -16t-70 6t-290 5q-242 1 -320 -3t-130 -4h-29z" />
    <glyph glyph-name="zcaron" unicode="&#x17e;" horiz-adv-x="1167" 
d="M559 1610q-8 0 -14 6q-30 7 -181 171q-34 35 -61 63t-45 48l-18 21q-23 25 -7 43l25 31q12 18 33 8q49 -25 229 -141q39 -23 76 0q203 129 227 140t35 -7l25 -31q18 -18 -4 -43l-19 -21q-18 -20 -45 -48t-61 -64q-161 -170 -181 -170q-6 -6 -14 -6zM39 4q-35 0 -35 28
q0 14 -2 45q-2 30 10 48q8 18 28 18t28 2q25 3 31 23t16 42t37 95q27 74 52 129q24 54 46 115l49 129q12 31 52 144t81 212q42 98 53 122q14 30 25 70q10 40 22 68q38 88 -4 92q-9 3 -53 3t-75 -1q-30 0 -90 -2q-149 -4 -173 -79q-6 -25 -41 -24t-84 7q-23 4 -6 29
q49 98 57 137q10 53 62 53q197 6 414 7h460q27 0 52 -7q33 -5 31 -35t-13 -65q-4 -25 -33 -29l-59 -2q-31 0 -51 -36q-58 -101 -131 -282l-123 -306q-12 -35 -110 -278q-98 -244 -110 -278q-22 -57 21 -59q51 -2 105 -2t143 -1q90 -1 94 1q109 6 160 90q7 13 35 11t71 -2h17
q37 -8 8 -42q-30 -34 -60 -65t-42 -69t-33 -44q-69 -18 -93 -16t-70 6t-290 5q-242 1 -320 -3t-130 -4h-29z" />
    <glyph glyph-name="florin" unicode="&#x192;" horiz-adv-x="1583" 
d="M1442 1159q-30 0 -54 -1t-50 9t-40 35t-35 87t-49 96q-28 33 -75 51q-85 32 -152 -45q-174 -197 -153 -586q0 -17 5 -21t23 -4t72 4t72 -14t18 -63l-2 -52q-2 -31 -33 -37q-16 -4 -54 -6q-37 -2 -59 -21t-27 -43t-7 -73q0 -489 -260 -649q-92 -57 -205 -60t-209 50
q-25 6 -33 2t-22 -24t-29 -34q-14 -14 -56 -6t-51 17q-8 9 -7 39t1 92t1 103q0 40 18 66q18 25 63 27t66 -8q39 -16 89 -89t107 -83q84 -10 134 49q31 37 40 105q43 205 48 499q0 37 -58 37l-53 -4q-43 -2 -47 35q-4 49 0 100q4 29 31 35q6 2 56 2t64 23q4 8 9 39
q14 338 219 581q123 150 261 161t238 -110q31 -38 57 -32t27 55l2 33q-1 16 9 31q10 14 22 19t101 -1q24 -2 24 -31l-6 -239q-2 -14 1 -38t-4 -55q-12 -53 -48 -53z" />
    <glyph glyph-name="tilde" unicode="&#x2dc;" horiz-adv-x="864" 
d="M586 690q27 0 54 18t25 57q-2 40 23 50q10 4 27 4l65 -4q42 0 26 -89t-65 -132q-53 -53 -147 -61t-160 38t-91 100t-30 60q-47 90 -114 74q-66 -14 -90 -90q-7 -17 -17 -21t-28 -3t-66 -5q-29 0 -35 27q-18 87 41 161t150 97q187 42 271 -138q30 -62 65 -103
q36 -40 96 -40z" />
    <glyph glyph-name="endash" unicode="&#x2013;" horiz-adv-x="655" 
d="M561 598h-92q-131 -3 -189 1t-251 -11h-25q-14 0 -26 11q-11 11 -11 23t2 64q2 53 0 57q-3 39 51 39q27 4 104 1t97 -3h305q14 0 21 2q33 4 39 -37q2 -18 0 -58t1 -58q3 -19 -2 -25t-24 -6z" />
    <glyph glyph-name="emdash" unicode="&#x2014;" horiz-adv-x="1128" 
d="M993 780q14 0 21 2q35 6 37 -37q2 -16 1 -58t1 -59q2 -18 -3 -24q-4 -6 -14 -6t-55 1t-97 -1t-331 3t-508 -13h-25q-14 0 -25 11t-11 23t2 59q2 46 0 52q-2 29 26 35q32 8 441 8l233 4h307z" />
    <glyph glyph-name="quoteleft" unicode="&#x2018;" horiz-adv-x="360" 
d="M276 1296q6 -30 -14 -68t-45 -59q-53 -41 -104 -31t-88 58q-74 98 84 324q8 12 32 32q29 18 47 -3t-6 -48t-28 -37t-11 -37q72 -39 76 -41q47 -31 57 -90z" />
    <glyph glyph-name="quoteright" unicode="&#x2019;" horiz-adv-x="374" 
d="M61 1526q51 42 103 32t88 -58q77 -99 -82 -324q-16 -20 -40 -37t-41 8t11 55t35 66q-74 41 -76 41q-47 27 -57 90q-6 31 14 71t45 56z" />
    <glyph glyph-name="quotedblleft" unicode="&#x201c;" horiz-adv-x="704" 
d="M219 1386q47 -31 57 -90q6 -30 -14 -68t-45 -59q-53 -41 -104 -31t-88 58q-74 98 84 324q8 12 32 32q29 18 47 -3t-6 -48t-28 -37t-11 -37q72 -39 76 -41zM612 1296q6 -30 -14 -68t-58 -69t-90 -21t-90 58q-74 97 84 324q8 12 33 32q29 18 47 -3t-6 -48t-28 -37
q-5 -10 -11 -37q72 -39 76 -41q47 -31 57 -90z" />
    <glyph glyph-name="quotedblright" unicode="&#x201d;" horiz-adv-x="704" 
d="M397 1526q51 42 103 32t88 -58q77 -99 -82 -324q-50 -62 -82 -27q-16 23 12 53t35 66q-72 39 -76 41q-47 27 -57 90q-6 31 14 71t45 56zM61 1526q51 41 103 32q52 -10 88 -58q76 -100 -82 -324q-16 -20 -40 -37t-41 8t11 55t35 66q-74 41 -76 41q-47 27 -57 90
q-6 31 25 88q9 23 34 39z" />
    <glyph glyph-name="dagger" unicode="&#x2020;" horiz-adv-x="712" 
d="M446 1024q-29 0 -32 -29q0 -27 -4 -45q0 -918 -2 -984t-14 -75q-12 -8 -32 -10q-22 -2 -38 1t-29 3l-43 -2q-18 -3 -32 11t-13 32q15 892 6 1041q-2 20 -17 35t-38 16h-62l-82 2q-25 0 -28 24q-9 56 -11 76q-1 20 11 32t28 11h152q33 0 37 35q4 53 4 82l-2 180v133
q4 41 4 63t20 27q88 16 164 9q27 -4 27 -31v-23q-2 -39 -4 -129t-6 -160t-4 -145q0 -39 38 -39h88l84 -2q23 -4 21 -24q0 -10 1 -49t-3 -50q-2 -18 -40 -17t-149 1z" />
    <glyph glyph-name="daggerdbl" unicode="&#x2021;" horiz-adv-x="718" 
d="M432 1638l-14 -434q0 -39 39 -39h88l84 -2q20 -2 20 -24q0 -10 1 -49t-3 -50q-2 -18 -26 -18q-51 2 -162 2q-33 0 -36 -39t-3 -199t5 -166t21 -6h62q27 2 90 2h12q38 0 40 -50q1 -28 3 -57q2 -28 -22 -31q-56 -7 -166 -7q-43 -4 -47 -50t-4 -73v-258l4 -168
q0 -23 -17 -36t-49 -7t-45 6l-43 -2q-18 -3 -32 11t-13 33q0 19 5 199t3 275q0 41 -55 50q-30 0 -78 8h-76q-43 8 -41 55l11 82q0 20 22 21t68 1h72q23 0 47 7q29 4 32 34q6 59 -4 308q-2 20 -17 35t-38 16h-61l-84 2q-23 0 -27 24q-8 52 -10 74t9 34t28 11h153q33 0 37 35
q0 25 3 68q3 44 1 112t-2 82v133l2 66q0 18 21 24q90 16 163 9q29 -4 29 -31v-23z" />
    <glyph glyph-name="bullet" unicode="&#x2022;" horiz-adv-x="391" 
d="M322 782q2 -59 -37 -127q-27 -45 -78 -61t-98 4q-80 35 -115 115q-20 51 -1 112t74 105t101 30q46 -12 64 -20q19 -8 43 -28t34 -50z" />
    <glyph glyph-name="guilsinglleft" unicode="&#x2039;" horiz-adv-x="464" 
d="M311 1029v-38q2 -29 -14 -49l-117 -147q-20 -25 -28 -39q-20 -23 -2 -51q76 -111 112 -149t43 -50q6 -14 0 -111q-18 -72 -59 -35q-14 14 -127 165t-115 153q-35 33 -8 84q12 24 125 169q113 143 121 155q45 61 61 20q8 -24 8 -77z" />
    <glyph glyph-name="guilsinglright" unicode="&#x203a;" horiz-adv-x="382" 
d="M11 1112q11 31 57 -22q46 -65 145 -192q98 -128 102 -136q27 -51 -8 -84q-3 -2 -115 -153t-126 -165q-42 -39 -60 35q-6 95 0 109t43 52t113 149q18 29 -2 51q-25 43 -146 186q-16 25 -15 44t1 57t11 69z" />
    <glyph glyph-name="fraction" unicode="&#x2044;" horiz-adv-x="776" 
d="M127 -131v-2q-10 2 -61 5t-60 18q-8 14 -1 59t103 371t126 430q30 106 121 444t110 403q12 41 53 48q42 6 90 6t62 -6q27 -10 18 -39l-485 -1682q-10 -53 -68 -55h-8z" />
    <glyph glyph-name="Euro" unicode="&#x20ac;" horiz-adv-x="1136" 
d="M674 659q25 0 24 -24v-78q0 -25 -24 -25h-213q-21 0 -33 -14t-10 -35q37 -309 133 -405q71 -61 135 -43t118 92q109 149 138 293q6 37 17 50t47 11q41 0 41 -43q10 -235 10 -320q0 -86 -10 -98t-50 -12t-43 29q0 37 -2 49t-12 17t-19 -3q-118 -105 -172 -123
q-90 -31 -169 -28q-160 10 -328 207q-115 135 -162 333q-10 43 -53 43h-98q-25 0 -25 25v78q0 25 25 24h81q20 -1 32 13t14 33q0 68 2 94q2 25 -12 39t-31 14h-86q-25 0 -25 25v77q0 25 25 25h110q43 0 53 43q41 162 118 302t212 211t289 21q59 -18 121 -69q10 -7 20 -19
t22 -26t20 -24q7 -10 19 -4q11 5 11 18q-14 113 8 135q10 12 35 15q57 7 63 -32q4 -25 3 -42t6 -160t-6 -162q-13 -18 -52 -24q-88 -12 -108 34q-4 10 -12 35q-7 25 -25 61t-25 54q-76 125 -184 102q-175 -29 -223 -418q-2 -20 11 -36t34 -15h215q25 0 24 -25v-77
q0 -25 -24 -25h-234q-37 0 -41 -39l2 -113q1 -16 13 -28t28 -13h232z" />
    <glyph glyph-name="trademark" unicode="&#x2122;" horiz-adv-x="2623" 
d="M2460 586q0 -51 4 -197t3 -212q-1 -67 1 -71t34 -5t35 -6q5 -5 1 -43t-13 -50h-178q-119 -4 -177 -4t-59 31v43q0 27 25 26l23 2q25 0 24 25q4 90 4 267l-4 657q0 14 -14 18t-21 -10q-18 -43 -71 -163t-123 -292t-101 -221q-24 -72 -59 -93t-63 15q-8 18 -45 100l-37 99
q-12 31 -37 93t-37 93l-62 166q-25 61 -59 155t-47 124v2q-6 12 -19 10q-12 -2 -14 -26t-2 -394v-424l2 -160q0 -33 33 -32q20 2 52 2t34 -21l2 -63q0 -25 -27 -25q-117 0 -176 2h-131q-25 0 -24 25v43q0 16 6 22t22 10h39q23 0 29 6t8 120q2 112 1 598t-7 579q-2 18 -27 18
l-39 -2q-25 0 -28 27q0 26 -3 52t21 26l141 -2l48 -4q41 -2 129 0t129 2l22 -2q18 -4 19 -19l-2 -65q1 -8 -5 -14t-16 -7h-14q-10 0 -18 -9q-8 -10 0 -28q6 -18 68 -186t87 -228t74 -204q8 -18 27 -18t26 18q55 150 137 336q37 96 113 284q8 18 -15 27h-6l-4 2q-27 7 -27 29
t-3 41t-1 25q5 14 218 20q201 0 219 -2t23 -8t2 -22t-3 -26l2 -34q-4 -25 -30 -25l-11 -2h-10q-25 -4 -24 -29l6 -368v-424zM680 144q0 -24 14 -28q14 -3 34 0t32 -6q10 -9 10 -24l-2 -74q0 -16 -38 -17t-210 -1t-208 1t-38 17l-4 74q0 14 10 24t32 6q20 -3 29 -1t13 7
q6 8 6 22v16q4 45 9 135v1083q0 33 -42 35t-85 -2q-48 -1 -78 -25t-36 -36t-8 -20q-3 -7 -5 -10q-13 -19 -101 -5q-51 8 -45 28q2 8 23 48l37 86q4 14 0 28q-4 15 0 19t18 4h100l33 -2q94 -4 137 -4l164 6h80q1 0 105 -3t194 1l33 2h100q15 0 19 -4t0 -19v-28l37 -86
q18 -40 22 -48q6 -20 -45 -28q-50 -8 -72 -6t-26 8q-4 7 -13 27t-28 34q-39 33 -88 33q-43 4 -85 2t-42 -35l-4 -241q-7 -613 4 -842l8 -135v-16z" />
    <glyph glyph-name="minus" unicode="&#x2212;" horiz-adv-x="655" 
d="M561 598h-92q-131 -3 -189 1t-251 -11h-25q-14 0 -26 11q-11 11 -11 23t2 64q2 53 0 57q-3 39 51 39q27 4 104 1t97 -3h305q14 0 21 2q33 4 39 -37q2 -18 0 -58t1 -58q3 -19 -2 -25t-24 -6z" />
    </font>
</defs>
</svg>
